{"glyphs":{"0":{"ha":858,"x_min":56,"x_max":803,"o":"m 428 999 q 268 881 325 999 q 211 535 211 764 q 429 43 211 43 q 592 162 535 43 q 650 514 650 281 q 428 999 650 999 m 56 523 q 56 650 56 523 q 159 915 56 778 q 429 1051 263 1051 q 699 914 596 1051 q 803 520 803 776 q 697 126 803 264 q 428 -11 592 -11 q 160 128 265 -11 q 56 523 56 268 z "},"1":{"ha":733,"x_min":69,"x_max":594,"o":"m 172 0 l 172 51 l 307 83 l 307 944 l 69 803 l 69 869 l 365 1043 l 453 1043 l 453 83 l 594 51 l 594 0 l 172 0 z "},"2":{"ha":863,"x_min":83,"x_max":751,"o":"m 751 124 l 751 0 l 89 0 q 83 51 83 21 q 264 353 83 185 q 414 494 339 424 q 542 650 489 565 q 594 815 594 735 q 545 949 594 894 q 403 1004 496 1004 q 247 938 310 1004 l 179 754 l 108 754 l 108 938 q 240 1027 158 996 q 413 1058 322 1058 q 641 981 551 1058 q 731 797 731 904 q 678 644 731 719 q 551 506 626 568 q 399 385 475 444 q 197 124 213 239 l 751 124 z "},"3":{"ha":838,"x_min":83,"x_max":754,"o":"m 460 614 q 679 517 604 599 q 754 292 754 435 q 647 64 754 149 q 388 -21 539 -21 q 83 97 206 -21 l 83 288 l 154 288 l 221 101 q 399 26 306 26 q 551 95 492 26 q 613 299 610 164 q 545 508 604 444 q 379 571 486 571 l 289 571 l 569 979 l 210 979 l 157 754 l 86 754 l 86 1042 l 729 1042 l 729 992 l 460 614 z "},"4":{"ha":863,"x_min":35,"x_max":807,"o":"m 379 0 l 379 51 l 513 82 l 513 272 l 35 272 l 35 371 l 549 1058 l 651 1058 l 651 371 l 807 371 l 807 272 l 651 272 l 651 85 l 801 51 l 801 0 l 379 0 m 513 371 l 513 917 l 103 371 l 513 371 z "},"5":{"ha":808,"x_min":83,"x_max":725,"o":"m 422 688 q 635 588 546 688 q 725 341 725 488 q 638 90 725 194 q 367 -15 550 -15 q 201 13 278 -15 q 83 92 125 42 l 83 285 l 154 285 l 213 96 q 368 44 279 44 q 519 123 457 44 q 582 322 582 201 q 517 520 582 442 q 364 599 451 599 q 176 456 246 599 l 90 456 l 157 1042 l 646 1042 l 646 925 l 206 925 l 160 513 q 274 648 203 608 q 422 688 346 688 z "},"6":{"ha":863,"x_min":83,"x_max":793,"o":"m 489 686 q 712 581 631 686 q 793 337 793 476 q 705 92 793 197 q 457 -12 617 -12 q 247 60 333 -12 q 83 479 83 196 q 197 897 83 733 q 481 1060 310 1060 q 740 961 610 1060 l 740 756 l 669 756 l 613 960 q 456 1003 526 1003 q 229 513 236 1003 q 489 686 308 686 m 231 326 l 231 315 q 290 117 231 186 q 442 49 350 49 q 590 127 535 49 q 646 317 646 206 q 588 515 646 429 q 439 601 531 601 q 289 530 347 601 q 231 326 231 458 z "},"7":{"ha":767,"x_min":42,"x_max":725,"o":"m 42 754 l 42 1042 l 725 1042 l 725 975 q 449 460 550 728 q 343 0 349 193 l 172 0 q 348 471 217 207 q 639 931 479 735 l 151 931 l 114 754 l 42 754 z "},"8":{"ha":874,"x_min":83,"x_max":790,"o":"m 447 514 l 435 514 q 291 442 343 514 q 239 264 239 369 q 297 95 239 158 q 434 32 354 32 q 574 97 514 32 q 633 267 633 161 q 585 444 633 374 q 447 514 536 514 m 303 633 q 327 600 303 633 q 436 568 350 568 q 572 635 522 568 q 621 799 621 701 q 567 952 621 896 q 439 1008 514 1008 q 310 950 364 1008 q 257 794 257 892 q 303 633 257 697 m 790 265 q 686 56 790 131 q 438 -19 582 -19 q 189 56 294 -19 q 83 265 83 132 q 147 435 83 358 q 335 543 211 511 q 170 636 226 569 q 114 786 114 703 q 210 985 114 913 q 438 1057 307 1057 q 667 985 569 1057 q 764 783 764 913 q 708 635 764 701 q 542 543 651 569 q 726 435 663 511 q 790 265 790 358 z "},"9":{"ha":876,"x_min":83,"x_max":793,"o":"m 388 361 q 165 466 246 361 q 83 710 83 571 q 172 955 83 850 q 419 1060 260 1060 q 631 988 543 1060 q 793 568 793 851 q 677 149 793 311 q 378 -12 561 -12 q 118 86 249 -12 l 118 292 l 189 292 l 246 88 q 403 44 332 44 q 586 168 531 44 q 647 535 642 292 q 388 361 564 361 m 646 721 l 646 732 q 586 930 646 861 q 434 999 526 999 q 286 920 342 999 q 231 730 231 842 q 288 532 231 618 q 438 446 346 446 q 588 517 529 446 q 646 721 646 589 z "},"\u0000":{"ha":0,"x_min":0,"x_max":0,"o":""},"\r":{"ha":390,"x_min":0,"x_max":0,"o":""}," ":{"ha":390,"x_min":0,"x_max":0,"o":""},"!":{"ha":474,"x_min":146,"x_max":328,"o":"m 146 76 q 146 95 146 76 q 171 140 146 114 q 236 165 196 165 q 302 141 276 165 q 328 76 328 117 q 303 10 328 36 q 238 -15 278 -15 q 172 11 197 -15 q 146 76 146 38 m 265 254 l 208 254 l 158 1042 l 317 1042 l 265 254 z "},"\"":{"ha":468,"x_min":31,"x_max":438,"o":"m 149 756 l 83 756 l 31 1104 l 200 1104 l 149 756 m 386 756 l 321 756 l 268 1104 l 438 1104 l 386 756 z "},"#":{"ha":899,"x_min":65,"x_max":831,"o":"m 550 631 l 393 631 l 365 435 l 522 435 l 550 631 m 65 385 l 65 435 l 268 435 l 297 631 l 106 631 l 106 685 l 303 685 l 354 1042 l 451 1042 l 401 685 l 556 685 l 610 1042 l 700 1042 l 651 685 l 831 685 l 831 631 l 643 631 l 617 435 l 793 435 l 793 385 l 610 385 l 554 0 l 463 0 l 515 385 l 358 385 l 304 0 l 210 0 l 263 385 l 65 385 z "},"$":{"ha":899,"x_min":79,"x_max":790,"o":"m 394 -12 q 86 88 236 -6 l 86 317 l 167 317 l 226 92 q 394 42 300 44 l 394 465 q 360 482 382 471 q 331 496 338 493 q 79 776 79 599 q 160 967 79 885 q 394 1054 242 1049 l 394 1169 l 451 1169 l 451 1053 q 726 947 632 1039 l 726 744 l 656 744 l 592 956 q 451 996 526 989 l 451 607 l 508 581 q 790 272 790 469 q 736 122 790 186 q 451 -10 636 3 l 451 -118 l 394 -118 l 394 -12 m 650 210 q 595 344 647 293 q 451 440 543 396 l 451 44 q 540 67 500 51 q 614 119 581 82 q 650 210 647 157 m 394 996 q 268 948 319 990 q 217 836 217 906 q 265 720 217 767 q 394 632 313 674 l 394 996 z "},"%":{"ha":1178,"x_min":43,"x_max":1135,"o":"m 901 486 q 781 267 781 486 q 809 92 781 147 q 904 36 838 36 q 1026 258 1026 36 q 998 430 1026 374 q 901 486 969 486 m 675 262 q 675 327 675 262 q 735 459 675 392 q 903 526 796 526 q 1072 458 1010 526 q 1135 260 1135 389 q 1072 62 1135 131 q 903 -7 1008 -7 q 737 63 799 -7 q 675 262 675 132 m 974 1054 l 253 -49 l 204 -15 l 924 1089 l 974 1054 m 272 1006 q 151 788 151 1006 q 179 612 151 668 q 274 556 207 556 q 397 778 397 556 q 369 950 397 894 q 272 1006 340 1006 m 43 783 q 43 847 43 783 q 104 979 43 911 q 272 1047 165 1047 q 441 978 379 1047 q 503 778 503 910 q 441 581 503 647 q 274 514 379 514 q 106 584 169 514 q 43 783 43 654 z "},"&":{"ha":1117,"x_min":76,"x_max":1103,"o":"m 447 -21 q 183 60 289 -21 q 76 271 76 142 q 131 427 76 365 q 328 567 186 489 q 222 706 250 649 q 193 831 193 763 q 272 999 193 935 q 471 1063 351 1063 q 664 1001 590 1063 q 738 847 738 939 q 683 702 738 754 q 488 589 629 650 l 813 260 q 866 398 851 338 q 881 543 881 458 l 943 543 q 924 388 943 461 q 851 218 904 314 l 993 81 l 1103 51 l 1103 0 l 888 0 l 768 114 q 620 10 696 42 q 447 -21 544 -21 m 224 297 q 294 103 224 178 q 471 28 364 28 q 729 153 622 28 l 363 528 q 255 436 286 492 q 224 297 224 381 m 592 724 q 629 853 629 778 q 589 973 629 929 q 480 1017 549 1017 q 369 978 411 1017 q 326 865 326 939 q 383 715 326 790 q 420 666 386 707 q 456 625 454 625 q 592 724 521 625 z "},"'":{"ha":231,"x_min":31,"x_max":200,"o":"m 149 753 l 83 753 l 31 1104 l 200 1104 l 149 753 z "},"(":{"ha":517,"x_min":79,"x_max":456,"o":"m 390 -450 q 151 -117 224 -300 q 79 338 79 65 q 153 790 79 610 q 390 1114 228 969 l 456 1114 q 282 822 338 1007 q 226 333 226 638 q 456 -450 226 -251 l 390 -450 z "},")":{"ha":517,"x_min":61,"x_max":436,"o":"m 126 1114 q 364 783 292 965 q 436 329 436 601 q 363 -125 436 57 q 126 -450 290 -307 l 61 -450 q 235 -156 179 -340 q 290 332 290 29 q 233 821 290 635 q 61 1114 176 1007 l 126 1114 z "},"*":{"ha":675,"x_min":61,"x_max":614,"o":"m 392 1104 l 361 865 l 579 968 l 614 863 l 378 817 l 542 643 l 451 578 l 336 789 l 222 578 l 131 643 l 296 817 l 61 863 l 96 968 l 311 865 l 281 1104 l 392 1104 z "},"+":{"ha":849,"x_min":60,"x_max":789,"o":"m 60 568 l 378 568 l 378 908 l 471 908 l 471 568 l 789 568 l 789 475 l 471 475 l 471 138 l 378 138 l 378 475 l 60 475 l 60 568 z "},",":{"ha":358,"x_min":39,"x_max":293,"o":"m 103 -194 l 39 -194 l 117 156 l 293 156 l 103 -194 z "},"-":{"ha":506,"x_min":76,"x_max":428,"o":"m 76 411 l 428 411 l 428 317 l 76 317 l 76 411 z "},".":{"ha":346,"x_min":79,"x_max":263,"o":"m 79 76 q 79 95 79 76 q 105 140 79 114 q 171 165 131 165 q 237 141 211 165 q 263 76 263 117 q 238 10 263 36 q 172 -15 213 -15 q 106 11 132 -15 q 79 76 79 38 z "},"/":{"ha":565,"x_min":-122,"x_max":571,"o":"m 571 1114 l -47 -444 l -122 -444 l 497 1114 l 571 1114 z "},":":{"ha":346,"x_min":79,"x_max":263,"o":"m 79 590 q 79 609 79 590 q 104 656 79 628 q 169 683 129 683 q 236 658 210 683 q 263 592 263 632 q 238 526 263 551 q 172 500 213 500 q 106 526 132 500 q 79 590 79 553 m 79 76 q 79 95 79 76 q 105 140 79 114 q 171 165 131 165 q 237 141 211 165 q 263 76 263 117 q 238 10 263 36 q 172 -15 213 -15 q 106 11 132 -15 q 79 76 79 38 z "},";":{"ha":358,"x_min":39,"x_max":293,"o":"m 103 -194 l 39 -194 l 117 156 l 293 156 l 103 -194 m 100 590 q 100 609 100 590 q 125 656 100 628 q 190 683 150 683 q 256 658 229 683 q 283 592 283 632 q 258 526 283 551 q 192 500 232 500 q 126 526 151 500 q 100 590 100 553 z "},"<":{"ha":781,"x_min":51,"x_max":728,"o":"m 728 850 l 728 750 l 188 514 l 728 278 l 728 179 l 51 483 l 51 547 l 728 850 z "},"=":{"ha":849,"x_min":61,"x_max":789,"o":"m 61 460 l 789 460 l 789 365 l 61 365 l 61 460 m 61 679 l 789 679 l 789 586 l 61 586 l 61 679 z "},">":{"ha":781,"x_min":53,"x_max":729,"o":"m 53 179 l 53 278 l 593 514 l 53 750 l 53 850 l 729 547 l 729 483 l 53 179 z "},"?":{"ha":765,"x_min":79,"x_max":685,"o":"m 79 754 l 79 938 q 197 1027 119 996 q 364 1058 274 1058 q 590 997 494 1058 q 685 822 685 935 q 646 692 685 756 q 531 579 607 628 l 488 551 q 378 440 406 499 q 351 281 351 381 l 351 253 l 289 253 l 289 307 q 314 452 289 397 q 415 589 339 507 l 463 639 q 535 828 535 718 q 481 960 535 911 q 347 1008 428 1008 q 218 940 267 1008 l 150 754 l 79 754 m 232 76 q 232 95 232 76 q 257 140 232 114 q 322 165 282 165 q 388 141 363 165 q 414 76 414 117 q 389 10 414 36 q 324 -15 364 -15 q 258 11 283 -15 q 232 76 232 38 z "},"@":{"ha":1288,"x_min":86,"x_max":1199,"o":"m 758 649 q 661 763 758 763 q 564 701 610 763 q 496 562 518 640 q 474 422 474 483 q 498 325 474 360 q 558 290 522 290 q 698 400 638 290 q 758 649 758 510 m 833 483 q 817 366 817 400 q 837 308 817 332 q 896 283 857 283 q 1011 343 963 283 q 1103 651 1103 456 q 991 917 1103 818 q 701 1015 879 1015 q 328 855 472 1015 q 183 450 183 694 q 297 143 183 256 q 589 31 410 31 q 756 53 658 31 l 756 0 q 576 -21 656 -21 q 226 113 367 -21 q 86 467 86 247 q 260 893 86 721 q 701 1065 433 1065 q 1060 942 922 1065 q 1199 622 1199 819 q 1101 346 1199 457 q 871 235 1004 235 q 765 267 806 235 q 717 360 724 300 q 535 239 646 239 q 417 294 463 239 q 371 443 371 349 q 452 697 371 583 q 653 811 533 811 q 775 743 725 811 l 786 797 l 893 797 l 833 483 z "},"A":{"ha":1271,"x_min":69,"x_max":1201,"o":"m 69 0 l 69 51 l 193 82 l 614 1053 l 685 1053 l 1085 82 l 1201 51 l 1201 0 l 807 0 l 807 51 l 928 81 l 818 350 l 399 350 l 294 81 l 419 51 l 419 0 l 69 0 m 418 403 l 799 403 l 604 890 l 418 403 z "},"B":{"ha":1008,"x_min":125,"x_max":953,"o":"m 125 1042 l 538 1042 q 925 788 925 1042 q 860 624 925 685 q 651 542 794 563 q 953 276 953 515 q 876 90 953 165 q 743 17 821 35 q 514 0 665 0 l 125 0 l 125 51 l 258 82 l 258 958 l 125 990 l 125 1042 m 403 56 l 513 56 q 728 108 661 56 q 794 279 794 161 q 730 452 794 397 q 525 507 665 507 l 403 507 l 403 56 m 403 565 l 514 565 q 769 785 769 565 q 683 950 769 910 q 479 986 610 986 l 403 986 l 403 565 z "},"C":{"ha":1053,"x_min":83,"x_max":942,"o":"m 942 335 l 942 100 q 597 -29 818 -29 q 230 119 376 -29 q 83 515 83 267 q 232 909 83 763 q 601 1056 381 1056 q 942 940 821 1056 l 942 715 l 869 715 l 801 936 q 600 1004 725 1004 q 343 878 442 1004 q 244 522 244 753 q 340 158 244 290 q 594 26 435 26 q 807 104 724 26 l 876 335 l 942 335 z "},"D":{"ha":1189,"x_min":125,"x_max":1106,"o":"m 125 1042 l 494 1042 q 743 1016 636 1042 q 934 931 850 990 q 1062 768 1018 872 q 1106 515 1106 664 q 1061 264 1106 367 q 929 105 1017 161 q 731 24 842 49 q 469 0 621 0 l 125 0 l 125 51 l 263 83 l 263 957 l 125 990 l 125 1042 m 408 58 l 476 58 q 831 161 717 58 q 944 515 944 264 q 838 874 944 765 q 500 983 731 983 l 408 983 l 408 58 z "},"E":{"ha":972,"x_min":125,"x_max":917,"o":"m 125 1042 l 890 1042 l 890 793 l 818 793 l 764 982 l 408 982 l 408 567 l 676 567 l 714 688 l 765 688 l 765 400 l 714 400 l 676 506 l 408 506 l 408 60 l 789 60 l 843 247 l 917 247 l 917 0 l 125 0 l 125 51 l 263 83 l 263 957 l 125 990 l 125 1042 z "},"F":{"ha":947,"x_min":125,"x_max":892,"o":"m 767 383 l 715 383 l 676 489 l 410 489 l 410 82 l 547 51 l 547 0 l 125 0 l 125 51 l 264 83 l 264 957 l 126 990 l 126 1042 l 892 1042 l 892 793 l 819 793 l 765 982 l 410 982 l 410 551 l 676 551 l 715 669 l 767 669 l 767 383 z "},"G":{"ha":1114,"x_min":83,"x_max":1114,"o":"m 685 450 l 1114 450 l 1114 399 l 976 367 l 976 50 q 794 0 906 18 q 590 -18 683 -18 q 215 125 347 -18 q 83 517 83 268 q 213 915 83 765 q 578 1064 342 1064 q 776 1038 674 1064 q 946 950 879 1013 l 946 715 l 874 715 l 806 946 q 575 1011 744 1011 q 325 885 406 1011 q 244 528 244 758 q 588 38 244 38 q 831 71 696 38 l 831 367 l 685 399 l 685 450 z "},"H":{"ha":1329,"x_min":125,"x_max":1204,"o":"m 782 0 l 782 51 l 918 82 l 918 500 l 410 500 l 410 82 l 549 51 l 549 0 l 125 0 l 125 51 l 264 82 l 264 957 l 125 990 l 125 1042 l 549 1042 l 549 990 l 410 957 l 410 563 l 918 563 l 918 957 l 782 990 l 782 1042 l 1204 1042 l 1204 990 l 1064 958 l 1064 83 l 1204 51 l 1204 0 l 782 0 z "},"I":{"ha":672,"x_min":125,"x_max":547,"o":"m 125 1042 l 547 1042 l 547 990 l 408 958 l 408 82 l 547 51 l 547 0 l 125 0 l 125 51 l 263 83 l 263 957 l 125 990 l 125 1042 z "},"J":{"ha":660,"x_min":97,"x_max":535,"o":"m 113 1042 l 535 1042 l 535 990 l 394 958 l 394 386 q 385 74 394 122 q 363 -24 375 25 q 331 -104 350 -74 q 286 -175 313 -135 q 136 -333 244 -237 l 97 -310 q 197 -153 175 -208 q 228 -67 219 -97 q 242 19 238 -36 q 247 233 247 92 l 247 958 l 113 990 l 113 1042 z "},"K":{"ha":1197,"x_min":125,"x_max":1128,"o":"m 681 1042 l 1033 1042 l 1033 990 l 910 960 l 532 604 l 964 82 l 1128 51 l 1128 0 l 836 0 l 408 525 l 408 82 l 547 51 l 547 0 l 125 0 l 125 51 l 263 83 l 263 957 l 125 990 l 125 1042 l 547 1042 l 547 990 l 408 958 l 408 553 l 789 964 l 681 990 l 681 1042 z "},"L":{"ha":975,"x_min":125,"x_max":892,"o":"m 125 1042 l 547 1042 l 547 990 l 410 958 l 410 61 l 765 61 l 819 263 l 892 263 l 892 0 l 125 0 l 125 51 l 264 83 l 264 957 l 125 990 l 125 1042 z "},"M":{"ha":1585,"x_min":125,"x_max":1460,"o":"m 1035 0 l 1035 51 l 1171 83 l 1171 956 l 793 0 l 708 0 l 331 956 l 331 83 l 469 51 l 469 0 l 125 0 l 125 51 l 258 83 l 258 954 l 140 990 l 140 1042 l 439 1042 l 790 172 l 1132 1042 l 1460 1042 l 1460 990 l 1315 957 l 1315 83 l 1457 51 l 1457 0 l 1035 0 z "},"N":{"ha":1332,"x_min":125,"x_max":1207,"o":"m 865 1042 l 1207 1042 l 1207 990 l 1071 956 l 1071 0 l 974 0 l 324 953 l 324 82 l 460 51 l 460 0 l 125 0 l 125 51 l 254 82 l 254 954 l 125 990 l 125 1042 l 435 1042 l 1001 219 l 1001 954 l 865 990 l 865 1042 z "},"O":{"ha":1156,"x_min":83,"x_max":1072,"o":"m 914 522 q 914 643 914 522 q 827 888 914 764 q 577 1011 740 1011 q 329 885 414 1011 q 244 521 244 758 q 327 156 244 283 q 572 29 410 29 q 824 154 735 29 q 914 522 914 279 m 83 520 q 83 645 83 520 q 222 919 83 771 q 580 1067 361 1067 q 935 915 799 1067 q 1072 518 1072 764 q 936 123 1072 272 q 576 -26 800 -26 q 218 122 353 -26 q 83 520 83 269 z "},"P":{"ha":997,"x_min":125,"x_max":956,"o":"m 125 1042 l 543 1042 q 860 972 764 1042 q 956 751 956 901 q 832 506 956 569 q 532 450 722 450 l 406 450 l 406 83 l 547 51 l 547 0 l 125 0 l 125 51 l 260 83 l 260 958 l 125 990 l 125 1042 m 406 506 l 561 506 q 737 564 679 506 q 794 746 794 622 q 737 928 794 869 q 561 986 679 986 l 406 986 l 406 506 z "},"Q":{"ha":1138,"x_min":83,"x_max":1096,"o":"m 913 519 q 913 641 913 519 q 824 885 913 763 q 574 1008 736 1008 q 328 884 413 1008 q 243 524 243 760 q 326 161 243 289 q 573 33 410 33 q 824 155 736 33 q 913 519 913 276 m 1096 -322 l 1043 -322 q 806 -285 906 -322 q 645 -186 706 -247 q 532 -26 585 -125 q 206 141 328 -7 q 83 529 83 289 q 222 918 83 769 q 576 1067 360 1067 q 932 919 793 1067 q 1071 518 1071 771 q 980 181 1071 318 q 733 -3 889 43 l 685 -17 q 856 -216 779 -169 q 1096 -276 932 -262 l 1096 -322 z "},"R":{"ha":1176,"x_min":125,"x_max":1107,"o":"m 1107 0 l 826 0 l 483 464 l 406 464 l 406 83 l 547 51 l 547 0 l 125 0 l 125 51 l 260 83 l 260 958 l 125 990 l 125 1042 l 543 1042 q 860 975 764 1042 q 956 761 956 908 q 869 542 956 614 q 643 471 783 471 l 956 82 l 1107 51 l 1107 0 m 406 986 l 406 518 l 561 518 q 737 574 679 518 q 794 752 794 629 q 738 931 794 875 q 561 986 681 986 l 406 986 z "},"S":{"ha":839,"x_min":97,"x_max":808,"o":"m 426 -12 q 104 88 265 -12 l 104 317 l 185 317 l 244 92 q 422 42 324 42 q 572 75 496 42 q 639 128 613 93 q 668 210 665 163 q 553 394 664 321 q 440 453 511 421 q 349 496 369 486 q 97 776 97 599 q 183 971 97 888 q 429 1054 269 1054 q 599 1028 511 1054 q 744 947 686 1003 l 744 744 l 674 744 l 610 956 q 443 997 532 997 q 294 955 354 997 q 235 838 235 913 q 308 697 235 750 q 440 620 371 651 q 526 581 510 589 q 808 272 808 461 q 744 111 808 178 q 426 -12 628 -12 z "},"T":{"ha":994,"x_min":42,"x_max":953,"o":"m 288 0 l 288 51 l 422 83 l 422 982 l 168 982 l 114 779 l 42 779 l 42 1042 l 953 1042 l 953 779 l 881 779 l 826 982 l 568 982 l 568 82 l 710 51 l 710 0 l 288 0 z "},"U":{"ha":1236,"x_min":83,"x_max":1153,"o":"m 807 1042 l 1153 1042 l 1153 992 l 1022 957 l 1022 400 q 619 -21 1022 -21 q 318 90 414 -21 q 222 418 222 200 l 222 957 l 83 990 l 83 1042 l 506 1042 l 506 990 l 368 958 l 368 392 q 439 127 368 211 q 650 43 510 43 q 946 407 946 43 l 946 957 l 807 992 l 807 1042 z "},"V":{"ha":1213,"x_min":56,"x_max":1157,"o":"m 817 1042 l 1157 1042 l 1157 992 l 1040 956 l 647 -11 l 565 -11 l 182 960 l 56 990 l 56 1042 l 478 1042 l 478 990 l 344 960 l 654 163 l 936 957 l 817 992 l 817 1042 z "},"W":{"ha":1788,"x_min":56,"x_max":1732,"o":"m 1392 1042 l 1732 1042 l 1732 992 l 1611 956 l 1276 0 l 1193 0 l 890 860 l 593 0 l 510 0 l 183 958 l 56 990 l 56 1042 l 478 1042 l 478 990 l 338 960 l 593 196 l 883 1042 l 969 1042 l 1275 183 l 1514 958 l 1392 992 l 1392 1042 z "},"X":{"ha":1153,"x_min":69,"x_max":1083,"o":"m 69 1042 l 492 1042 l 492 990 l 383 961 l 599 618 l 829 956 l 707 992 l 707 1042 l 1047 1042 l 1047 992 l 925 954 l 644 565 l 950 85 l 1083 51 l 1083 0 l 661 0 l 661 51 l 775 81 l 549 443 l 300 76 l 411 50 l 411 0 l 71 0 l 71 50 l 196 82 l 499 497 l 206 956 l 69 990 l 69 1042 z "},"Y":{"ha":1110,"x_min":42,"x_max":1068,"o":"m 42 1042 l 464 1042 l 464 990 l 342 961 l 606 508 l 849 957 l 728 992 l 728 1042 l 1068 1042 l 1068 992 l 944 954 l 636 446 l 636 83 l 779 51 l 779 0 l 357 0 l 357 51 l 490 82 l 490 426 l 175 956 l 42 990 l 42 1042 z "},"Z":{"ha":1007,"x_min":83,"x_max":924,"o":"m 108 779 l 108 1042 l 897 1042 l 897 992 l 261 68 l 799 68 l 851 263 l 924 263 l 924 0 l 83 0 l 83 51 l 715 976 l 232 976 l 181 779 l 108 779 z "},"[":{"ha":522,"x_min":150,"x_max":456,"o":"m 288 1053 l 288 -386 l 456 -386 l 456 -436 l 150 -436 l 150 1104 l 456 1104 l 456 1053 l 288 1053 z "},"\\":{"ha":565,"x_min":-7,"x_max":686,"o":"m 68 1114 l 686 -444 l 613 -444 l -7 1114 l 68 1114 z "},"]":{"ha":522,"x_min":67,"x_max":374,"o":"m 236 -386 l 236 1053 l 67 1053 l 67 1104 l 374 1104 l 374 -436 l 67 -436 l 67 -386 l 236 -386 z "},"^":{"ha":781,"x_min":60,"x_max":724,"o":"m 156 599 l 60 599 l 347 1042 l 435 1042 l 724 599 l 624 599 l 389 968 l 156 599 z "},"_":{"ha":781,"x_min":0,"x_max":781,"o":"m 0 -172 l 781 -172 l 781 -265 l 0 -265 l 0 -172 z "},"`":{"ha":536,"x_min":132,"x_max":501,"o":"m 501 840 l 458 840 l 132 1042 l 318 1042 l 501 840 z "},"a":{"ha":808,"x_min":56,"x_max":753,"o":"m 753 0 l 508 0 l 508 140 q 279 -12 443 -12 q 113 35 169 -12 q 56 169 56 83 q 163 345 56 292 q 506 403 271 399 l 506 463 q 465 597 506 561 q 346 632 425 632 q 208 596 267 632 l 163 458 l 111 458 l 111 615 q 207 665 146 644 q 340 685 268 685 q 562 628 488 685 q 636 429 636 572 l 636 83 l 753 51 l 753 0 m 315 46 q 455 115 404 46 q 506 354 506 183 q 214 281 267 354 q 189 178 189 246 q 219 78 189 110 q 315 46 249 46 z "},"b":{"ha":907,"x_min":56,"x_max":824,"o":"m 56 1042 l 303 1042 l 303 517 q 393 644 332 601 q 533 688 454 688 q 743 595 663 688 q 824 336 824 503 q 744 78 824 169 q 532 -14 664 -14 q 385 32 447 -14 q 294 164 322 78 l 294 0 l 56 0 l 56 51 l 171 83 l 171 971 l 56 992 l 56 1042 m 514 625 q 363 547 424 625 q 303 338 303 468 q 360 128 303 208 q 514 49 418 49 q 683 337 683 49 q 514 625 683 625 z "},"c":{"ha":715,"x_min":69,"x_max":639,"o":"m 639 217 l 639 53 q 415 -14 567 -14 q 166 78 263 -14 q 69 333 69 169 q 169 592 69 497 q 422 688 268 688 q 546 672 486 688 q 636 628 606 656 l 636 456 l 585 456 l 539 607 q 410 636 500 636 q 266 558 319 636 q 213 332 213 481 q 426 39 213 39 q 539 58 497 39 l 588 217 l 639 217 z "},"d":{"ha":867,"x_min":83,"x_max":853,"o":"m 501 1042 l 735 1042 l 735 81 l 853 51 l 853 0 l 611 0 l 611 158 q 374 -14 561 -14 q 163 76 243 -14 q 83 333 83 167 q 163 592 83 499 q 372 685 243 685 q 527 640 465 685 q 606 524 589 596 l 606 971 l 501 992 l 501 1042 m 396 622 q 224 335 224 622 q 397 49 224 49 q 551 126 490 49 q 611 335 611 204 q 551 544 611 465 q 396 622 490 622 z "},"e":{"ha":765,"x_min":71,"x_max":681,"o":"m 671 235 l 671 76 q 416 -14 592 -14 q 156 78 240 -14 q 71 335 71 171 q 160 592 71 499 q 401 686 250 686 q 552 653 492 686 q 639 564 613 619 q 681 371 681 472 l 210 371 q 246 132 210 214 q 410 39 288 39 q 492 51 453 39 q 550 74 532 63 q 568 88 568 85 l 619 235 l 671 235 m 399 632 q 238 524 281 632 q 213 417 217 475 l 560 417 q 399 632 560 632 z "},"f":{"ha":521,"x_min":56,"x_max":521,"o":"m 521 833 l 463 833 l 431 953 q 379 968 403 968 q 307 921 332 968 q 282 799 282 874 q 311 675 282 724 l 478 675 l 478 618 l 314 618 l 314 82 l 419 51 l 419 0 l 86 0 l 86 51 l 182 82 l 182 618 l 56 618 l 56 675 l 182 675 q 226 951 182 867 q 379 1035 271 1035 q 521 1011 435 1035 l 521 833 z "},"g":{"ha":743,"x_min":35,"x_max":735,"o":"m 192 -79 q 125 -225 125 -146 q 188 -356 125 -304 q 367 -408 251 -408 q 559 -358 483 -408 q 635 -225 635 -307 q 501 -117 635 -128 l 304 -101 q 192 -79 231 -96 m 364 633 q 211 426 211 633 q 249 269 211 319 q 365 219 286 219 q 522 422 522 219 q 485 584 522 535 q 364 633 447 633 m 735 671 l 735 622 l 610 574 q 651 425 651 513 q 569 238 651 307 q 361 168 488 168 q 268 179 321 168 q 200 99 200 142 q 224 40 200 57 q 336 15 249 24 l 474 4 q 657 -46 601 1 q 713 -187 713 -93 q 613 -386 713 -315 q 358 -457 513 -457 q 119 -400 204 -457 q 35 -238 35 -343 q 161 -65 35 -133 q 106 40 106 -18 q 132 129 106 99 q 228 192 158 160 q 83 426 83 265 q 160 617 83 546 q 365 689 236 689 q 499 671 428 689 l 735 671 z "},"h":{"ha":875,"x_min":56,"x_max":854,"o":"m 64 1042 l 289 1042 l 289 504 q 526 685 336 685 q 693 623 633 685 q 753 440 753 561 l 753 81 l 854 51 l 854 0 l 525 0 l 525 51 l 621 81 l 621 438 q 590 576 621 535 q 496 618 560 618 q 343 528 397 618 q 289 253 289 438 l 289 79 l 385 51 l 385 0 l 56 0 l 56 51 l 157 82 l 157 975 l 64 992 l 64 1042 z "},"i":{"ha":447,"x_min":63,"x_max":392,"o":"m 69 674 l 294 674 l 294 79 l 392 51 l 392 0 l 63 0 l 63 51 l 164 82 l 164 607 l 69 624 l 69 674 m 115 969 q 115 988 115 969 q 140 1028 115 1007 q 205 1050 164 1050 q 271 1028 246 1050 q 296 970 296 1007 q 272 911 296 933 q 206 889 249 889 q 140 910 164 889 q 115 969 115 932 z "},"j":{"ha":335,"x_min":14,"x_max":269,"o":"m 31 674 l 256 674 l 256 53 q 238 -161 256 -85 q 185 -290 221 -237 q 54 -447 150 -343 l 14 -417 q 108 -256 93 -325 q 124 -21 124 -186 l 124 607 l 31 624 l 31 674 m 89 969 q 89 988 89 969 q 113 1028 89 1007 q 178 1050 138 1050 q 244 1028 219 1050 q 269 970 269 1007 q 246 911 269 933 q 180 889 222 889 q 113 910 138 889 q 89 969 89 932 z "},"k":{"ha":897,"x_min":83,"x_max":883,"o":"m 83 1042 l 331 1042 l 331 388 l 557 596 l 457 621 l 457 672 l 776 672 l 776 621 l 654 592 l 444 422 l 747 85 l 883 51 l 883 0 l 649 0 l 331 363 l 331 85 l 436 51 l 436 0 l 83 0 l 83 51 l 199 83 l 199 972 l 83 992 l 83 1042 z "},"l":{"ha":478,"x_min":83,"x_max":436,"o":"m 92 1042 l 324 1042 l 324 82 l 436 51 l 436 0 l 83 0 l 83 51 l 192 81 l 192 975 l 92 992 l 92 1042 z "},"m":{"ha":1403,"x_min":76,"x_max":1336,"o":"m 81 674 l 306 674 l 306 493 q 557 685 368 685 q 694 644 643 685 q 767 510 746 604 q 1003 685 829 685 q 1162 626 1104 685 q 1219 453 1219 567 l 1219 79 l 1336 51 l 1336 0 l 989 0 l 989 51 l 1089 82 l 1089 418 q 1058 574 1089 532 q 967 617 1028 617 q 769 253 769 617 l 769 81 l 888 51 l 888 0 l 535 0 l 535 51 l 638 81 l 638 396 q 611 567 638 517 q 522 618 585 618 q 419 587 460 618 q 358 503 379 556 q 318 268 318 406 l 318 82 l 426 51 l 426 0 l 76 0 l 76 51 l 186 81 l 186 606 l 81 624 l 81 674 z "},"n":{"ha":956,"x_min":93,"x_max":893,"o":"m 93 675 l 318 675 l 318 479 q 565 685 374 685 q 732 616 678 685 q 786 426 786 547 l 786 82 l 893 51 l 893 0 l 564 0 l 564 51 l 657 79 l 657 410 q 627 571 657 522 q 533 619 597 619 q 381 526 435 619 q 328 244 328 432 l 328 79 l 425 51 l 425 0 l 93 0 l 93 51 l 196 81 l 196 606 l 93 625 l 93 675 z "},"o":{"ha":808,"x_min":65,"x_max":742,"o":"m 603 332 q 603 407 603 332 q 557 555 603 482 q 408 628 511 628 q 255 558 304 628 q 206 333 206 488 q 254 112 206 179 q 403 44 303 44 q 553 113 504 44 q 603 332 603 182 m 65 332 q 65 414 65 332 q 158 591 65 496 q 405 686 251 686 q 650 593 558 686 q 742 333 742 500 q 650 77 742 167 q 403 -12 558 -12 q 157 78 249 -12 q 65 332 65 168 z "},"p":{"ha":872,"x_min":42,"x_max":799,"o":"m 44 674 l 269 674 l 269 503 q 507 685 333 685 q 719 593 639 685 q 799 335 799 501 q 719 77 799 169 q 508 -15 639 -15 q 278 150 340 -15 l 278 -356 l 379 -386 l 379 -437 l 42 -437 l 42 -386 l 146 -356 l 146 607 l 44 625 l 44 674 m 488 624 q 338 547 397 624 q 279 341 279 471 q 336 128 279 211 q 488 46 393 46 q 657 335 657 46 q 488 624 657 624 z "},"q":{"ha":835,"x_min":65,"x_max":821,"o":"m 481 -437 l 481 -386 l 588 -356 l 588 150 q 356 -15 525 -15 q 145 76 225 -15 q 65 333 65 168 q 149 591 65 497 q 358 685 232 685 q 517 638 449 685 q 597 506 585 592 l 717 683 l 717 -356 l 821 -386 l 821 -437 l 481 -437 m 382 622 q 204 335 204 622 q 376 49 204 49 q 529 126 471 49 q 588 336 588 204 q 533 545 588 468 q 382 622 478 622 z "},"r":{"ha":679,"x_min":83,"x_max":665,"o":"m 83 674 l 314 674 l 314 476 q 400 616 342 560 q 542 672 458 672 q 665 635 593 672 l 665 468 l 611 468 l 568 582 q 508 596 542 596 q 385 524 447 596 q 324 371 324 453 l 324 81 l 426 51 l 426 0 l 86 0 l 86 51 l 192 81 l 192 604 l 83 624 l 83 674 z "},"s":{"ha":653,"x_min":78,"x_max":594,"o":"m 594 199 q 525 49 594 106 q 312 -7 456 -7 q 88 69 168 -7 l 88 231 l 142 231 l 182 94 q 338 46 231 46 q 451 79 413 46 q 490 160 490 113 q 450 233 490 207 q 291 298 410 260 q 125 378 172 336 q 78 502 78 419 q 146 639 78 585 q 346 693 214 693 q 558 631 478 693 l 558 471 l 504 471 l 461 604 q 339 640 415 640 q 188 532 188 640 q 231 462 188 492 q 392 396 275 432 q 551 315 508 360 q 594 199 594 269 z "},"t":{"ha":493,"x_min":28,"x_max":479,"o":"m 276 674 l 479 674 l 479 615 l 276 615 l 276 185 q 296 72 276 103 q 358 40 315 40 q 475 61 401 40 l 475 10 q 317 -17 378 -17 q 147 188 147 -17 l 147 615 l 28 615 l 28 674 l 147 674 l 147 817 l 276 890 l 276 674 z "},"u":{"ha":882,"x_min":58,"x_max":858,"o":"m 58 674 l 289 674 l 289 258 q 317 103 289 149 q 411 57 346 57 q 564 149 508 57 q 619 429 619 240 l 619 604 l 518 622 l 518 674 l 749 674 l 749 83 l 858 51 l 858 0 l 628 0 l 628 188 q 527 37 592 89 q 386 -15 463 -15 q 158 235 158 -15 l 158 604 l 58 622 l 58 674 z "},"v":{"ha":872,"x_min":42,"x_max":831,"o":"m 539 674 l 831 674 l 831 622 l 728 599 l 478 0 l 396 0 l 150 599 l 42 622 l 42 674 l 394 674 l 394 622 l 299 599 l 476 139 l 639 599 l 539 622 l 539 674 z "},"w":{"ha":1311,"x_min":42,"x_max":1269,"o":"m 979 675 l 1269 675 l 1269 622 l 1160 603 l 938 0 l 853 0 l 660 529 l 471 0 l 381 0 l 160 601 l 42 622 l 42 674 l 394 674 l 394 622 l 299 603 l 460 143 l 647 676 l 738 676 l 933 138 l 1081 604 l 979 622 l 979 675 z "},"x":{"ha":847,"x_min":42,"x_max":806,"o":"m 42 674 l 394 674 l 394 622 l 310 606 l 446 408 l 606 607 l 507 622 l 507 674 l 790 674 l 790 622 l 690 604 l 482 367 l 699 75 l 806 53 l 806 0 l 453 0 l 453 53 l 542 75 l 399 282 l 238 72 l 335 53 l 335 0 l 43 0 l 43 53 l 150 75 l 358 324 l 151 604 l 42 622 l 42 674 z "},"y":{"ha":843,"x_min":14,"x_max":815,"o":"m 524 675 l 815 675 l 815 622 l 706 606 l 417 -106 q 318 -290 357 -247 q 190 -333 279 -333 l 129 -333 l 129 -131 l 181 -131 l 215 -256 q 278 -233 258 -253 q 307 -201 297 -212 q 330 -162 317 -190 q 349 -118 343 -133 q 371 -62 356 -103 q 394 -3 386 -22 l 129 597 l 14 622 l 14 674 l 367 674 l 367 622 l 272 603 l 463 153 l 631 604 l 524 622 l 524 675 z "},"z":{"ha":628,"x_min":28,"x_max":614,"o":"m 51 674 l 588 674 l 588 633 l 190 60 l 529 60 l 564 179 l 614 179 l 614 0 l 28 0 l 28 38 l 425 615 l 136 615 l 103 496 l 51 496 l 51 674 z "},"{":{"ha":518,"x_min":42,"x_max":504,"o":"m 333 -233 q 372 -354 333 -319 q 504 -392 411 -389 l 504 -444 l 406 -444 q 247 -393 290 -444 q 197 -186 203 -342 l 197 160 q 42 311 197 306 l 42 358 q 197 510 197 364 l 197 853 q 245 1059 200 1007 q 406 1111 290 1111 l 504 1111 l 504 1061 q 370 1022 407 1056 q 333 901 333 989 l 333 515 q 193 335 328 368 q 296 274 261 313 q 333 153 331 236 l 333 -233 z "},"|":{"ha":790,"x_min":347,"x_max":443,"o":"m 347 1042 l 443 1042 l 443 -261 l 347 -261 l 347 1042 z "},"}":{"ha":518,"x_min":14,"x_max":476,"o":"m 185 515 l 185 901 q 147 1022 185 986 q 14 1061 108 1057 l 14 1111 l 113 1111 q 203 1102 168 1111 q 265 1067 238 1093 q 318 853 318 1014 l 318 510 q 476 358 318 363 l 476 311 q 318 160 318 300 l 318 -186 q 271 -393 315 -342 q 113 -444 226 -444 l 14 -444 l 14 -392 q 144 -356 110 -389 q 185 -233 179 -324 l 185 153 q 325 335 185 297 q 220 393 256 351 q 185 515 185 435 z "},"~":{"ha":781,"x_min":121,"x_max":661,"o":"m 315 614 q 417 565 339 614 q 515 515 494 515 q 622 601 554 515 l 661 585 l 635 551 q 552 456 588 483 q 471 428 517 428 q 367 478 447 428 q 269 528 286 528 q 240 520 253 528 q 217 503 226 513 q 183 465 208 494 l 158 438 l 121 454 q 222 578 181 543 q 315 614 263 614 z "}," ":{"ha":0,"x_min":0,"x_max":0,"o":""},"¡":{"ha":476,"x_min":146,"x_max":328,"o":"m 328 965 q 328 945 328 965 q 302 901 328 925 q 236 876 276 876 q 171 902 196 876 q 146 966 146 928 q 172 1031 146 1004 q 238 1057 197 1057 q 303 1031 278 1057 q 328 965 328 1006 m 208 788 l 265 788 l 317 0 l 158 0 l 208 788 z "},"¢":{"ha":701,"x_min":65,"x_max":635,"o":"m 379 -179 l 379 -12 q 153 87 240 -4 q 65 332 65 178 q 153 579 65 486 q 379 686 240 672 l 379 843 l 438 843 l 438 688 q 632 628 581 679 l 632 456 l 581 456 l 535 607 q 438 635 507 626 l 438 39 q 535 58 499 42 l 583 217 l 635 217 l 635 53 q 438 -12 572 -6 l 438 -179 l 379 -179 m 208 332 q 379 42 208 71 l 379 633 q 253 544 297 621 q 208 332 208 468 z "},"£":{"ha":889,"x_min":46,"x_max":792,"o":"m 553 506 l 336 506 q 283 183 333 263 q 211 104 261 150 l 792 104 l 792 0 l 53 0 l 53 42 q 157 105 126 42 q 188 335 188 168 l 188 506 l 46 506 l 46 557 l 188 557 l 188 626 q 353 1019 188 936 q 514 1051 419 1051 q 754 939 669 1051 l 754 756 l 693 756 l 635 942 q 513 1003 588 1003 q 387 942 438 1003 q 336 786 336 882 l 336 557 l 553 557 l 553 506 z "},"¤":{"ha":1001,"x_min":83,"x_max":918,"o":"m 774 546 q 774 603 774 546 q 692 741 774 661 q 500 821 610 821 q 309 740 390 821 q 228 545 228 660 q 309 351 228 431 q 501 272 390 272 q 693 351 613 272 q 774 546 774 431 m 214 321 q 135 542 135 422 q 214 771 135 663 l 83 900 l 142 960 l 274 829 q 499 911 378 911 q 726 829 621 911 l 853 954 l 913 896 l 788 771 q 867 544 867 663 q 788 321 867 425 l 918 190 l 860 129 l 728 261 q 505 179 625 179 q 275 261 385 179 l 150 135 l 90 196 l 214 321 z "},"¥":{"ha":965,"x_min":42,"x_max":1068,"o":"m 200 446 l 200 507 l 442 507 l 175 956 l 42 990 l 42 1042 l 464 1042 l 464 990 l 342 961 l 606 508 l 849 957 l 728 992 l 728 1042 l 1068 1042 l 1068 992 l 944 954 l 672 507 l 931 507 l 931 446 l 636 446 l 636 369 l 931 369 l 931 308 l 636 308 l 636 83 l 779 51 l 779 0 l 357 0 l 357 51 l 490 82 l 490 308 l 200 308 l 200 369 l 490 369 l 490 426 l 478 446 l 200 446 z "},"¦":{"ha":781,"x_min":342,"x_max":438,"o":"m 342 239 l 438 239 l 438 -261 l 342 -261 l 342 239 m 342 1042 l 438 1042 l 438 525 l 342 525 l 342 1042 z "},"§":{"ha":813,"x_min":86,"x_max":703,"o":"m 703 303 q 533 71 703 203 q 674 -153 674 -40 l 674 -158 q 592 -324 671 -256 q 382 -392 514 -392 q 258 -367 321 -392 q 156 -307 194 -342 l 156 -90 l 221 -90 l 276 -301 q 387 -335 311 -335 q 509 -301 463 -335 q 556 -208 556 -267 q 483 -75 556 -143 q 353 31 435 -29 q 242 115 272 90 q 167 181 211 139 q 86 346 86 258 q 250 572 86 447 q 93 797 93 682 q 179 967 93 894 q 390 1040 265 1040 q 508 1016 450 1040 q 606 956 567 992 l 606 739 l 540 739 l 485 950 q 381 985 450 985 q 269 949 313 985 q 226 856 226 914 q 241 794 226 824 q 296 727 256 764 q 358 674 336 690 q 444 610 379 657 q 538 540 508 563 q 614 472 567 517 q 703 303 703 390 m 292 540 q 193 407 193 456 q 245 304 193 358 q 489 103 297 250 q 589 240 589 189 q 538 342 589 290 q 292 540 486 394 z "},"¨":{"ha":781,"x_min":143,"x_max":633,"o":"m 143 969 q 143 988 143 969 q 167 1028 143 1007 q 233 1050 192 1050 q 299 1028 274 1050 q 324 970 324 1007 q 300 911 324 933 q 234 889 276 889 q 167 910 192 889 q 143 969 143 932 m 453 969 q 453 988 453 969 q 477 1028 453 1007 q 542 1050 501 1050 q 608 1028 583 1050 q 633 970 633 1007 q 610 911 633 933 q 544 889 586 889 q 477 910 501 889 q 453 969 453 932 z "},"©":{"ha":1246,"x_min":79,"x_max":1153,"o":"m 828 414 l 828 272 q 624 211 760 211 q 402 293 489 211 q 315 522 315 375 q 404 755 315 669 q 631 840 493 840 q 742 825 688 840 q 825 785 797 810 l 825 635 l 781 635 l 739 768 q 625 797 693 797 q 489 727 538 797 q 440 521 440 657 q 635 254 440 254 q 738 274 701 254 l 783 414 l 828 414 m 1082 524 q 1082 623 1082 524 q 942 860 1082 722 q 614 999 803 999 q 288 857 425 999 q 151 521 151 715 q 288 185 151 326 q 616 44 425 44 q 944 185 807 44 q 1082 524 1082 326 m 79 522 q 79 632 79 522 q 234 900 79 742 q 614 1058 389 1058 q 996 900 839 1058 q 1153 521 1153 742 q 994 142 1153 300 q 617 -15 836 -15 q 238 144 397 -15 q 79 522 79 303 z "},"«":{"ha":699,"x_min":76,"x_max":621,"o":"m 293 86 l 76 350 l 293 614 l 354 614 l 222 350 l 356 86 l 293 86 m 558 86 l 342 350 l 558 614 l 621 614 l 488 350 l 621 86 l 558 86 z "},"¬":{"ha":781,"x_min":51,"x_max":728,"o":"m 635 0 l 635 329 l 51 329 l 51 422 l 728 422 l 728 0 l 635 0 z "},"­":{"ha":506,"x_min":76,"x_max":428,"o":"m 76 411 l 428 411 l 428 317 l 76 317 l 76 411 z "},"®":{"ha":1246,"x_min":79,"x_max":1151,"o":"m 336 254 l 336 294 l 421 317 l 421 744 l 336 768 l 336 811 l 704 811 q 809 765 768 811 q 850 660 850 719 q 809 557 850 601 q 704 513 768 513 l 651 513 l 814 321 l 928 296 l 928 254 l 747 254 q 589 460 650 383 l 547 513 l 528 513 l 528 321 l 618 294 l 618 254 l 336 254 m 528 550 l 638 550 q 714 584 683 550 q 744 662 744 618 q 714 738 744 706 q 638 771 683 771 l 528 771 l 528 550 m 1082 524 q 1082 623 1082 524 q 942 860 1082 722 q 613 999 803 999 q 287 857 424 999 q 150 521 150 715 q 287 185 150 326 q 615 44 424 44 q 944 185 807 44 q 1082 524 1082 326 m 79 522 q 79 632 79 522 q 234 900 79 742 q 613 1058 389 1058 q 994 900 838 1058 q 1151 521 1151 742 q 993 142 1151 300 q 616 -15 835 -15 q 238 144 397 -15 q 79 522 79 303 z "},"¯":{"ha":781,"x_min":189,"x_max":590,"o":"m 189 1042 l 590 1042 l 590 939 l 189 939 l 189 1042 z "},"°":{"ha":625,"x_min":78,"x_max":547,"o":"m 456 833 q 456 864 456 833 q 414 940 456 896 q 313 983 372 983 q 209 939 253 983 q 165 833 165 894 q 209 728 165 772 q 315 685 253 685 q 416 727 376 685 q 456 833 456 769 m 149 1003 q 185 1038 149 1003 q 317 1072 221 1072 q 480 1003 413 1072 q 547 832 547 933 q 478 662 547 731 q 311 593 408 593 q 146 663 214 593 q 78 833 78 732 q 149 1003 78 933 z "},"±":{"ha":858,"x_min":15,"x_max":842,"o":"m 472 1035 l 472 661 l 842 661 l 842 575 l 472 575 l 472 201 l 386 201 l 386 575 l 15 575 l 15 661 l 386 661 l 386 1035 l 472 1035 m 17 86 l 836 86 l 836 0 l 17 0 l 17 86 z "},"´":{"ha":539,"x_min":47,"x_max":417,"o":"m 92 839 l 47 839 l 231 1042 l 417 1042 l 92 839 z "},"¶":{"ha":858,"x_min":49,"x_max":776,"o":"m 386 -436 l 386 481 l 353 481 q 131 558 213 481 q 49 763 49 636 q 135 965 49 889 q 376 1042 221 1042 l 776 1042 l 776 981 l 686 981 l 686 -436 l 622 -436 l 622 981 l 451 981 l 451 -436 l 386 -436 z "},"·":{"ha":346,"x_min":79,"x_max":263,"o":"m 79 388 q 79 406 79 388 q 104 452 79 425 q 170 479 129 479 q 237 453 211 479 q 263 388 263 428 q 237 323 263 349 q 172 297 211 297 q 106 324 132 297 q 79 388 79 350 z "},"¸":{"ha":322,"x_min":47,"x_max":285,"o":"m 171 0 l 171 -60 q 252 -89 219 -62 q 285 -164 285 -115 q 61 -328 285 -279 l 47 -294 q 81 -278 53 -292 q 122 -257 108 -265 q 156 -233 135 -249 q 193 -164 193 -207 q 113 -100 193 -114 l 113 0 l 171 0 z "},"º":{"ha":515,"x_min":39,"x_max":476,"o":"m 256 797 q 138 619 138 797 q 256 440 138 440 q 378 618 378 440 q 351 752 378 707 q 256 797 324 797 m 39 618 q 39 668 39 618 q 98 776 39 718 q 258 835 157 835 q 417 776 358 835 q 476 618 476 718 q 417 461 476 518 q 257 404 357 404 q 98 461 157 404 q 39 618 39 518 z "},"»":{"ha":699,"x_min":76,"x_max":621,"o":"m 404 614 l 621 350 l 404 86 l 343 86 l 476 350 l 343 614 l 404 614 m 139 614 l 356 350 l 139 86 l 78 86 l 211 350 l 76 614 l 139 614 z "},"¿":{"ha":771,"x_min":46,"x_max":651,"o":"m 651 290 l 651 107 q 534 17 611 49 q 367 -14 457 -14 q 141 48 236 -14 q 46 222 46 110 q 85 353 46 289 q 200 465 124 417 l 243 493 q 352 605 325 546 q 379 764 379 664 l 379 792 l 442 792 l 442 738 q 417 592 442 647 q 315 456 392 538 l 268 406 q 196 217 196 326 q 249 85 196 133 q 383 36 303 36 q 513 104 464 36 l 581 290 l 651 290 m 499 969 q 499 950 499 969 q 474 905 499 931 q 408 879 449 879 q 342 903 368 879 q 317 968 317 928 q 342 1034 317 1008 q 407 1060 367 1060 q 473 1033 447 1060 q 499 969 499 1007 z "},"À":{"ha":1271,"x_min":69,"x_max":1201,"o":"m 69 0 l 69 51 l 193 82 l 614 1053 l 685 1053 l 1085 82 l 1201 51 l 1201 0 l 807 0 l 807 51 l 928 81 l 818 350 l 399 350 l 294 81 l 419 51 l 419 0 l 69 0 m 418 403 l 799 403 l 604 890 l 418 403 m 779 1114 l 736 1114 l 410 1315 l 596 1315 l 779 1114 z "},"Á":{"ha":1271,"x_min":69,"x_max":1201,"o":"m 69 0 l 69 51 l 193 82 l 614 1053 l 685 1053 l 1085 82 l 1201 51 l 1201 0 l 807 0 l 807 51 l 928 81 l 818 350 l 399 350 l 294 81 l 419 51 l 419 0 l 69 0 m 418 403 l 799 403 l 604 890 l 418 403 m 489 1113 l 444 1113 l 628 1315 l 814 1315 l 489 1113 z "},"Â":{"ha":1271,"x_min":69,"x_max":1201,"o":"m 69 0 l 69 51 l 193 82 l 614 1053 l 685 1053 l 1085 82 l 1201 51 l 1201 0 l 807 0 l 807 51 l 928 81 l 818 350 l 399 350 l 294 81 l 419 51 l 419 0 l 69 0 m 418 403 l 799 403 l 604 890 l 418 403 m 643 1340 l 858 1113 l 803 1113 l 619 1217 l 447 1113 l 393 1113 l 596 1340 l 643 1340 z "},"Ã":{"ha":1271,"x_min":69,"x_max":1201,"o":"m 69 0 l 69 51 l 193 82 l 614 1053 l 685 1053 l 1085 82 l 1201 51 l 1201 0 l 807 0 l 807 51 l 928 81 l 818 350 l 399 350 l 294 81 l 419 51 l 419 0 l 69 0 m 418 403 l 799 403 l 604 890 l 418 403 m 394 1175 q 477 1270 443 1244 q 559 1296 511 1296 q 670 1251 607 1296 q 764 1207 733 1207 q 868 1285 815 1207 l 903 1260 q 735 1113 814 1113 q 630 1157 700 1113 q 513 1201 560 1201 q 404 1121 467 1201 l 374 1146 l 394 1175 z "},"Ä":{"ha":1229,"x_min":69,"x_max":1201,"o":"m 69 0 l 69 51 l 193 82 l 614 1053 l 685 1053 l 1085 82 l 1201 51 l 1201 0 l 807 0 l 807 51 l 928 81 l 818 350 l 399 350 l 294 81 l 419 51 l 419 0 l 69 0 m 418 403 l 799 403 l 604 890 l 418 403 m 381 1232 q 381 1251 381 1232 q 405 1291 381 1269 q 470 1313 429 1313 q 536 1291 511 1313 q 561 1233 561 1269 q 538 1174 561 1196 q 472 1151 514 1151 q 405 1173 429 1151 q 381 1232 381 1194 m 690 1232 q 690 1251 690 1232 q 715 1291 690 1269 q 780 1313 739 1313 q 846 1291 821 1313 q 871 1233 871 1269 q 847 1174 871 1196 q 781 1151 824 1151 q 715 1173 739 1151 q 690 1232 690 1194 z "},"Å":{"ha":1271,"x_min":69,"x_max":1201,"o":"m 69 0 l 69 51 l 193 82 l 614 1053 l 685 1053 l 1085 82 l 1201 51 l 1201 0 l 807 0 l 807 51 l 928 81 l 818 350 l 399 350 l 294 81 l 419 51 l 419 0 l 69 0 m 418 403 l 799 403 l 604 890 l 418 403 m 744 1314 q 744 1338 744 1314 q 719 1398 744 1363 q 649 1433 693 1433 q 581 1398 606 1433 q 556 1314 556 1363 q 580 1231 556 1265 q 649 1196 604 1196 q 719 1231 693 1196 q 744 1314 744 1265 m 485 1314 q 485 1347 485 1314 q 528 1427 485 1379 q 650 1475 572 1475 q 769 1428 728 1475 q 811 1316 811 1381 q 767 1203 811 1251 q 647 1154 724 1154 q 528 1201 571 1154 q 485 1314 485 1249 z "},"Æ":{"ha":1429,"x_min":69,"x_max":1360,"o":"m 69 0 l 69 51 l 193 82 l 614 1042 l 1268 1042 l 1268 793 l 1196 793 l 1142 982 l 708 982 l 878 567 l 1107 567 l 1144 688 l 1196 688 l 1196 400 l 1144 400 l 1107 506 l 910 506 l 1090 60 l 1232 60 l 1286 247 l 1360 247 l 1360 0 l 807 0 l 807 51 l 928 81 l 818 350 l 399 350 l 294 81 l 419 51 l 419 0 l 69 0 m 418 403 l 799 403 l 604 890 l 418 403 z "},"Ç":{"ha":1053,"x_min":83,"x_max":942,"o":"m 601 -29 l 586 -28 l 586 -60 q 667 -89 635 -62 q 700 -164 700 -115 q 476 -328 700 -279 l 463 -294 q 496 -278 468 -292 q 537 -257 524 -265 q 569 -233 550 -249 q 608 -164 608 -207 q 528 -100 608 -114 l 528 -24 q 208 144 332 -1 q 83 526 83 289 q 232 909 83 763 q 601 1056 381 1056 q 942 940 821 1056 l 942 715 l 869 715 l 801 936 q 600 1004 725 1004 q 343 878 442 1004 q 244 522 244 753 q 340 158 244 290 q 594 26 435 26 q 807 104 724 26 l 876 335 l 942 335 l 942 100 q 601 -29 818 -29 z "},"È":{"ha":972,"x_min":125,"x_max":917,"o":"m 125 1042 l 890 1042 l 890 793 l 818 793 l 764 982 l 408 982 l 408 567 l 676 567 l 714 688 l 765 688 l 765 400 l 714 400 l 676 506 l 408 506 l 408 60 l 789 60 l 843 247 l 917 247 l 917 0 l 125 0 l 125 51 l 263 83 l 263 957 l 125 990 l 125 1042 m 765 1114 l 722 1114 l 396 1315 l 582 1315 l 765 1114 z "},"É":{"ha":972,"x_min":125,"x_max":917,"o":"m 125 1042 l 890 1042 l 890 793 l 818 793 l 764 982 l 408 982 l 408 567 l 676 567 l 714 688 l 765 688 l 765 400 l 714 400 l 676 506 l 408 506 l 408 60 l 789 60 l 843 247 l 917 247 l 917 0 l 125 0 l 125 51 l 263 83 l 263 957 l 125 990 l 125 1042 m 393 1113 l 349 1113 l 532 1315 l 718 1315 l 393 1113 z "},"Ê":{"ha":972,"x_min":125,"x_max":917,"o":"m 125 1042 l 890 1042 l 890 793 l 818 793 l 764 982 l 408 982 l 408 567 l 676 567 l 714 688 l 765 688 l 765 400 l 714 400 l 676 506 l 408 506 l 408 60 l 789 60 l 843 247 l 917 247 l 917 0 l 125 0 l 125 51 l 263 83 l 263 957 l 125 990 l 125 1042 m 614 1340 l 829 1113 l 774 1113 l 590 1217 l 418 1113 l 364 1113 l 567 1340 l 614 1340 z "},"Ë":{"ha":972,"x_min":125,"x_max":917,"o":"m 125 1042 l 890 1042 l 890 793 l 818 793 l 764 982 l 408 982 l 408 567 l 676 567 l 714 688 l 765 688 l 765 400 l 714 400 l 676 506 l 408 506 l 408 60 l 789 60 l 843 247 l 917 247 l 917 0 l 125 0 l 125 51 l 263 83 l 263 957 l 125 990 l 125 1042 m 331 1242 q 331 1260 331 1242 q 355 1301 331 1279 q 420 1322 379 1322 q 486 1301 461 1322 q 511 1242 511 1279 q 488 1183 511 1206 q 422 1161 464 1161 q 355 1183 379 1161 q 331 1242 331 1204 m 640 1242 q 640 1260 640 1242 q 665 1301 640 1279 q 730 1322 689 1322 q 796 1301 771 1322 q 821 1242 821 1279 q 797 1183 821 1206 q 731 1161 774 1161 q 665 1183 689 1161 q 640 1242 640 1204 z "},"Ì":{"ha":514,"x_min":43,"x_max":465,"o":"m 43 1042 l 465 1042 l 465 990 l 326 958 l 326 82 l 465 51 l 465 0 l 43 0 l 43 51 l 181 83 l 181 957 l 43 990 l 43 1042 m 439 1114 l 396 1114 l 69 1315 l 256 1315 l 439 1114 z "},"Í":{"ha":631,"x_min":83,"x_max":506,"o":"m 83 1042 l 506 1042 l 506 990 l 367 958 l 367 82 l 506 51 l 506 0 l 83 0 l 83 51 l 221 83 l 221 957 l 83 990 l 83 1042 m 143 1113 l 99 1113 l 282 1315 l 468 1315 l 143 1113 z "},"Î":{"ha":532,"x_min":33,"x_max":499,"o":"m 54 1042 l 476 1042 l 476 990 l 338 958 l 338 82 l 476 51 l 476 0 l 54 0 l 54 51 l 192 83 l 192 957 l 54 990 l 54 1042 m 283 1340 l 499 1113 l 443 1113 l 260 1217 l 88 1113 l 33 1113 l 236 1340 l 283 1340 z "},"Ï":{"ha":556,"x_min":46,"x_max":536,"o":"m 83 1042 l 506 1042 l 506 990 l 367 958 l 367 82 l 506 51 l 506 0 l 83 0 l 83 51 l 221 83 l 221 957 l 83 990 l 83 1042 m 46 1224 q 46 1242 46 1224 q 70 1283 46 1261 q 135 1304 94 1304 q 201 1283 176 1304 q 226 1224 226 1261 q 203 1165 226 1188 q 137 1143 179 1143 q 70 1165 94 1143 q 46 1224 46 1186 m 356 1224 q 356 1242 356 1224 q 380 1283 356 1261 q 445 1304 404 1304 q 511 1283 486 1304 q 536 1224 536 1261 q 513 1165 536 1188 q 447 1143 489 1143 q 380 1165 404 1143 q 356 1224 356 1186 z "},"Ð":{"ha":1118,"x_min":28,"x_max":1010,"o":"m 28 564 l 167 564 l 167 957 l 29 990 l 29 1042 l 399 1042 q 647 1016 540 1042 q 838 931 754 990 q 966 768 922 872 q 1010 515 1010 664 q 965 264 1010 367 q 833 105 921 161 q 635 24 746 49 q 374 0 525 0 l 29 0 l 29 51 l 167 83 l 167 500 l 28 500 l 28 564 m 313 58 l 381 58 q 735 161 621 58 q 849 515 849 264 q 742 874 849 765 q 404 983 635 983 l 313 983 l 313 564 l 590 564 l 590 500 l 313 500 l 313 58 z "},"Ñ":{"ha":1096,"x_min":147,"x_max":1229,"o":"m 888 1042 l 1229 1042 l 1229 990 l 1093 956 l 1093 0 l 996 0 l 346 953 l 346 82 l 482 51 l 482 0 l 147 0 l 147 51 l 276 82 l 276 954 l 147 990 l 147 1042 l 457 1042 l 1024 219 l 1024 954 l 888 990 l 888 1042 m 361 1289 q 444 1384 410 1358 q 526 1410 478 1410 q 637 1365 574 1410 q 731 1321 700 1321 q 835 1399 782 1321 l 869 1374 q 701 1226 781 1226 q 596 1271 667 1226 q 479 1315 525 1315 q 371 1235 433 1315 l 340 1260 l 361 1289 z "},"Ò":{"ha":1156,"x_min":83,"x_max":1072,"o":"m 914 522 q 914 643 914 522 q 827 888 914 764 q 577 1011 740 1011 q 329 885 414 1011 q 244 521 244 758 q 327 156 244 283 q 572 29 410 29 q 824 154 735 29 q 914 522 914 279 m 83 520 q 83 645 83 520 q 222 919 83 771 q 580 1067 361 1067 q 935 915 799 1067 q 1072 518 1072 764 q 936 123 1072 272 q 576 -26 800 -26 q 218 122 353 -26 q 83 520 83 269 m 749 1114 l 706 1114 l 379 1315 l 565 1315 l 749 1114 z "},"Ó":{"ha":1156,"x_min":83,"x_max":1072,"o":"m 914 522 q 914 643 914 522 q 827 888 914 764 q 577 1011 740 1011 q 329 885 414 1011 q 244 521 244 758 q 327 156 244 283 q 572 29 410 29 q 824 154 735 29 q 914 522 914 279 m 83 520 q 83 645 83 520 q 222 919 83 771 q 580 1067 361 1067 q 935 915 799 1067 q 1072 518 1072 764 q 936 123 1072 272 q 576 -26 800 -26 q 218 122 353 -26 q 83 520 83 269 m 440 1113 l 396 1113 l 579 1315 l 765 1315 l 440 1113 z "},"Ô":{"ha":1156,"x_min":83,"x_max":1072,"o":"m 914 522 q 914 643 914 522 q 827 888 914 764 q 577 1011 740 1011 q 329 885 414 1011 q 244 521 244 758 q 327 156 244 283 q 572 29 410 29 q 824 154 735 29 q 914 522 914 279 m 83 520 q 83 645 83 520 q 222 919 83 771 q 580 1067 361 1067 q 935 915 799 1067 q 1072 518 1072 764 q 936 123 1072 272 q 576 -26 800 -26 q 218 122 353 -26 q 83 520 83 269 m 592 1340 l 807 1113 l 751 1113 l 568 1217 l 396 1113 l 342 1113 l 544 1340 l 592 1340 z "},"Õ":{"ha":1156,"x_min":83,"x_max":1072,"o":"m 914 522 q 914 643 914 522 q 827 888 914 764 q 577 1011 740 1011 q 329 885 414 1011 q 244 521 244 758 q 327 156 244 283 q 572 29 410 29 q 824 154 735 29 q 914 522 914 279 m 83 520 q 83 645 83 520 q 222 919 83 771 q 580 1067 361 1067 q 935 915 799 1067 q 1072 518 1072 764 q 936 123 1072 272 q 576 -26 800 -26 q 218 122 353 -26 q 83 520 83 269 m 318 1175 q 401 1270 367 1244 q 483 1296 435 1296 q 594 1251 531 1296 q 688 1207 657 1207 q 792 1285 739 1207 l 826 1260 q 658 1113 738 1113 q 553 1157 622 1113 q 437 1201 483 1201 q 328 1121 390 1201 l 297 1146 l 318 1175 z "},"Ö":{"ha":1156,"x_min":83,"x_max":1072,"o":"m 914 522 q 914 643 914 522 q 827 888 914 764 q 577 1011 740 1011 q 329 885 414 1011 q 244 521 244 758 q 327 156 244 283 q 572 29 410 29 q 824 154 735 29 q 914 522 914 279 m 83 520 q 83 645 83 520 q 222 919 83 771 q 580 1067 361 1067 q 935 915 799 1067 q 1072 518 1072 764 q 936 123 1072 272 q 576 -26 800 -26 q 218 122 353 -26 q 83 520 83 269 m 313 1210 q 313 1228 313 1210 q 337 1269 313 1247 q 402 1290 361 1290 q 468 1269 443 1290 q 493 1210 493 1247 q 469 1151 493 1174 q 403 1129 446 1129 q 337 1151 361 1129 q 313 1210 313 1172 m 622 1210 q 622 1228 622 1210 q 647 1269 622 1247 q 712 1290 671 1290 q 778 1269 753 1290 q 803 1210 803 1247 q 779 1151 803 1174 q 713 1129 756 1129 q 647 1151 671 1129 q 622 1210 622 1172 z "},"×":{"ha":849,"x_min":113,"x_max":736,"o":"m 178 835 l 424 588 l 665 829 l 731 763 l 490 522 l 736 276 l 671 211 l 425 456 l 185 215 l 117 281 l 358 522 l 113 768 l 178 835 z "},"Ø":{"ha":1151,"x_min":81,"x_max":1069,"o":"m 1069 518 q 933 123 1069 272 q 574 -26 797 -26 q 419 -4 490 -26 l 343 -196 l 268 -196 l 354 19 q 152 210 224 82 q 81 518 81 339 q 219 919 81 771 q 575 1067 358 1067 q 758 1033 675 1067 l 824 1196 l 897 1196 l 821 1004 q 1004 813 939 938 q 1069 518 1069 688 m 576 1011 q 326 885 411 1011 q 242 518 242 758 q 382 92 242 207 l 733 971 q 576 1011 664 1011 m 911 524 q 790 928 911 804 l 443 54 q 571 29 500 29 q 822 154 732 29 q 911 524 911 279 z "},"Ù":{"ha":1236,"x_min":83,"x_max":1153,"o":"m 807 1042 l 1153 1042 l 1153 992 l 1022 957 l 1022 400 q 619 -21 1022 -21 q 318 90 414 -21 q 222 418 222 200 l 222 957 l 83 990 l 83 1042 l 506 1042 l 506 990 l 368 958 l 368 392 q 439 127 368 211 q 650 43 510 43 q 946 407 946 43 l 946 957 l 807 992 l 807 1042 m 831 1114 l 788 1114 l 461 1315 l 647 1315 l 831 1114 z "},"Ú":{"ha":1236,"x_min":83,"x_max":1153,"o":"m 807 1042 l 1153 1042 l 1153 992 l 1022 957 l 1022 400 q 619 -21 1022 -21 q 318 90 414 -21 q 222 418 222 200 l 222 957 l 83 990 l 83 1042 l 506 1042 l 506 990 l 368 958 l 368 392 q 439 127 368 211 q 650 43 510 43 q 946 407 946 43 l 946 957 l 807 992 l 807 1042 m 483 1113 l 439 1113 l 622 1315 l 808 1315 l 483 1113 z "},"Û":{"ha":1236,"x_min":83,"x_max":1153,"o":"m 807 1042 l 1153 1042 l 1153 992 l 1022 957 l 1022 400 q 619 -21 1022 -21 q 318 90 414 -21 q 222 418 222 200 l 222 957 l 83 990 l 83 1042 l 506 1042 l 506 990 l 368 958 l 368 392 q 439 127 368 211 q 650 43 510 43 q 946 407 946 43 l 946 957 l 807 992 l 807 1042 m 679 1340 l 894 1113 l 839 1113 l 656 1217 l 483 1113 l 429 1113 l 632 1340 l 679 1340 z "},"Ü":{"ha":1236,"x_min":83,"x_max":1153,"o":"m 807 1042 l 1153 1042 l 1153 992 l 1022 957 l 1022 400 q 619 -21 1022 -21 q 318 90 414 -21 q 222 418 222 200 l 222 957 l 83 990 l 83 1042 l 506 1042 l 506 990 l 368 958 l 368 392 q 439 127 368 211 q 650 43 510 43 q 946 407 946 43 l 946 957 l 807 992 l 807 1042 m 392 1218 q 392 1237 392 1218 q 416 1277 392 1256 q 481 1299 440 1299 q 547 1277 522 1299 q 572 1219 572 1256 q 549 1160 572 1182 q 483 1138 525 1138 q 416 1159 440 1138 q 392 1218 392 1181 m 701 1218 q 701 1237 701 1218 q 726 1277 701 1256 q 791 1299 750 1299 q 857 1277 832 1299 q 882 1219 882 1256 q 858 1160 882 1182 q 792 1138 835 1138 q 726 1159 750 1138 q 701 1218 701 1181 z "},"Ý":{"ha":1110,"x_min":42,"x_max":1068,"o":"m 42 1042 l 464 1042 l 464 990 l 342 961 l 606 508 l 849 957 l 728 992 l 728 1042 l 1068 1042 l 1068 992 l 944 954 l 636 446 l 636 83 l 779 51 l 779 0 l 357 0 l 357 51 l 490 82 l 490 426 l 175 956 l 42 990 l 42 1042 m 453 1113 l 408 1113 l 592 1315 l 778 1315 l 453 1113 z "},"Þ":{"ha":874,"x_min":150,"x_max":978,"o":"m 433 900 l 563 900 q 978 569 978 900 q 865 316 978 410 q 557 222 753 222 l 433 222 l 433 85 l 576 50 l 576 0 l 150 0 l 150 50 l 286 85 l 286 956 l 150 992 l 150 1042 l 556 1042 l 556 1006 l 433 956 l 433 900 m 433 283 l 514 283 q 735 355 656 283 q 815 560 815 426 q 749 766 815 693 q 556 839 682 839 l 433 839 l 433 283 z "},"ß":{"ha":903,"x_min":74,"x_max":883,"o":"m 310 0 l 74 0 l 74 51 l 181 82 l 181 726 q 264 976 181 894 q 481 1058 347 1058 q 690 1001 614 1058 q 765 863 765 943 q 657 693 765 765 l 615 665 q 539 560 539 610 q 628 463 539 511 l 742 401 q 883 206 883 336 q 808 49 883 111 q 626 -12 732 -12 q 417 61 490 -12 l 417 247 l 474 247 l 531 71 q 631 36 574 36 q 731 67 689 36 q 774 142 774 97 q 742 233 774 188 q 653 310 710 278 l 556 361 q 460 435 496 392 q 425 522 425 478 q 529 663 425 599 l 567 686 q 660 843 660 742 q 614 960 660 911 q 479 1008 568 1008 q 350 950 390 1008 q 310 768 310 892 l 310 0 z "},"à":{"ha":808,"x_min":56,"x_max":753,"o":"m 753 0 l 508 0 l 508 140 q 279 -12 443 -12 q 113 35 169 -12 q 56 169 56 83 q 163 345 56 292 q 506 403 271 399 l 506 463 q 465 597 506 561 q 346 632 425 632 q 208 596 267 632 l 163 458 l 111 458 l 111 615 q 207 665 146 644 q 340 685 268 685 q 562 628 488 685 q 636 429 636 572 l 636 83 l 753 51 l 753 0 m 315 46 q 455 115 404 46 q 506 354 506 183 q 214 281 267 354 q 189 178 189 246 q 219 78 189 110 q 315 46 249 46 m 540 840 l 497 840 l 171 1042 l 357 1042 l 540 840 z "},"á":{"ha":808,"x_min":56,"x_max":753,"o":"m 753 0 l 508 0 l 508 140 q 279 -12 443 -12 q 113 35 169 -12 q 56 169 56 83 q 163 345 56 292 q 506 403 271 399 l 506 463 q 465 597 506 561 q 346 632 425 632 q 208 596 267 632 l 163 458 l 111 458 l 111 615 q 207 665 146 644 q 340 685 268 685 q 562 628 488 685 q 636 429 636 572 l 636 83 l 753 51 l 753 0 m 315 46 q 455 115 404 46 q 506 354 506 183 q 214 281 267 354 q 189 178 189 246 q 219 78 189 110 q 315 46 249 46 m 207 839 l 163 839 l 346 1042 l 532 1042 l 207 839 z "},"â":{"ha":808,"x_min":56,"x_max":753,"o":"m 753 0 l 508 0 l 508 140 q 279 -12 443 -12 q 113 35 169 -12 q 56 169 56 83 q 163 345 56 292 q 506 403 271 399 l 506 463 q 465 597 506 561 q 346 632 425 632 q 208 596 267 632 l 163 458 l 111 458 l 111 615 q 207 665 146 644 q 340 685 268 685 q 562 628 488 685 q 636 429 636 572 l 636 83 l 753 51 l 753 0 m 315 46 q 455 115 404 46 q 506 354 506 183 q 214 281 267 354 q 189 178 189 246 q 219 78 189 110 q 315 46 249 46 m 365 1042 l 581 814 l 525 814 l 342 918 l 169 814 l 115 814 l 318 1042 l 365 1042 z "},"ã":{"ha":808,"x_min":56,"x_max":753,"o":"m 753 0 l 508 0 l 508 140 q 279 -12 443 -12 q 113 35 169 -12 q 56 169 56 83 q 163 345 56 292 q 506 403 271 399 l 506 463 q 465 597 506 561 q 346 632 425 632 q 208 596 267 632 l 163 458 l 111 458 l 111 615 q 207 665 146 644 q 340 685 268 685 q 562 628 488 685 q 636 429 636 572 l 636 83 l 753 51 l 753 0 m 315 46 q 455 115 404 46 q 506 354 506 183 q 214 281 267 354 q 189 178 189 246 q 219 78 189 110 q 315 46 249 46 m 115 921 q 198 1016 164 990 q 280 1042 232 1042 q 391 997 328 1042 q 485 953 454 953 q 589 1031 536 953 l 624 1006 q 456 858 535 858 q 350 903 419 858 q 234 947 281 947 q 125 867 188 947 l 94 892 l 115 921 z "},"ä":{"ha":808,"x_min":56,"x_max":753,"o":"m 753 0 l 508 0 l 508 140 q 279 -12 443 -12 q 113 35 169 -12 q 56 169 56 83 q 163 345 56 292 q 506 403 271 399 l 506 463 q 465 597 506 561 q 346 632 425 632 q 208 596 267 632 l 163 458 l 111 458 l 111 615 q 207 665 146 644 q 340 685 268 685 q 562 628 488 685 q 636 429 636 572 l 636 83 l 753 51 l 753 0 m 315 46 q 455 115 404 46 q 506 354 506 183 q 214 281 267 354 q 189 178 189 246 q 219 78 189 110 q 315 46 249 46 m 97 969 q 97 988 97 969 q 122 1028 97 1007 q 187 1050 146 1050 q 253 1028 228 1050 q 278 970 278 1007 q 254 911 278 933 q 188 889 231 889 q 122 910 146 889 q 97 969 97 932 m 407 969 q 407 988 407 969 q 431 1028 407 1007 q 497 1050 456 1050 q 563 1028 538 1050 q 588 970 588 1007 q 564 911 588 933 q 498 889 540 889 q 431 910 456 889 q 407 969 407 932 z "},"å":{"ha":739,"x_min":24,"x_max":721,"o":"m 721 0 l 476 0 l 476 140 q 247 -12 411 -12 q 81 35 138 -12 q 24 169 24 83 q 131 345 24 292 q 474 403 239 399 l 474 463 q 433 597 474 561 q 314 632 393 632 q 176 596 235 632 l 131 458 l 79 458 l 79 615 q 175 665 114 644 q 308 685 236 685 q 530 628 456 685 q 604 429 604 572 l 604 83 l 721 51 l 721 0 m 283 46 q 423 115 372 46 q 474 354 474 183 q 182 281 235 354 q 157 178 157 246 q 187 78 157 110 q 283 46 217 46 m 406 943 q 406 967 406 943 q 380 1027 406 992 q 310 1063 354 1063 q 242 1027 267 1063 q 217 943 217 992 q 241 860 217 894 q 310 825 265 825 q 380 860 354 825 q 406 943 406 894 m 146 943 q 146 976 146 943 q 190 1056 146 1008 q 311 1104 233 1104 q 431 1057 389 1104 q 472 945 472 1010 q 428 832 472 881 q 308 783 385 783 q 189 831 232 783 q 146 943 146 878 z "},"æ":{"ha":1214,"x_min":60,"x_max":1132,"o":"m 843 40 q 926 52 886 40 q 983 75 965 64 q 1001 89 1001 86 l 1053 236 l 1104 236 l 1104 78 q 838 -12 1025 -12 q 574 113 650 -12 q 303 -12 517 -12 q 124 35 189 -12 q 60 165 60 82 q 165 330 60 286 q 515 379 271 374 l 515 463 q 475 597 515 561 q 358 632 435 632 q 218 592 282 632 l 172 454 l 121 454 l 121 611 q 217 663 156 642 q 350 685 279 685 q 589 572 508 685 q 699 655 633 622 q 836 688 764 688 q 965 660 908 688 q 1051 592 1021 632 q 1101 499 1082 551 q 1132 329 1132 415 l 646 331 q 692 110 647 181 q 843 40 738 40 m 339 46 q 472 103 429 46 q 515 331 515 161 q 258 299 322 331 q 193 179 193 268 q 339 46 193 46 m 1006 374 q 955 560 1006 488 q 838 633 904 633 q 731 596 771 633 q 646 374 654 525 l 1006 374 z "},"ç":{"ha":715,"x_min":65,"x_max":635,"o":"m 635 217 l 635 53 q 426 -14 574 -6 l 426 -60 q 508 -89 475 -62 q 540 -164 540 -115 q 317 -328 540 -279 l 303 -294 q 336 -278 308 -292 q 377 -257 364 -265 q 411 -233 390 -249 q 449 -164 449 -207 q 368 -100 449 -114 l 368 -11 q 150 92 235 1 q 65 340 65 182 q 165 592 65 497 q 418 688 264 688 q 542 672 482 688 q 632 628 601 656 l 632 456 l 581 456 l 535 607 q 406 636 496 636 q 262 558 315 636 q 208 332 208 481 q 422 39 208 39 q 535 58 493 39 l 583 217 l 635 217 z "},"è":{"ha":765,"x_min":71,"x_max":681,"o":"m 671 235 l 671 76 q 416 -14 592 -14 q 156 78 240 -14 q 71 335 71 171 q 160 592 71 499 q 401 686 250 686 q 552 653 492 686 q 639 564 613 619 q 681 371 681 472 l 210 371 q 246 132 210 214 q 410 39 288 39 q 492 51 453 39 q 550 74 532 63 q 568 88 568 85 l 619 235 l 671 235 m 399 632 q 238 524 281 632 q 213 417 217 475 l 560 417 q 399 632 560 632 m 567 840 l 524 840 l 197 1042 l 383 1042 l 567 840 z "},"é":{"ha":765,"x_min":71,"x_max":681,"o":"m 671 235 l 671 76 q 416 -14 592 -14 q 156 78 240 -14 q 71 335 71 171 q 160 592 71 499 q 401 686 250 686 q 552 653 492 686 q 639 564 613 619 q 681 371 681 472 l 210 371 q 246 132 210 214 q 410 39 288 39 q 492 51 453 39 q 550 74 532 63 q 568 88 568 85 l 619 235 l 671 235 m 399 632 q 238 524 281 632 q 213 417 217 475 l 560 417 q 399 632 560 632 m 250 839 l 206 839 l 389 1042 l 575 1042 l 250 839 z "},"ê":{"ha":765,"x_min":71,"x_max":681,"o":"m 671 235 l 671 76 q 416 -14 592 -14 q 156 78 240 -14 q 71 335 71 171 q 160 592 71 499 q 401 686 250 686 q 552 653 492 686 q 639 564 613 619 q 681 371 681 472 l 210 371 q 246 132 210 214 q 410 39 288 39 q 492 51 453 39 q 550 74 532 63 q 568 88 568 85 l 619 235 l 671 235 m 399 632 q 238 524 281 632 q 213 417 217 475 l 560 417 q 399 632 560 632 m 410 1042 l 625 814 l 569 814 l 386 918 l 214 814 l 160 814 l 363 1042 l 410 1042 z "},"ë":{"ha":765,"x_min":71,"x_max":681,"o":"m 671 235 l 671 76 q 416 -14 592 -14 q 156 78 240 -14 q 71 335 71 171 q 160 592 71 499 q 401 686 250 686 q 552 653 492 686 q 639 564 613 619 q 681 371 681 472 l 210 371 q 246 132 210 214 q 410 39 288 39 q 492 51 453 39 q 550 74 532 63 q 568 88 568 85 l 619 235 l 671 235 m 399 632 q 238 524 281 632 q 213 417 217 475 l 560 417 q 399 632 560 632 m 163 969 q 163 988 163 969 q 187 1028 163 1007 q 252 1050 211 1050 q 318 1028 293 1050 q 343 970 343 1007 q 319 911 343 933 q 253 889 296 889 q 187 910 211 889 q 163 969 163 932 m 472 969 q 472 988 472 969 q 497 1028 472 1007 q 562 1050 521 1050 q 628 1028 603 1050 q 653 970 653 1007 q 629 911 653 933 q 563 889 606 889 q 497 910 521 889 q 472 969 472 932 z "},"ì":{"ha":447,"x_min":39,"x_max":408,"o":"m 69 674 l 294 674 l 294 79 l 392 51 l 392 0 l 63 0 l 63 51 l 164 82 l 164 607 l 69 624 l 69 674 m 408 840 l 365 840 l 39 1042 l 225 1042 l 408 840 z "},"í":{"ha":447,"x_min":39,"x_max":408,"o":"m 69 674 l 294 674 l 294 79 l 392 51 l 392 0 l 63 0 l 63 51 l 164 82 l 164 607 l 69 624 l 69 674 m 83 839 l 39 839 l 222 1042 l 408 1042 l 83 839 z "},"î":{"ha":447,"x_min":-8,"x_max":457,"o":"m 69 674 l 294 674 l 294 79 l 392 51 l 392 0 l 63 0 l 63 51 l 164 82 l 164 607 l 69 624 l 69 674 m 242 1042 l 457 814 l 401 814 l 218 918 l 46 814 l -8 814 l 194 1042 l 242 1042 z "},"ï":{"ha":447,"x_min":-21,"x_max":447,"o":"m 69 674 l 294 674 l 294 79 l 392 51 l 392 0 l 63 0 l 63 51 l 164 82 l 164 607 l 69 624 l 69 674 m 288 910 q 288 929 288 910 q 310 969 288 947 q 369 992 333 992 q 426 969 404 992 q 447 913 447 947 q 424 856 447 878 q 366 833 401 833 q 309 853 331 833 q 288 910 288 874 m -21 910 q -21 929 -21 910 q 2 969 -21 947 q 60 992 25 992 q 117 969 96 992 q 139 913 139 947 q 117 856 139 878 q 59 833 94 833 q 1 853 24 833 q -21 910 -21 874 z "},"ð":{"ha":808,"x_min":65,"x_max":750,"o":"m 657 740 q 680 710 657 740 q 726 597 703 681 q 750 418 750 514 q 732 250 750 322 q 676 117 714 178 q 568 22 638 57 q 404 -12 499 -12 q 156 83 246 -12 q 65 344 65 179 q 157 597 65 508 q 394 685 249 685 q 600 622 500 685 l 600 636 q 543 768 600 715 q 372 874 486 821 l 189 742 l 143 788 l 306 904 l 101 1001 l 136 1054 l 368 949 l 533 1068 l 579 1022 l 433 918 q 558 841 506 882 q 657 740 611 800 m 406 44 q 553 116 506 44 q 601 340 601 188 q 553 559 601 492 q 401 626 506 626 q 250 559 296 626 q 204 343 204 492 q 406 44 204 44 z "},"ñ":{"ha":956,"x_min":93,"x_max":893,"o":"m 93 675 l 318 675 l 318 479 q 565 685 374 685 q 732 616 678 685 q 786 426 786 547 l 786 82 l 893 51 l 893 0 l 564 0 l 564 51 l 657 79 l 657 410 q 627 571 657 522 q 533 619 597 619 q 381 526 435 619 q 328 244 328 432 l 328 79 l 425 51 l 425 0 l 93 0 l 93 51 l 196 81 l 196 606 l 93 625 l 93 675 m 233 921 q 316 1016 282 990 q 398 1042 350 1042 q 509 997 446 1042 q 603 953 572 953 q 707 1031 654 953 l 742 1006 q 574 858 653 858 q 468 903 539 858 q 351 947 397 947 q 243 867 306 947 l 213 892 l 233 921 z "},"ò":{"ha":808,"x_min":65,"x_max":742,"o":"m 603 332 q 603 407 603 332 q 557 555 603 482 q 408 628 511 628 q 255 558 304 628 q 206 333 206 488 q 254 112 206 179 q 403 44 303 44 q 553 113 504 44 q 603 332 603 182 m 65 332 q 65 414 65 332 q 158 591 65 496 q 405 686 251 686 q 650 593 558 686 q 742 333 742 500 q 650 77 742 167 q 403 -12 558 -12 q 157 78 249 -12 q 65 332 65 168 m 600 840 l 557 840 l 231 1042 l 417 1042 l 600 840 z "},"ó":{"ha":808,"x_min":65,"x_max":742,"o":"m 603 332 q 603 407 603 332 q 557 555 603 482 q 408 628 511 628 q 255 558 304 628 q 206 333 206 488 q 254 112 206 179 q 403 44 303 44 q 553 113 504 44 q 603 332 603 182 m 65 332 q 65 414 65 332 q 158 591 65 496 q 405 686 251 686 q 650 593 558 686 q 742 333 742 500 q 650 77 742 167 q 403 -12 558 -12 q 157 78 249 -12 q 65 332 65 168 m 264 839 l 219 839 l 403 1042 l 589 1042 l 264 839 z "},"ô":{"ha":808,"x_min":65,"x_max":742,"o":"m 603 332 q 603 407 603 332 q 557 555 603 482 q 408 628 511 628 q 255 558 304 628 q 206 333 206 488 q 254 112 206 179 q 403 44 303 44 q 553 113 504 44 q 603 332 603 182 m 65 332 q 65 414 65 332 q 158 591 65 496 q 405 686 251 686 q 650 593 558 686 q 742 333 742 500 q 650 77 742 167 q 403 -12 558 -12 q 157 78 249 -12 q 65 332 65 168 m 421 1042 l 636 814 l 581 814 l 397 918 l 225 814 l 171 814 l 374 1042 l 421 1042 z "},"õ":{"ha":808,"x_min":65,"x_max":742,"o":"m 603 332 q 603 407 603 332 q 557 555 603 482 q 408 628 511 628 q 255 558 304 628 q 206 333 206 488 q 254 112 206 179 q 403 44 303 44 q 553 113 504 44 q 603 332 603 182 m 65 332 q 65 414 65 332 q 158 591 65 496 q 405 686 251 686 q 650 593 558 686 q 742 333 742 500 q 650 77 742 167 q 403 -12 558 -12 q 157 78 249 -12 q 65 332 65 168 m 169 921 q 252 1016 218 990 q 334 1042 286 1042 q 445 997 382 1042 q 539 953 508 953 q 643 1031 590 953 l 678 1006 q 510 858 589 858 q 404 903 475 858 q 288 947 333 947 q 179 867 242 947 l 149 892 l 169 921 z "},"ö":{"ha":808,"x_min":65,"x_max":742,"o":"m 603 332 q 603 407 603 332 q 557 555 603 482 q 408 628 511 628 q 255 558 304 628 q 206 333 206 488 q 254 112 206 179 q 403 44 303 44 q 553 113 504 44 q 603 332 603 182 m 65 332 q 65 414 65 332 q 158 591 65 496 q 405 686 251 686 q 650 593 558 686 q 742 333 742 500 q 650 77 742 167 q 403 -12 558 -12 q 157 78 249 -12 q 65 332 65 168 m 157 969 q 157 988 157 969 q 181 1028 157 1007 q 247 1050 206 1050 q 313 1028 288 1050 q 338 970 338 1007 q 314 911 338 933 q 248 889 290 889 q 181 910 206 889 q 157 969 157 932 m 467 969 q 467 988 467 969 q 491 1028 467 1007 q 556 1050 515 1050 q 622 1028 597 1050 q 647 970 647 1007 q 624 911 647 933 q 558 889 600 889 q 491 910 515 889 q 467 969 467 932 z "},"÷":{"ha":858,"x_min":15,"x_max":838,"o":"m 15 460 l 838 460 l 838 374 l 15 374 l 15 460 m 329 722 q 329 742 329 722 q 358 790 329 763 q 426 818 386 818 q 494 791 465 818 q 522 724 522 764 q 494 655 522 683 q 426 626 467 626 q 358 654 386 626 q 329 722 329 682 m 329 97 q 329 117 329 97 q 357 167 329 138 q 425 196 385 196 q 494 167 465 196 q 522 99 522 139 q 492 30 522 58 q 424 1 463 1 q 358 29 386 1 q 329 97 329 57 z "},"ø":{"ha":808,"x_min":65,"x_max":742,"o":"m 742 333 q 650 77 742 167 q 404 -12 558 -12 q 310 -3 361 -12 l 261 -126 l 186 -126 l 243 19 q 65 332 65 100 q 158 591 65 496 q 406 686 251 686 q 504 674 458 686 l 547 783 l 621 783 l 568 651 q 742 333 742 564 m 406 628 q 255 558 304 628 q 206 322 206 488 q 271 90 206 156 l 481 615 q 406 628 447 628 m 403 44 q 553 113 504 44 q 603 344 603 182 q 539 576 603 507 l 332 54 q 403 44 360 44 z "},"ù":{"ha":882,"x_min":58,"x_max":858,"o":"m 58 674 l 289 674 l 289 258 q 317 103 289 149 q 411 57 346 57 q 564 149 508 57 q 619 429 619 240 l 619 604 l 518 622 l 518 674 l 749 674 l 749 83 l 858 51 l 858 0 l 628 0 l 628 188 q 527 37 592 89 q 386 -15 463 -15 q 158 235 158 -15 l 158 604 l 58 622 l 58 674 m 625 840 l 582 840 l 256 1042 l 442 1042 l 625 840 z "},"ú":{"ha":882,"x_min":58,"x_max":858,"o":"m 58 674 l 289 674 l 289 258 q 317 103 289 149 q 411 57 346 57 q 564 149 508 57 q 619 429 619 240 l 619 604 l 518 622 l 518 674 l 749 674 l 749 83 l 858 51 l 858 0 l 628 0 l 628 188 q 527 37 592 89 q 386 -15 463 -15 q 158 235 158 -15 l 158 604 l 58 622 l 58 674 m 300 839 l 256 839 l 439 1042 l 625 1042 l 300 839 z "},"û":{"ha":882,"x_min":58,"x_max":858,"o":"m 58 674 l 289 674 l 289 258 q 317 103 289 149 q 411 57 346 57 q 564 149 508 57 q 619 429 619 240 l 619 604 l 518 622 l 518 674 l 749 674 l 749 83 l 858 51 l 858 0 l 628 0 l 628 188 q 527 37 592 89 q 386 -15 463 -15 q 158 235 158 -15 l 158 604 l 58 622 l 58 674 m 458 1042 l 674 814 l 618 814 l 435 918 l 263 814 l 208 814 l 411 1042 l 458 1042 z "},"ü":{"ha":882,"x_min":58,"x_max":858,"o":"m 58 674 l 289 674 l 289 258 q 317 103 289 149 q 411 57 346 57 q 564 149 508 57 q 619 429 619 240 l 619 604 l 518 622 l 518 674 l 749 674 l 749 83 l 858 51 l 858 0 l 628 0 l 628 188 q 527 37 592 89 q 386 -15 463 -15 q 158 235 158 -15 l 158 604 l 58 622 l 58 674 m 194 969 q 194 988 194 969 q 219 1028 194 1007 q 284 1050 243 1050 q 350 1028 325 1050 q 375 970 375 1007 q 351 911 375 933 q 285 889 328 889 q 219 910 243 889 q 194 969 194 932 m 504 969 q 504 988 504 969 q 528 1028 504 1007 q 594 1050 553 1050 q 660 1028 635 1050 q 685 970 685 1007 q 661 911 685 933 q 595 889 638 889 q 528 910 553 889 q 504 969 504 932 z "},"ý":{"ha":664,"x_min":-72,"x_max":729,"o":"m 438 675 l 729 675 l 729 622 l 619 606 l 331 -106 q 232 -290 271 -247 q 104 -333 193 -333 l 43 -333 l 43 -131 l 94 -131 l 129 -256 q 192 -233 172 -253 q 221 -201 211 -212 q 244 -162 231 -190 q 263 -118 257 -133 q 285 -62 269 -103 q 308 -3 300 -22 l 43 597 l -72 622 l -72 674 l 281 674 l 281 622 l 186 603 l 376 153 l 544 604 l 438 622 l 438 675 m 197 839 l 153 839 l 336 1042 l 522 1042 l 197 839 z "},"þ":{"ha":831,"x_min":115,"x_max":872,"o":"m 118 1042 l 343 1042 l 343 503 q 581 685 407 685 q 792 593 713 685 q 872 335 872 501 q 792 77 872 169 q 582 -15 713 -15 q 351 150 414 -15 l 351 -356 l 453 -386 l 453 -437 l 115 -437 l 115 -386 l 219 -356 l 219 975 l 118 993 l 118 1042 m 561 624 q 412 547 471 624 q 353 341 353 471 q 410 128 353 211 q 561 46 467 46 q 731 335 731 46 q 561 624 731 624 z "},"ÿ":{"ha":843,"x_min":14,"x_max":815,"o":"m 524 675 l 815 675 l 815 622 l 706 606 l 417 -106 q 318 -290 357 -247 q 190 -333 279 -333 l 129 -333 l 129 -131 l 181 -131 l 215 -256 q 278 -233 258 -253 q 307 -201 297 -212 q 330 -162 317 -190 q 349 -118 343 -133 q 371 -62 356 -103 q 394 -3 386 -22 l 129 597 l 14 622 l 14 674 l 367 674 l 367 622 l 272 603 l 463 153 l 631 604 l 524 622 l 524 675 m 175 969 q 175 988 175 969 q 199 1028 175 1007 q 265 1050 224 1050 q 331 1028 306 1050 q 356 970 356 1007 q 332 911 356 933 q 266 889 308 889 q 199 910 224 889 q 175 969 175 932 m 485 969 q 485 988 485 969 q 509 1028 485 1007 q 574 1050 533 1050 q 640 1028 615 1050 q 665 970 665 1007 q 642 911 665 933 q 576 889 618 889 q 509 910 533 889 q 485 969 485 932 z "},"Ā":{"ha":1271,"x_min":69,"x_max":1201,"o":"m 69 0 l 69 51 l 193 82 l 614 1053 l 685 1053 l 1085 82 l 1201 51 l 1201 0 l 807 0 l 807 51 l 928 81 l 818 350 l 399 350 l 294 81 l 419 51 l 419 0 l 69 0 m 418 403 l 799 403 l 604 890 l 418 403 m 431 1278 l 832 1278 l 832 1175 l 431 1175 l 431 1278 z "},"ā":{"ha":808,"x_min":56,"x_max":753,"o":"m 753 0 l 508 0 l 508 140 q 279 -12 443 -12 q 113 35 169 -12 q 56 169 56 83 q 163 345 56 292 q 506 403 271 399 l 506 463 q 465 597 506 561 q 346 632 425 632 q 208 596 267 632 l 163 458 l 111 458 l 111 615 q 207 665 146 644 q 340 685 268 685 q 562 628 488 685 q 636 429 636 572 l 636 83 l 753 51 l 753 0 m 315 46 q 455 115 404 46 q 506 354 506 183 q 214 281 267 354 q 189 178 189 246 q 219 78 189 110 q 315 46 249 46 m 146 958 l 547 958 l 547 856 l 146 856 l 146 958 z "},"Ă":{"ha":1271,"x_min":69,"x_max":1201,"o":"m 69 0 l 69 51 l 193 82 l 614 1053 l 685 1053 l 1085 82 l 1201 51 l 1201 0 l 807 0 l 807 51 l 928 81 l 818 350 l 399 350 l 294 81 l 419 51 l 419 0 l 69 0 m 418 403 l 799 403 l 604 890 l 418 403 m 828 1329 l 869 1329 q 800 1169 869 1226 q 635 1113 731 1113 q 469 1169 539 1113 q 399 1329 399 1226 l 443 1329 q 501 1242 443 1274 q 635 1210 558 1210 q 770 1242 713 1210 q 828 1329 828 1274 z "},"ă":{"ha":808,"x_min":56,"x_max":753,"o":"m 753 0 l 508 0 l 508 140 q 279 -12 443 -12 q 113 35 169 -12 q 56 169 56 83 q 163 345 56 292 q 506 403 271 399 l 506 463 q 465 597 506 561 q 346 632 425 632 q 208 596 267 632 l 163 458 l 111 458 l 111 615 q 207 665 146 644 q 340 685 268 685 q 562 628 488 685 q 636 429 636 572 l 636 83 l 753 51 l 753 0 m 315 46 q 455 115 404 46 q 506 354 506 183 q 214 281 267 354 q 189 178 189 246 q 219 78 189 110 q 315 46 249 46 m 536 1042 l 578 1042 q 508 882 578 939 q 343 825 439 825 q 177 882 247 825 q 107 1042 107 939 l 151 1042 q 209 954 151 986 q 344 922 267 922 q 478 954 421 922 q 536 1042 536 986 z "},"Ą":{"ha":1271,"x_min":69,"x_max":1201,"o":"m 968 -136 q 994 -56 968 -93 q 1071 0 1021 -19 l 807 0 l 807 51 l 928 81 l 818 350 l 399 350 l 294 81 l 419 51 l 419 0 l 69 0 l 69 51 l 193 82 l 614 1053 l 685 1053 l 1085 82 l 1201 51 l 1201 0 l 1135 0 q 1067 -133 1067 -44 q 1099 -222 1067 -186 q 1193 -258 1131 -257 l 1201 -303 q 1030 -253 1092 -303 q 968 -136 968 -203 m 418 403 l 799 403 l 604 890 l 418 403 z "},"ą":{"ha":808,"x_min":56,"x_max":753,"o":"m 753 -315 q 581 -265 643 -315 q 519 -155 519 -215 q 558 -53 519 -94 q 669 0 597 -12 l 508 0 l 508 140 q 279 -12 443 -12 q 113 35 169 -12 q 56 169 56 83 q 163 345 56 292 q 506 403 271 399 l 506 463 q 465 597 506 561 q 346 632 425 632 q 208 596 267 632 l 163 458 l 111 458 l 111 615 q 207 665 146 644 q 340 685 268 685 q 562 628 488 685 q 636 429 636 572 l 636 83 l 753 51 l 753 0 l 710 0 q 642 -58 667 -17 q 618 -149 618 -99 q 650 -234 618 -199 q 744 -271 682 -269 l 753 -315 m 315 46 q 455 115 404 46 q 506 354 506 183 q 214 281 267 354 q 189 178 189 246 q 219 78 189 110 q 315 46 249 46 z "},"Ć":{"ha":1053,"x_min":83,"x_max":942,"o":"m 942 335 l 942 100 q 597 -29 818 -29 q 230 119 376 -29 q 83 515 83 267 q 232 909 83 763 q 601 1056 381 1056 q 942 940 821 1056 l 942 715 l 869 715 l 801 936 q 600 1004 725 1004 q 343 878 442 1004 q 244 522 244 753 q 340 158 244 290 q 594 26 435 26 q 807 104 724 26 l 876 335 l 942 335 m 443 1113 l 399 1113 l 582 1315 l 768 1315 l 443 1113 z "},"ć":{"ha":715,"x_min":69,"x_max":639,"o":"m 639 217 l 639 53 q 415 -14 567 -14 q 166 78 263 -14 q 69 333 69 169 q 169 592 69 497 q 422 688 268 688 q 546 672 486 688 q 636 628 606 656 l 636 456 l 585 456 l 539 607 q 410 636 500 636 q 266 558 319 636 q 213 332 213 481 q 426 39 213 39 q 539 58 497 39 l 588 217 l 639 217 m 249 839 l 204 839 l 388 1042 l 574 1042 l 249 839 z "},"Ĉ":{"ha":1053,"x_min":83,"x_max":942,"o":"m 942 335 l 942 100 q 597 -29 818 -29 q 230 119 376 -29 q 83 515 83 267 q 232 909 83 763 q 601 1056 381 1056 q 942 940 821 1056 l 942 715 l 869 715 l 801 936 q 600 1004 725 1004 q 343 878 442 1004 q 244 522 244 753 q 340 158 244 290 q 594 26 435 26 q 807 104 724 26 l 876 335 l 942 335 m 603 1340 l 818 1113 l 763 1113 l 579 1217 l 407 1113 l 353 1113 l 556 1340 l 603 1340 z "},"ĉ":{"ha":715,"x_min":69,"x_max":639,"o":"m 639 217 l 639 53 q 415 -14 567 -14 q 166 78 263 -14 q 69 333 69 169 q 169 592 69 497 q 422 688 268 688 q 546 672 486 688 q 636 628 606 656 l 636 456 l 585 456 l 539 607 q 410 636 500 636 q 266 558 319 636 q 213 332 213 481 q 426 39 213 39 q 539 58 497 39 l 588 217 l 639 217 m 414 1042 l 629 814 l 574 814 l 390 918 l 218 814 l 164 814 l 367 1042 l 414 1042 z "},"Ċ":{"ha":1053,"x_min":83,"x_max":942,"o":"m 942 335 l 942 100 q 597 -29 818 -29 q 230 119 376 -29 q 83 515 83 267 q 232 909 83 763 q 601 1056 381 1056 q 942 940 821 1056 l 942 715 l 869 715 l 801 936 q 600 1004 725 1004 q 343 878 442 1004 q 244 522 244 753 q 340 158 244 290 q 594 26 435 26 q 807 104 724 26 l 876 335 l 942 335 m 503 1199 q 503 1217 503 1199 q 527 1258 503 1236 q 592 1279 551 1279 q 658 1258 633 1279 q 683 1199 683 1236 q 660 1140 683 1163 q 594 1118 636 1118 q 527 1140 551 1118 q 503 1199 503 1161 z "},"ċ":{"ha":715,"x_min":69,"x_max":639,"o":"m 639 217 l 639 53 q 415 -14 567 -14 q 166 78 263 -14 q 69 333 69 169 q 169 592 69 497 q 422 688 268 688 q 546 672 486 688 q 636 628 606 656 l 636 456 l 585 456 l 539 607 q 410 636 500 636 q 266 558 319 636 q 213 332 213 481 q 426 39 213 39 q 539 58 497 39 l 588 217 l 639 217 m 328 917 q 328 935 328 917 q 352 976 328 954 q 417 997 376 997 q 483 976 458 997 q 508 917 508 954 q 485 858 508 881 q 419 836 461 836 q 352 858 376 836 q 328 917 328 879 z "},"Č":{"ha":1053,"x_min":83,"x_max":942,"o":"m 942 335 l 942 100 q 597 -29 818 -29 q 230 119 376 -29 q 83 515 83 267 q 232 909 83 763 q 601 1056 381 1056 q 942 940 821 1056 l 942 715 l 869 715 l 801 936 q 600 1004 725 1004 q 343 878 442 1004 q 244 522 244 753 q 340 158 244 290 q 594 26 435 26 q 807 104 724 26 l 876 335 l 942 335 m 561 1113 l 350 1339 l 404 1339 l 585 1238 l 760 1339 l 815 1339 l 607 1113 l 561 1113 z "},"č":{"ha":715,"x_min":69,"x_max":639,"o":"m 639 217 l 639 53 q 415 -14 567 -14 q 166 78 263 -14 q 69 333 69 169 q 169 592 69 497 q 422 688 268 688 q 546 672 486 688 q 636 628 606 656 l 636 456 l 585 456 l 539 607 q 410 636 500 636 q 266 558 319 636 q 213 332 213 481 q 426 39 213 39 q 539 58 497 39 l 588 217 l 639 217 m 381 815 l 169 1042 l 224 1042 l 404 940 l 579 1042 l 635 1042 l 426 815 l 381 815 z "},"Ď":{"ha":1189,"x_min":125,"x_max":1106,"o":"m 125 1042 l 494 1042 q 743 1016 636 1042 q 934 931 850 990 q 1062 768 1018 872 q 1106 515 1106 664 q 1061 264 1106 367 q 929 105 1017 161 q 731 24 842 49 q 469 0 621 0 l 125 0 l 125 51 l 263 83 l 263 957 l 125 990 l 125 1042 m 408 58 l 476 58 q 831 161 717 58 q 944 515 944 264 q 838 874 944 765 q 500 983 731 983 l 408 983 l 408 58 m 563 1113 l 351 1339 l 406 1339 l 586 1238 l 761 1339 l 817 1339 l 608 1113 l 563 1113 z "},"ď":{"ha":1050,"x_min":83,"x_max":1092,"o":"m 886 793 l 822 793 l 915 1043 l 1092 1043 l 886 793 m 501 1042 l 735 1042 l 735 81 l 853 51 l 853 0 l 611 0 l 611 158 q 374 -14 561 -14 q 163 76 243 -14 q 83 333 83 167 q 163 592 83 499 q 372 685 243 685 q 527 640 465 685 q 606 524 589 596 l 606 971 l 501 992 l 501 1042 m 396 622 q 224 335 224 622 q 397 49 224 49 q 551 126 490 49 q 611 335 611 204 q 551 544 611 465 q 396 622 490 622 z "},"Đ":{"ha":1114,"x_min":49,"x_max":1031,"o":"m 49 564 l 188 564 l 188 957 l 50 990 l 50 1042 l 419 1042 q 668 1016 561 1042 q 859 931 775 990 q 987 768 943 872 q 1031 515 1031 664 q 986 264 1031 367 q 854 105 942 161 q 656 24 767 49 q 394 0 546 0 l 50 0 l 50 51 l 188 83 l 188 500 l 49 500 l 49 564 m 333 58 l 401 58 q 756 161 642 58 q 869 515 869 264 q 763 874 869 765 q 425 983 656 983 l 333 983 l 333 564 l 611 564 l 611 500 l 333 500 l 333 58 z "},"đ":{"ha":867,"x_min":83,"x_max":863,"o":"m 501 1042 l 735 1042 l 735 842 l 863 842 l 863 783 l 735 783 l 735 81 l 853 51 l 853 0 l 611 0 l 611 158 q 374 -14 561 -14 q 163 76 243 -14 q 83 333 83 167 q 163 592 83 499 q 372 685 243 685 q 527 640 465 685 q 606 524 589 596 l 606 783 l 411 783 l 411 842 l 606 842 l 606 971 l 501 992 l 501 1042 m 396 622 q 224 335 224 622 q 397 49 224 49 q 551 126 490 49 q 611 335 611 204 q 551 544 611 465 q 396 622 490 622 z "},"Ē":{"ha":972,"x_min":125,"x_max":917,"o":"m 125 1042 l 890 1042 l 890 793 l 818 793 l 764 982 l 408 982 l 408 567 l 676 567 l 714 688 l 765 688 l 765 400 l 714 400 l 676 506 l 408 506 l 408 60 l 789 60 l 843 247 l 917 247 l 917 0 l 125 0 l 125 51 l 263 83 l 263 957 l 125 990 l 125 1042 m 358 1267 l 760 1267 l 760 1164 l 358 1164 l 358 1267 z "},"ē":{"ha":765,"x_min":71,"x_max":681,"o":"m 671 235 l 671 76 q 416 -14 592 -14 q 156 78 240 -14 q 71 335 71 171 q 160 592 71 499 q 401 686 250 686 q 552 653 492 686 q 639 564 613 619 q 681 371 681 472 l 210 371 q 246 132 210 214 q 410 39 288 39 q 492 51 453 39 q 550 74 532 63 q 568 88 568 85 l 619 235 l 671 235 m 399 632 q 238 524 281 632 q 213 417 217 475 l 560 417 q 399 632 560 632 m 196 956 l 597 956 l 597 853 l 196 853 l 196 956 z "},"Ĕ":{"ha":972,"x_min":125,"x_max":917,"o":"m 125 1042 l 890 1042 l 890 793 l 818 793 l 764 982 l 408 982 l 408 567 l 676 567 l 714 688 l 765 688 l 765 400 l 714 400 l 676 506 l 408 506 l 408 60 l 789 60 l 843 247 l 917 247 l 917 0 l 125 0 l 125 51 l 263 83 l 263 957 l 125 990 l 125 1042 m 764 1329 l 806 1329 q 736 1169 806 1226 q 571 1113 667 1113 q 405 1169 475 1113 q 335 1329 335 1226 l 379 1329 q 437 1242 379 1274 q 572 1210 494 1210 q 706 1242 649 1210 q 764 1329 764 1274 z "},"ĕ":{"ha":765,"x_min":71,"x_max":681,"o":"m 671 235 l 671 76 q 416 -14 592 -14 q 156 78 240 -14 q 71 335 71 171 q 160 592 71 499 q 401 686 250 686 q 552 653 492 686 q 639 564 613 619 q 681 371 681 472 l 210 371 q 246 132 210 214 q 410 39 288 39 q 492 51 453 39 q 550 74 532 63 q 568 88 568 85 l 619 235 l 671 235 m 399 632 q 238 524 281 632 q 213 417 217 475 l 560 417 q 399 632 560 632 m 586 1042 l 628 1042 q 558 882 628 939 q 393 825 489 825 q 227 882 297 825 q 157 1042 157 939 l 201 1042 q 259 954 201 986 q 394 922 317 922 q 528 954 471 922 q 586 1042 586 986 z "},"Ė":{"ha":972,"x_min":125,"x_max":917,"o":"m 125 1042 l 890 1042 l 890 793 l 818 793 l 764 982 l 408 982 l 408 567 l 676 567 l 714 688 l 765 688 l 765 400 l 714 400 l 676 506 l 408 506 l 408 60 l 789 60 l 843 247 l 917 247 l 917 0 l 125 0 l 125 51 l 263 83 l 263 957 l 125 990 l 125 1042 m 475 1226 q 475 1245 475 1226 q 499 1285 475 1264 q 565 1307 524 1307 q 631 1285 606 1307 q 656 1227 656 1264 q 632 1168 656 1190 q 566 1146 608 1146 q 499 1167 524 1146 q 475 1226 475 1189 z "},"ė":{"ha":765,"x_min":71,"x_max":681,"o":"m 671 235 l 671 76 q 416 -14 592 -14 q 156 78 240 -14 q 71 335 71 171 q 160 592 71 499 q 401 686 250 686 q 552 653 492 686 q 639 564 613 619 q 681 371 681 472 l 210 371 q 246 132 210 214 q 410 39 288 39 q 492 51 453 39 q 550 74 532 63 q 568 88 568 85 l 619 235 l 671 235 m 399 632 q 238 524 281 632 q 213 417 217 475 l 560 417 q 399 632 560 632 m 310 939 q 310 958 310 939 q 334 998 310 976 q 399 1019 358 1019 q 465 998 440 1019 q 490 940 490 976 q 467 881 490 903 q 401 858 443 858 q 334 880 358 858 q 310 939 310 901 z "},"Ę":{"ha":972,"x_min":125,"x_max":917,"o":"m 917 -315 q 745 -265 807 -315 q 683 -155 683 -215 q 722 -53 683 -94 q 833 0 761 -12 l 125 0 l 125 51 l 263 83 l 263 957 l 125 990 l 125 1042 l 890 1042 l 890 793 l 818 793 l 764 982 l 408 982 l 408 567 l 676 567 l 714 688 l 765 688 l 765 400 l 714 400 l 676 506 l 408 506 l 408 60 l 789 60 l 843 247 l 917 247 l 917 0 l 874 0 q 806 -58 831 -17 q 782 -149 782 -99 q 814 -234 782 -199 q 908 -271 846 -269 l 917 -315 z "},"ę":{"ha":765,"x_min":107,"x_max":717,"o":"m 326 -153 q 436 -14 326 -54 q 189 81 271 -11 q 107 335 107 172 q 197 592 107 499 q 438 686 286 686 q 588 653 528 686 q 675 564 649 619 q 717 371 717 472 l 246 371 q 282 132 246 214 q 446 39 324 39 q 528 51 489 39 q 586 74 568 63 q 604 88 604 85 l 656 235 l 707 235 l 707 76 q 501 -11 643 4 q 445 -70 465 -32 q 425 -156 425 -108 q 457 -238 425 -203 q 551 -275 489 -274 l 560 -319 q 388 -269 450 -319 q 326 -153 326 -219 m 435 632 q 274 524 317 632 q 249 417 253 475 l 596 417 q 435 632 596 632 z "},"Ě":{"ha":972,"x_min":125,"x_max":917,"o":"m 125 1042 l 890 1042 l 890 793 l 818 793 l 764 982 l 408 982 l 408 567 l 676 567 l 714 688 l 765 688 l 765 400 l 714 400 l 676 506 l 408 506 l 408 60 l 789 60 l 843 247 l 917 247 l 917 0 l 125 0 l 125 51 l 263 83 l 263 957 l 125 990 l 125 1042 m 539 1113 l 328 1339 l 382 1339 l 563 1238 l 738 1339 l 793 1339 l 585 1113 l 539 1113 z "},"ě":{"ha":765,"x_min":71,"x_max":681,"o":"m 671 235 l 671 76 q 416 -14 592 -14 q 156 78 240 -14 q 71 335 71 171 q 160 592 71 499 q 401 686 250 686 q 552 653 492 686 q 639 564 613 619 q 681 371 681 472 l 210 371 q 246 132 210 214 q 410 39 288 39 q 492 51 453 39 q 550 74 532 63 q 568 88 568 85 l 619 235 l 671 235 m 399 632 q 238 524 281 632 q 213 417 217 475 l 560 417 q 399 632 560 632 m 376 815 l 165 1042 l 219 1042 l 400 940 l 575 1042 l 631 1042 l 422 815 l 376 815 z "},"Ĝ":{"ha":1114,"x_min":83,"x_max":1114,"o":"m 685 450 l 1114 450 l 1114 399 l 976 367 l 976 50 q 794 0 906 18 q 590 -18 683 -18 q 215 125 347 -18 q 83 517 83 268 q 213 915 83 765 q 578 1064 342 1064 q 776 1038 674 1064 q 946 950 879 1013 l 946 715 l 874 715 l 806 946 q 575 1011 744 1011 q 325 885 406 1011 q 244 528 244 758 q 588 38 244 38 q 831 71 696 38 l 831 367 l 685 399 l 685 450 m 617 1340 l 832 1113 l 776 1113 l 593 1217 l 421 1113 l 367 1113 l 569 1340 l 617 1340 z "},"ĝ":{"ha":743,"x_min":35,"x_max":735,"o":"m 192 -79 q 125 -225 125 -146 q 188 -356 125 -304 q 367 -408 251 -408 q 559 -358 483 -408 q 635 -225 635 -307 q 501 -117 635 -128 l 304 -101 q 192 -79 231 -96 m 364 633 q 211 426 211 633 q 249 269 211 319 q 365 219 286 219 q 522 422 522 219 q 485 584 522 535 q 364 633 447 633 m 735 671 l 735 622 l 610 574 q 651 425 651 513 q 569 238 651 307 q 361 168 488 168 q 268 179 321 168 q 200 99 200 142 q 224 40 200 57 q 336 15 249 24 l 474 4 q 657 -46 601 1 q 713 -187 713 -93 q 613 -386 713 -315 q 358 -457 513 -457 q 119 -400 204 -457 q 35 -238 35 -343 q 161 -65 35 -133 q 106 40 106 -18 q 132 129 106 99 q 228 192 158 160 q 83 426 83 265 q 160 617 83 546 q 365 689 236 689 q 499 671 428 689 l 735 671 m 389 1042 l 604 814 l 549 814 l 365 918 l 193 814 l 139 814 l 342 1042 l 389 1042 z "},"Ğ":{"ha":1114,"x_min":83,"x_max":1114,"o":"m 685 450 l 1114 450 l 1114 399 l 976 367 l 976 50 q 794 0 906 18 q 590 -18 683 -18 q 215 125 347 -18 q 83 517 83 268 q 213 915 83 765 q 578 1064 342 1064 q 776 1038 674 1064 q 946 950 879 1013 l 946 715 l 874 715 l 806 946 q 575 1011 744 1011 q 325 885 406 1011 q 244 528 244 758 q 588 38 244 38 q 831 71 696 38 l 831 367 l 685 399 l 685 450 m 775 1329 l 817 1329 q 747 1169 817 1226 q 582 1113 678 1113 q 416 1169 486 1113 q 346 1329 346 1226 l 390 1329 q 448 1242 390 1274 q 583 1210 506 1210 q 717 1242 660 1210 q 775 1329 775 1274 z "},"ğ":{"ha":743,"x_min":35,"x_max":735,"o":"m 192 -79 q 125 -225 125 -146 q 188 -356 125 -304 q 367 -408 251 -408 q 559 -358 483 -408 q 635 -225 635 -307 q 501 -117 635 -128 l 304 -101 q 192 -79 231 -96 m 364 633 q 211 426 211 633 q 249 269 211 319 q 365 219 286 219 q 522 422 522 219 q 485 584 522 535 q 364 633 447 633 m 735 671 l 735 622 l 610 574 q 651 425 651 513 q 569 238 651 307 q 361 168 488 168 q 268 179 321 168 q 200 99 200 142 q 224 40 200 57 q 336 15 249 24 l 474 4 q 657 -46 601 1 q 713 -187 713 -93 q 613 -386 713 -315 q 358 -457 513 -457 q 119 -400 204 -457 q 35 -238 35 -343 q 161 -65 35 -133 q 106 40 106 -18 q 132 129 106 99 q 228 192 158 160 q 83 426 83 265 q 160 617 83 546 q 365 689 236 689 q 499 671 428 689 l 735 671 m 561 1042 l 603 1042 q 533 882 603 939 q 368 825 464 825 q 202 882 272 825 q 132 1042 132 939 l 176 1042 q 234 954 176 986 q 369 922 292 922 q 503 954 446 922 q 561 1042 561 986 z "},"Ġ":{"ha":1114,"x_min":83,"x_max":1114,"o":"m 685 450 l 1114 450 l 1114 399 l 976 367 l 976 50 q 794 0 906 18 q 590 -18 683 -18 q 215 125 347 -18 q 83 517 83 268 q 213 915 83 765 q 578 1064 342 1064 q 776 1038 674 1064 q 946 950 879 1013 l 946 715 l 874 715 l 806 946 q 575 1011 744 1011 q 325 885 406 1011 q 244 528 244 758 q 588 38 244 38 q 831 71 696 38 l 831 367 l 685 399 l 685 450 m 499 1267 q 499 1285 499 1267 q 523 1326 499 1304 q 588 1347 547 1347 q 654 1326 629 1347 q 679 1267 679 1304 q 656 1208 679 1231 q 590 1186 632 1186 q 523 1208 547 1186 q 499 1267 499 1229 z "},"ġ":{"ha":743,"x_min":35,"x_max":735,"o":"m 192 -79 q 125 -225 125 -146 q 188 -356 125 -304 q 367 -408 251 -408 q 559 -358 483 -408 q 635 -225 635 -307 q 501 -117 635 -128 l 304 -101 q 192 -79 231 -96 m 364 633 q 211 426 211 633 q 249 269 211 319 q 365 219 286 219 q 522 422 522 219 q 485 584 522 535 q 364 633 447 633 m 735 671 l 735 622 l 610 574 q 651 425 651 513 q 569 238 651 307 q 361 168 488 168 q 268 179 321 168 q 200 99 200 142 q 224 40 200 57 q 336 15 249 24 l 474 4 q 657 -46 601 1 q 713 -187 713 -93 q 613 -386 713 -315 q 358 -457 513 -457 q 119 -400 204 -457 q 35 -238 35 -343 q 161 -65 35 -133 q 106 40 106 -18 q 132 129 106 99 q 228 192 158 160 q 83 426 83 265 q 160 617 83 546 q 365 689 236 689 q 499 671 428 689 l 735 671 m 99 969 q 99 988 99 969 q 123 1028 99 1007 q 188 1050 147 1050 q 254 1028 229 1050 q 279 970 279 1007 q 256 911 279 933 q 190 889 232 889 q 123 910 147 889 q 99 969 99 932 z "},"Ģ":{"ha":1114,"x_min":83,"x_max":1114,"o":"m 482 -357 l 418 -357 l 511 -107 l 688 -107 l 482 -357 m 685 450 l 1114 450 l 1114 399 l 976 367 l 976 50 q 794 0 906 18 q 590 -18 683 -18 q 215 125 347 -18 q 83 517 83 268 q 213 915 83 765 q 578 1064 342 1064 q 776 1038 674 1064 q 946 950 879 1013 l 946 715 l 874 715 l 806 946 q 575 1011 744 1011 q 325 885 406 1011 q 244 528 244 758 q 588 38 244 38 q 831 71 696 38 l 831 367 l 685 399 l 685 450 z "},"ģ":{"ha":743,"x_min":35,"x_max":735,"o":"m 435 1040 l 499 1040 l 406 790 l 229 790 l 435 1040 m 192 -79 q 125 -225 125 -146 q 188 -356 125 -304 q 367 -408 251 -408 q 559 -358 483 -408 q 635 -225 635 -307 q 501 -117 635 -128 l 304 -101 q 192 -79 231 -96 m 364 633 q 211 426 211 633 q 249 269 211 319 q 365 219 286 219 q 522 422 522 219 q 485 584 522 535 q 364 633 447 633 m 735 671 l 735 622 l 610 574 q 651 425 651 513 q 569 238 651 307 q 361 168 488 168 q 268 179 321 168 q 200 99 200 142 q 224 40 200 57 q 336 15 249 24 l 474 4 q 657 -46 601 1 q 713 -187 713 -93 q 613 -386 713 -315 q 358 -457 513 -457 q 119 -400 204 -457 q 35 -238 35 -343 q 161 -65 35 -133 q 106 40 106 -18 q 132 129 106 99 q 228 192 158 160 q 83 426 83 265 q 160 617 83 546 q 365 689 236 689 q 499 671 428 689 l 735 671 z "},"Ĥ":{"ha":1329,"x_min":125,"x_max":1204,"o":"m 782 0 l 782 51 l 918 82 l 918 500 l 410 500 l 410 82 l 549 51 l 549 0 l 125 0 l 125 51 l 264 82 l 264 957 l 125 990 l 125 1042 l 549 1042 l 549 990 l 410 957 l 410 563 l 918 563 l 918 957 l 782 990 l 782 1042 l 1204 1042 l 1204 990 l 1064 958 l 1064 83 l 1204 51 l 1204 0 l 782 0 m 682 1340 l 897 1113 l 842 1113 l 658 1217 l 486 1113 l 432 1113 l 635 1340 l 682 1340 z "},"ĥ":{"ha":875,"x_min":56,"x_max":854,"o":"m 64 1042 l 289 1042 l 289 504 q 526 685 336 685 q 693 623 633 685 q 753 440 753 561 l 753 81 l 854 51 l 854 0 l 525 0 l 525 51 l 621 81 l 621 438 q 590 576 621 535 q 496 618 560 618 q 343 528 397 618 q 289 253 289 438 l 289 79 l 385 51 l 385 0 l 56 0 l 56 51 l 157 82 l 157 975 l 64 992 l 64 1042 m 568 1042 l 783 814 l 728 814 l 544 918 l 372 814 l 318 814 l 521 1042 l 568 1042 z "},"Ħ":{"ha":1331,"x_min":125,"x_max":1206,"o":"m 126 756 l 126 817 l 264 817 l 264 957 l 125 990 l 125 1042 l 549 1042 l 549 990 l 410 957 l 410 817 l 918 817 l 918 957 l 782 990 l 782 1042 l 1204 1042 l 1204 990 l 1064 958 l 1064 817 l 1206 817 l 1206 756 l 1064 756 l 1064 83 l 1204 51 l 1204 0 l 782 0 l 782 51 l 918 82 l 918 500 l 410 500 l 410 82 l 549 51 l 549 0 l 125 0 l 125 51 l 264 82 l 264 756 l 126 756 m 410 563 l 918 563 l 918 756 l 410 756 l 410 563 z "},"ħ":{"ha":875,"x_min":28,"x_max":854,"o":"m 64 1042 l 289 1042 l 289 842 l 479 842 l 479 783 l 289 783 l 289 504 q 526 685 336 685 q 693 623 633 685 q 753 440 753 561 l 753 81 l 854 51 l 854 0 l 525 0 l 525 51 l 621 81 l 621 438 q 590 576 621 535 q 496 618 560 618 q 343 528 397 618 q 289 253 289 438 l 289 79 l 385 51 l 385 0 l 56 0 l 56 51 l 157 82 l 157 783 l 28 783 l 28 842 l 157 842 l 157 975 l 64 992 l 64 1042 z "},"Ĩ":{"ha":672,"x_min":72,"x_max":601,"o":"m 125 1042 l 547 1042 l 547 990 l 408 958 l 408 82 l 547 51 l 547 0 l 125 0 l 125 51 l 263 83 l 263 957 l 125 990 l 125 1042 m 93 1175 q 176 1270 142 1244 q 258 1296 210 1296 q 369 1251 306 1296 q 463 1207 432 1207 q 567 1285 514 1207 l 601 1260 q 433 1113 513 1113 q 327 1157 397 1113 q 211 1201 257 1201 q 103 1121 165 1201 l 72 1146 l 93 1175 z "},"ĩ":{"ha":447,"x_min":-40,"x_max":489,"o":"m 69 674 l 294 674 l 294 79 l 392 51 l 392 0 l 63 0 l 63 51 l 164 82 l 164 607 l 69 624 l 69 674 m -19 921 q 63 1016 29 990 q 145 1042 97 1042 q 256 997 193 1042 q 350 953 319 953 q 454 1031 401 953 l 489 1006 q 321 858 400 858 q 215 903 286 858 q 99 947 144 947 q -10 867 53 947 l -40 892 l -19 921 z "},"Ī":{"ha":672,"x_min":125,"x_max":547,"o":"m 125 1042 l 547 1042 l 547 990 l 408 958 l 408 82 l 547 51 l 547 0 l 125 0 l 125 51 l 263 83 l 263 957 l 125 990 l 125 1042 m 136 1301 l 538 1301 l 538 1199 l 136 1199 l 136 1301 z "},"ī":{"ha":447,"x_min":0,"x_max":401,"o":"m 69 674 l 294 674 l 294 79 l 392 51 l 392 0 l 63 0 l 63 51 l 164 82 l 164 607 l 69 624 l 69 674 m 0 958 l 401 958 l 401 856 l 0 856 l 0 958 z "},"Ĭ":{"ha":665,"x_min":97,"x_max":568,"o":"m 117 1042 l 539 1042 l 539 990 l 400 958 l 400 82 l 539 51 l 539 0 l 117 0 l 117 51 l 254 83 l 254 957 l 117 990 l 117 1042 m 526 1329 l 568 1329 q 499 1169 568 1226 q 333 1113 429 1113 q 167 1169 238 1113 q 97 1329 97 1226 l 142 1329 q 199 1242 142 1274 q 334 1210 257 1210 q 469 1242 411 1210 q 526 1329 526 1274 z "},"ĭ":{"ha":447,"x_min":-11,"x_max":460,"o":"m 69 674 l 294 674 l 294 79 l 392 51 l 392 0 l 63 0 l 63 51 l 164 82 l 164 607 l 69 624 l 69 674 m 418 1042 l 460 1042 q 390 882 460 939 q 225 825 321 825 q 59 882 129 825 q -11 1042 -11 939 l 33 1042 q 91 954 33 986 q 226 922 149 922 q 360 954 303 922 q 418 1042 418 986 z "},"Į":{"ha":672,"x_min":125,"x_max":547,"o":"m 450 -315 q 278 -265 340 -315 q 217 -155 217 -215 q 256 -53 217 -94 q 367 0 294 -12 l 125 0 l 125 51 l 263 83 l 263 957 l 125 990 l 125 1042 l 547 1042 l 547 990 l 408 958 l 408 82 l 547 51 l 547 0 l 407 0 q 340 -58 364 -17 q 315 -149 315 -99 q 347 -234 315 -199 q 442 -271 379 -269 l 450 -315 z "},"į":{"ha":447,"x_min":63,"x_max":392,"o":"m 340 -315 q 169 -265 231 -315 q 107 -155 107 -215 q 146 -53 107 -94 q 257 0 185 -12 l 63 0 l 63 51 l 164 82 l 164 607 l 69 624 l 69 674 l 294 674 l 294 79 l 392 51 l 392 0 l 297 0 q 230 -58 254 -17 q 206 -149 206 -99 q 238 -234 206 -199 q 332 -271 269 -269 l 340 -315 m 115 969 q 115 988 115 969 q 140 1028 115 1007 q 205 1050 164 1050 q 271 1028 246 1050 q 296 970 296 1007 q 272 911 296 933 q 206 889 249 889 q 140 910 164 889 q 115 969 115 932 z "},"İ":{"ha":672,"x_min":125,"x_max":547,"o":"m 125 1042 l 547 1042 l 547 990 l 408 958 l 408 82 l 547 51 l 547 0 l 125 0 l 125 51 l 263 83 l 263 957 l 125 990 l 125 1042 m 250 1258 q 250 1277 250 1258 q 274 1317 250 1296 q 340 1339 299 1339 q 406 1317 381 1339 q 431 1259 431 1296 q 407 1200 431 1222 q 341 1178 383 1178 q 274 1199 299 1178 q 250 1258 250 1221 z "},"ı":{"ha":447,"x_min":63,"x_max":392,"o":"m 69 674 l 294 674 l 294 79 l 392 51 l 392 0 l 63 0 l 63 51 l 164 82 l 164 607 l 69 624 l 69 674 z "},"Ĵ":{"ha":660,"x_min":93,"x_max":558,"o":"m 113 1042 l 535 1042 l 535 990 l 394 958 l 394 386 q 385 74 394 122 q 363 -24 375 25 q 331 -104 350 -74 q 286 -175 313 -135 q 136 -333 244 -237 l 97 -310 q 197 -153 175 -208 q 228 -67 219 -97 q 242 19 238 -36 q 247 233 247 92 l 247 958 l 113 990 l 113 1042 m 343 1340 l 558 1113 l 503 1113 l 319 1217 l 147 1113 l 93 1113 l 296 1340 l 343 1340 z "},"ĵ":{"ha":335,"x_min":-65,"x_max":400,"o":"m 31 674 l 256 674 l 256 53 q 238 -161 256 -85 q 185 -290 221 -237 q 54 -447 150 -343 l 14 -417 q 108 -256 93 -325 q 124 -21 124 -186 l 124 607 l 31 624 l 31 674 m 185 1042 l 400 814 l 344 814 l 161 918 l -11 814 l -65 814 l 138 1042 l 185 1042 z "},"Ķ":{"ha":1197,"x_min":125,"x_max":1128,"o":"m 556 -357 l 492 -357 l 585 -107 l 761 -107 l 556 -357 m 681 1042 l 1033 1042 l 1033 990 l 910 960 l 532 604 l 964 82 l 1128 51 l 1128 0 l 836 0 l 408 525 l 408 82 l 547 51 l 547 0 l 125 0 l 125 51 l 263 83 l 263 957 l 125 990 l 125 1042 l 547 1042 l 547 990 l 408 958 l 408 553 l 789 964 l 681 990 l 681 1042 z "},"ķ":{"ha":897,"x_min":83,"x_max":883,"o":"m 389 -357 l 325 -357 l 418 -107 l 594 -107 l 389 -357 m 83 1042 l 331 1042 l 331 388 l 557 596 l 457 621 l 457 672 l 776 672 l 776 621 l 654 592 l 444 422 l 747 85 l 883 51 l 883 0 l 649 0 l 331 363 l 331 85 l 436 51 l 436 0 l 83 0 l 83 51 l 199 83 l 199 972 l 83 992 l 83 1042 z "},"Ĺ":{"ha":975,"x_min":125,"x_max":892,"o":"m 125 1042 l 547 1042 l 547 990 l 410 958 l 410 61 l 765 61 l 819 263 l 892 263 l 892 0 l 125 0 l 125 51 l 264 83 l 264 957 l 125 990 l 125 1042 m 194 1113 l 150 1113 l 333 1315 l 519 1315 l 194 1113 z "},"ĺ":{"ha":478,"x_min":68,"x_max":438,"o":"m 92 1042 l 324 1042 l 324 82 l 436 51 l 436 0 l 83 0 l 83 51 l 192 81 l 192 975 l 92 992 l 92 1042 m 113 1111 l 68 1111 l 251 1314 l 438 1314 l 113 1111 z "},"Ļ":{"ha":975,"x_min":125,"x_max":892,"o":"m 413 -357 l 349 -357 l 442 -107 l 618 -107 l 413 -357 m 125 1042 l 547 1042 l 547 990 l 410 958 l 410 61 l 765 61 l 819 263 l 892 263 l 892 0 l 125 0 l 125 51 l 264 83 l 264 957 l 125 990 l 125 1042 z "},"ļ":{"ha":478,"x_min":83,"x_max":436,"o":"m 92 1042 l 324 1042 l 324 82 l 436 51 l 436 0 l 83 0 l 83 51 l 192 81 l 192 975 l 92 992 l 92 1042 m 168 -357 l 104 -357 l 197 -107 l 374 -107 l 168 -357 z "},"Ľ":{"ha":975,"x_min":125,"x_max":910,"o":"m 704 793 l 640 793 l 733 1043 l 910 1043 l 704 793 m 125 1042 l 547 1042 l 547 990 l 410 958 l 410 61 l 765 61 l 819 263 l 892 263 l 892 0 l 125 0 l 125 51 l 264 83 l 264 957 l 125 990 l 125 1042 z "},"ľ":{"ha":674,"x_min":83,"x_max":667,"o":"m 461 793 l 397 793 l 490 1043 l 667 1043 l 461 793 m 92 1042 l 324 1042 l 324 82 l 436 51 l 436 0 l 83 0 l 83 51 l 192 81 l 192 975 l 92 992 l 92 1042 z "},"Ŀ":{"ha":975,"x_min":125,"x_max":892,"o":"m 125 1042 l 547 1042 l 547 990 l 410 958 l 410 61 l 765 61 l 819 263 l 892 263 l 892 0 l 125 0 l 125 51 l 264 83 l 264 957 l 125 990 l 125 1042 m 578 582 q 578 601 578 582 q 603 647 578 619 q 669 674 628 674 q 735 648 710 674 q 761 583 761 622 q 735 517 761 543 q 670 492 710 492 q 604 518 631 492 q 578 582 578 544 z "},"ŀ":{"ha":578,"x_min":83,"x_max":569,"o":"m 92 1042 l 324 1042 l 324 82 l 436 51 l 436 0 l 83 0 l 83 51 l 192 81 l 192 975 l 92 992 l 92 1042 m 386 440 q 386 459 386 440 q 411 505 386 478 q 477 532 436 532 q 544 506 518 532 q 569 441 569 481 q 544 376 569 401 q 478 350 518 350 q 413 376 439 350 q 386 440 386 403 z "},"Ł":{"ha":788,"x_min":29,"x_max":835,"o":"m 68 1042 l 490 1042 l 490 990 l 353 958 l 353 550 l 503 700 l 547 656 l 353 460 l 353 61 l 708 61 l 763 263 l 835 263 l 835 0 l 68 0 l 68 51 l 207 83 l 207 314 l 75 182 l 29 226 l 207 404 l 207 957 l 68 990 l 68 1042 z "},"ł":{"ha":367,"x_min":15,"x_max":533,"o":"m 111 1042 l 343 1042 l 343 554 l 489 700 l 533 656 l 343 464 l 343 82 l 456 51 l 456 0 l 103 0 l 103 51 l 211 81 l 211 332 l 61 182 l 15 226 l 211 422 l 211 975 l 111 992 l 111 1042 z "},"Ń":{"ha":1332,"x_min":125,"x_max":1207,"o":"m 865 1042 l 1207 1042 l 1207 990 l 1071 956 l 1071 0 l 974 0 l 324 953 l 324 82 l 460 51 l 460 0 l 125 0 l 125 51 l 254 82 l 254 954 l 125 990 l 125 1042 l 435 1042 l 1001 219 l 1001 954 l 865 990 l 865 1042 m 524 1113 l 479 1113 l 663 1315 l 849 1315 l 524 1113 z "},"ń":{"ha":956,"x_min":93,"x_max":893,"o":"m 93 675 l 318 675 l 318 479 q 565 685 374 685 q 732 616 678 685 q 786 426 786 547 l 786 82 l 893 51 l 893 0 l 564 0 l 564 51 l 657 79 l 657 410 q 627 571 657 522 q 533 619 597 619 q 381 526 435 619 q 328 244 328 432 l 328 79 l 425 51 l 425 0 l 93 0 l 93 51 l 196 81 l 196 606 l 93 625 l 93 675 m 338 839 l 293 839 l 476 1042 l 663 1042 l 338 839 z "},"Ņ":{"ha":1332,"x_min":125,"x_max":1207,"o":"m 590 -357 l 526 -357 l 619 -107 l 796 -107 l 590 -357 m 865 1042 l 1207 1042 l 1207 990 l 1071 956 l 1071 0 l 974 0 l 324 953 l 324 82 l 460 51 l 460 0 l 125 0 l 125 51 l 254 82 l 254 954 l 125 990 l 125 1042 l 435 1042 l 1001 219 l 1001 954 l 865 990 l 865 1042 z "},"ņ":{"ha":956,"x_min":93,"x_max":893,"o":"m 93 675 l 318 675 l 318 479 q 565 685 374 685 q 732 616 678 685 q 786 426 786 547 l 786 82 l 893 51 l 893 0 l 564 0 l 564 51 l 657 79 l 657 410 q 627 571 657 522 q 533 619 597 619 q 381 526 435 619 q 328 244 328 432 l 328 79 l 425 51 l 425 0 l 93 0 l 93 51 l 196 81 l 196 606 l 93 625 l 93 675 m 407 -357 l 343 -357 l 436 -107 l 613 -107 l 407 -357 z "},"Ň":{"ha":1332,"x_min":125,"x_max":1207,"o":"m 865 1042 l 1207 1042 l 1207 990 l 1071 956 l 1071 0 l 974 0 l 324 953 l 324 82 l 460 51 l 460 0 l 125 0 l 125 51 l 254 82 l 254 954 l 125 990 l 125 1042 l 435 1042 l 1001 219 l 1001 954 l 865 990 l 865 1042 m 671 1113 l 460 1339 l 514 1339 l 694 1238 l 869 1339 l 925 1339 l 717 1113 l 671 1113 z "},"ň":{"ha":956,"x_min":93,"x_max":893,"o":"m 93 675 l 318 675 l 318 479 q 565 685 374 685 q 732 616 678 685 q 786 426 786 547 l 786 82 l 893 51 l 893 0 l 564 0 l 564 51 l 657 79 l 657 410 q 627 571 657 522 q 533 619 597 619 q 381 526 435 619 q 328 244 328 432 l 328 79 l 425 51 l 425 0 l 93 0 l 93 51 l 196 81 l 196 606 l 93 625 l 93 675 m 456 815 l 244 1042 l 299 1042 l 479 940 l 654 1042 l 710 1042 l 501 815 l 456 815 z "},"ŉ":{"ha":956,"x_min":93,"x_max":893,"o":"m 93 675 l 318 675 l 318 479 q 565 685 374 685 q 732 616 678 685 q 786 426 786 547 l 786 82 l 893 51 l 893 0 l 564 0 l 564 51 l 657 79 l 657 410 q 627 571 657 522 q 533 619 597 619 q 381 526 435 619 q 328 244 328 432 l 328 79 l 425 51 l 425 0 l 93 0 l 93 51 l 196 81 l 196 606 l 93 625 l 93 675 m 438 793 l 374 793 l 467 1043 l 643 1043 l 438 793 z "},"Ō":{"ha":1156,"x_min":83,"x_max":1072,"o":"m 914 522 q 914 643 914 522 q 827 888 914 764 q 577 1011 740 1011 q 329 885 414 1011 q 244 521 244 758 q 327 156 244 283 q 572 29 410 29 q 824 154 735 29 q 914 522 914 279 m 83 520 q 83 645 83 520 q 222 919 83 771 q 580 1067 361 1067 q 935 915 799 1067 q 1072 518 1072 764 q 936 123 1072 272 q 576 -26 800 -26 q 218 122 353 -26 q 83 520 83 269 m 381 1301 l 782 1301 l 782 1199 l 381 1199 l 381 1301 z "},"ō":{"ha":808,"x_min":65,"x_max":742,"o":"m 603 332 q 603 407 603 332 q 557 555 603 482 q 408 628 511 628 q 255 558 304 628 q 206 333 206 488 q 254 112 206 179 q 403 44 303 44 q 553 113 504 44 q 603 332 603 182 m 65 332 q 65 414 65 332 q 158 591 65 496 q 405 686 251 686 q 650 593 558 686 q 742 333 742 500 q 650 77 742 167 q 403 -12 558 -12 q 157 78 249 -12 q 65 332 65 168 m 203 1042 l 604 1042 l 604 939 l 203 939 l 203 1042 z "},"Ŏ":{"ha":1156,"x_min":83,"x_max":1072,"o":"m 914 522 q 914 643 914 522 q 827 888 914 764 q 577 1011 740 1011 q 329 885 414 1011 q 244 521 244 758 q 327 156 244 283 q 572 29 410 29 q 824 154 735 29 q 914 522 914 279 m 83 520 q 83 645 83 520 q 222 919 83 771 q 580 1067 361 1067 q 935 915 799 1067 q 1072 518 1072 764 q 936 123 1072 272 q 576 -26 800 -26 q 218 122 353 -26 q 83 520 83 269 m 774 1329 l 815 1329 q 746 1169 815 1226 q 581 1113 676 1113 q 415 1169 485 1113 q 344 1329 344 1226 l 389 1329 q 447 1242 389 1274 q 581 1210 504 1210 q 716 1242 658 1210 q 774 1329 774 1274 z "},"ŏ":{"ha":808,"x_min":65,"x_max":742,"o":"m 603 332 q 603 407 603 332 q 557 555 603 482 q 408 628 511 628 q 255 558 304 628 q 206 333 206 488 q 254 112 206 179 q 403 44 303 44 q 553 113 504 44 q 603 332 603 182 m 65 332 q 65 414 65 332 q 158 591 65 496 q 405 686 251 686 q 650 593 558 686 q 742 333 742 500 q 650 77 742 167 q 403 -12 558 -12 q 157 78 249 -12 q 65 332 65 168 m 597 1042 l 639 1042 q 569 882 639 939 q 404 825 500 825 q 238 882 308 825 q 168 1042 168 939 l 213 1042 q 270 954 213 986 q 405 922 328 922 q 540 954 482 922 q 597 1042 597 986 z "},"Ő":{"ha":1156,"x_min":83,"x_max":1072,"o":"m 914 522 q 914 643 914 522 q 827 888 914 764 q 577 1011 740 1011 q 329 885 414 1011 q 244 521 244 758 q 327 156 244 283 q 572 29 410 29 q 824 154 735 29 q 914 522 914 279 m 83 520 q 83 645 83 520 q 222 919 83 771 q 580 1067 361 1067 q 935 915 799 1067 q 1072 518 1072 764 q 936 123 1072 272 q 576 -26 800 -26 q 218 122 353 -26 q 83 520 83 269 m 592 1113 l 546 1113 l 717 1357 l 901 1357 l 592 1113 m 343 1113 l 297 1113 l 468 1357 l 653 1357 l 343 1113 z "},"ő":{"ha":808,"x_min":65,"x_max":742,"o":"m 603 332 q 603 407 603 332 q 557 555 603 482 q 408 628 511 628 q 255 558 304 628 q 206 333 206 488 q 254 112 206 179 q 403 44 303 44 q 553 113 504 44 q 603 332 603 182 m 65 332 q 65 414 65 332 q 158 591 65 496 q 405 686 251 686 q 650 593 558 686 q 742 333 742 500 q 650 77 742 167 q 403 -12 558 -12 q 157 78 249 -12 q 65 332 65 168 m 411 796 l 365 796 l 536 1040 l 721 1040 l 411 796 m 163 796 l 117 796 l 288 1040 l 472 1040 l 163 796 z "},"Œ":{"ha":1592,"x_min":99,"x_max":1536,"o":"m 593 1042 l 1510 1042 l 1510 793 l 1438 793 l 1383 982 l 1028 982 l 1028 567 l 1296 567 l 1333 688 l 1385 688 l 1385 400 l 1333 400 l 1296 506 l 1028 506 l 1028 60 l 1408 60 l 1463 247 l 1536 247 l 1536 0 l 592 0 q 232 136 365 0 q 99 520 99 272 q 235 905 99 768 q 593 1042 372 1042 m 594 986 q 260 521 260 986 q 589 56 260 56 q 833 168 751 56 q 914 524 914 281 l 914 547 q 830 880 908 774 q 594 986 751 986 z "},"œ":{"ha":1240,"x_min":79,"x_max":1178,"o":"m 1168 235 l 1168 76 q 1060 10 1132 35 q 899 -14 989 -14 q 755 16 810 -14 q 656 106 700 46 q 408 -12 560 -12 q 167 77 256 -12 q 79 332 79 167 q 169 592 79 497 q 409 686 258 686 q 657 560 560 686 q 759 655 707 624 q 888 686 811 686 q 1021 663 965 686 q 1105 606 1076 639 q 1151 525 1133 572 q 1178 371 1178 456 l 714 371 q 761 99 714 163 q 900 39 806 39 q 984 51 943 39 q 1045 74 1025 63 q 1065 88 1065 85 l 1117 235 l 1168 235 m 603 347 q 557 558 600 489 q 413 628 514 628 q 266 558 313 628 q 219 333 219 489 q 265 111 219 178 q 409 44 310 44 q 554 109 508 44 q 603 321 600 174 l 603 347 m 1057 417 q 1011 579 1057 526 q 885 632 965 632 q 761 569 806 632 q 717 417 717 506 l 1057 417 z "},"Ŕ":{"ha":1176,"x_min":125,"x_max":1107,"o":"m 1107 0 l 826 0 l 483 464 l 406 464 l 406 83 l 547 51 l 547 0 l 125 0 l 125 51 l 260 83 l 260 958 l 125 990 l 125 1042 l 543 1042 q 860 975 764 1042 q 956 761 956 908 q 869 542 956 614 q 643 471 783 471 l 956 82 l 1107 51 l 1107 0 m 406 986 l 406 518 l 561 518 q 737 574 679 518 q 794 752 794 629 q 738 931 794 875 q 561 986 681 986 l 406 986 m 394 1113 l 350 1113 l 533 1315 l 719 1315 l 394 1113 z "},"ŕ":{"ha":679,"x_min":83,"x_max":665,"o":"m 83 674 l 314 674 l 314 476 q 400 616 342 560 q 542 672 458 672 q 665 635 593 672 l 665 468 l 611 468 l 568 582 q 508 596 542 596 q 385 524 447 596 q 324 371 324 453 l 324 81 l 426 51 l 426 0 l 86 0 l 86 51 l 192 81 l 192 604 l 83 624 l 83 674 m 199 839 l 154 839 l 338 1042 l 524 1042 l 199 839 z "},"Ŗ":{"ha":1176,"x_min":125,"x_max":1107,"o":"m 544 -357 l 481 -357 l 574 -107 l 750 -107 l 544 -357 m 1107 0 l 826 0 l 483 464 l 406 464 l 406 83 l 547 51 l 547 0 l 125 0 l 125 51 l 260 83 l 260 958 l 125 990 l 125 1042 l 543 1042 q 860 975 764 1042 q 956 761 956 908 q 869 542 956 614 q 643 471 783 471 l 956 82 l 1107 51 l 1107 0 m 406 986 l 406 518 l 561 518 q 737 574 679 518 q 794 752 794 629 q 738 931 794 875 q 561 986 681 986 l 406 986 z "},"ŗ":{"ha":679,"x_min":83,"x_max":665,"o":"m 83 674 l 314 674 l 314 476 q 400 616 342 560 q 542 672 458 672 q 665 635 593 672 l 665 468 l 611 468 l 568 582 q 508 596 542 596 q 385 524 447 596 q 324 371 324 453 l 324 81 l 426 51 l 426 0 l 86 0 l 86 51 l 192 81 l 192 604 l 83 624 l 83 674 m 176 -357 l 113 -357 l 206 -107 l 382 -107 l 176 -357 z "},"Ř":{"ha":1176,"x_min":125,"x_max":1107,"o":"m 1107 0 l 826 0 l 483 464 l 406 464 l 406 83 l 547 51 l 547 0 l 125 0 l 125 51 l 260 83 l 260 958 l 125 990 l 125 1042 l 543 1042 q 860 975 764 1042 q 956 761 956 908 q 869 542 956 614 q 643 471 783 471 l 956 82 l 1107 51 l 1107 0 m 406 986 l 406 518 l 561 518 q 737 574 679 518 q 794 752 794 629 q 738 931 794 875 q 561 986 681 986 l 406 986 m 517 1113 l 306 1339 l 360 1339 l 540 1238 l 715 1339 l 771 1339 l 563 1113 l 517 1113 z "},"ř":{"ha":679,"x_min":83,"x_max":665,"o":"m 83 674 l 314 674 l 314 476 q 400 616 342 560 q 542 672 458 672 q 665 635 593 672 l 665 468 l 611 468 l 568 582 q 508 596 542 596 q 385 524 447 596 q 324 371 324 453 l 324 81 l 426 51 l 426 0 l 86 0 l 86 51 l 192 81 l 192 604 l 83 624 l 83 674 m 318 815 l 107 1042 l 161 1042 l 342 940 l 517 1042 l 572 1042 l 364 815 l 318 815 z "},"Ś":{"ha":839,"x_min":97,"x_max":808,"o":"m 426 -12 q 104 88 265 -12 l 104 317 l 185 317 l 244 92 q 422 42 324 42 q 572 75 496 42 q 639 128 613 93 q 668 210 665 163 q 553 394 664 321 q 440 453 511 421 q 349 496 369 486 q 97 776 97 599 q 183 971 97 888 q 429 1054 269 1054 q 599 1028 511 1054 q 744 947 686 1003 l 744 744 l 674 744 l 610 956 q 443 997 532 997 q 294 955 354 997 q 235 838 235 913 q 308 697 235 750 q 440 620 371 651 q 526 581 510 589 q 808 272 808 461 q 744 111 808 178 q 426 -12 628 -12 m 290 1113 l 246 1113 l 429 1315 l 615 1315 l 290 1113 z "},"ś":{"ha":653,"x_min":78,"x_max":594,"o":"m 594 199 q 525 49 594 106 q 312 -7 456 -7 q 88 69 168 -7 l 88 231 l 142 231 l 182 94 q 338 46 231 46 q 451 79 413 46 q 490 160 490 113 q 450 233 490 207 q 291 298 410 260 q 125 378 172 336 q 78 502 78 419 q 146 639 78 585 q 346 693 214 693 q 558 631 478 693 l 558 471 l 504 471 l 461 604 q 339 640 415 640 q 188 532 188 640 q 231 462 188 492 q 392 396 275 432 q 551 315 508 360 q 594 199 594 269 m 186 839 l 142 839 l 325 1042 l 511 1042 l 186 839 z "},"Ŝ":{"ha":839,"x_min":97,"x_max":808,"o":"m 426 -12 q 104 88 265 -12 l 104 317 l 185 317 l 244 92 q 422 42 324 42 q 572 75 496 42 q 639 128 613 93 q 668 210 665 163 q 553 394 664 321 q 440 453 511 421 q 349 496 369 486 q 97 776 97 599 q 183 971 97 888 q 429 1054 269 1054 q 599 1028 511 1054 q 744 947 686 1003 l 744 744 l 674 744 l 610 956 q 443 997 532 997 q 294 955 354 997 q 235 838 235 913 q 308 697 235 750 q 440 620 371 651 q 526 581 510 589 q 808 272 808 461 q 744 111 808 178 q 426 -12 628 -12 m 463 1340 l 678 1113 l 622 1113 l 439 1217 l 267 1113 l 213 1113 l 415 1340 l 463 1340 z "},"ŝ":{"ha":653,"x_min":78,"x_max":594,"o":"m 594 199 q 525 49 594 106 q 312 -7 456 -7 q 88 69 168 -7 l 88 231 l 142 231 l 182 94 q 338 46 231 46 q 451 79 413 46 q 490 160 490 113 q 450 233 490 207 q 291 298 410 260 q 125 378 172 336 q 78 502 78 419 q 146 639 78 585 q 346 693 214 693 q 558 631 478 693 l 558 471 l 504 471 l 461 604 q 339 640 415 640 q 188 532 188 640 q 231 462 188 492 q 392 396 275 432 q 551 315 508 360 q 594 199 594 269 m 344 1042 l 560 814 l 504 814 l 321 918 l 149 814 l 94 814 l 297 1042 l 344 1042 z "},"Ş":{"ha":839,"x_min":97,"x_max":808,"o":"m 365 -8 q 104 88 226 10 l 104 317 l 185 317 l 244 92 q 422 42 324 42 q 572 75 496 42 q 639 128 613 93 q 668 210 665 163 q 553 394 664 321 q 440 453 511 421 q 349 496 369 486 q 97 776 97 599 q 183 971 97 888 q 429 1054 269 1054 q 599 1028 511 1054 q 744 947 686 1003 l 744 744 l 674 744 l 610 956 q 443 997 532 997 q 294 955 354 997 q 235 838 235 913 q 308 697 235 750 q 440 620 371 651 q 526 581 510 589 q 808 272 808 461 q 744 111 808 178 q 426 -12 628 -12 l 424 -12 l 424 -60 q 505 -89 472 -62 q 538 -164 538 -115 q 314 -328 538 -279 l 300 -294 q 333 -278 306 -292 q 374 -257 361 -265 q 408 -233 388 -249 q 446 -164 446 -207 q 365 -100 446 -114 l 365 -8 z "},"ş":{"ha":653,"x_min":78,"x_max":594,"o":"m 392 396 q 450 378 392 396 q 551 315 508 360 q 594 190 594 269 q 533 55 594 110 q 353 -6 471 0 l 353 -60 q 434 -89 401 -62 q 467 -164 467 -115 q 243 -328 467 -279 l 229 -294 q 263 -278 235 -292 q 303 -257 290 -265 q 336 -233 317 -249 q 375 -164 375 -207 q 294 -100 375 -114 l 294 -6 q 88 69 154 3 l 88 231 l 142 231 l 182 94 q 338 46 231 46 q 451 79 413 46 q 490 160 490 113 q 450 233 490 207 q 291 298 410 260 q 125 378 172 336 q 78 502 78 419 q 146 639 78 585 q 346 693 214 693 q 558 631 478 693 l 558 471 l 504 471 l 461 604 q 339 640 415 640 q 188 532 188 640 q 231 462 188 492 q 392 396 275 432 z "},"Š":{"ha":801,"x_min":60,"x_max":771,"o":"m 389 -12 q 67 88 228 -12 l 67 317 l 147 317 l 207 92 q 385 42 286 42 q 536 75 458 42 q 601 128 575 93 q 631 210 628 163 q 515 394 626 321 q 403 453 474 421 q 311 496 332 486 q 60 776 60 599 q 146 971 60 888 q 392 1054 232 1054 q 561 1028 474 1054 q 707 947 649 1003 l 707 744 l 636 744 l 572 956 q 406 997 494 997 q 257 955 317 997 q 197 838 197 913 q 269 697 197 750 q 403 620 333 651 q 489 581 472 589 q 771 272 771 461 q 707 111 771 178 q 389 -12 590 -12 m 389 1113 l 178 1339 l 232 1339 l 413 1238 l 588 1339 l 643 1339 l 435 1113 l 389 1113 z "},"š":{"ha":653,"x_min":78,"x_max":608,"o":"m 608 199 q 539 49 608 106 q 326 -7 469 -7 q 101 69 182 -7 l 101 231 l 156 231 l 196 94 q 351 46 244 46 q 465 79 426 46 q 504 160 504 113 q 464 233 504 207 q 305 298 424 260 q 139 378 186 336 q 92 502 92 419 q 160 639 92 585 q 360 693 228 693 q 572 631 492 693 l 572 471 l 518 471 l 475 604 q 353 640 429 640 q 201 532 201 640 q 245 462 201 492 q 406 396 289 432 q 565 315 522 360 q 608 199 608 269 m 289 815 l 78 1042 l 132 1042 l 313 940 l 488 1042 l 543 1042 l 335 815 l 289 815 z "},"Ţ":{"ha":994,"x_min":42,"x_max":953,"o":"m 422 -357 l 358 -357 l 451 -107 l 628 -107 l 422 -357 m 288 0 l 288 51 l 422 83 l 422 982 l 168 982 l 114 779 l 42 779 l 42 1042 l 953 1042 l 953 779 l 881 779 l 826 982 l 568 982 l 568 82 l 710 51 l 710 0 l 288 0 z "},"ţ":{"ha":493,"x_min":28,"x_max":479,"o":"m 276 674 l 479 674 l 479 615 l 276 615 l 276 185 q 296 72 276 103 q 358 40 315 40 q 475 61 401 40 l 475 10 q 317 -17 378 -17 q 147 188 147 -17 l 147 615 l 28 615 l 28 674 l 147 674 l 147 817 l 276 890 l 276 674 m 206 -357 l 142 -357 l 235 -107 l 411 -107 l 206 -357 z "},"Ť":{"ha":994,"x_min":42,"x_max":953,"o":"m 288 0 l 288 51 l 422 83 l 422 982 l 168 982 l 114 779 l 42 779 l 42 1042 l 953 1042 l 953 779 l 881 779 l 826 982 l 568 982 l 568 82 l 710 51 l 710 0 l 288 0 m 475 1113 l 264 1339 l 318 1339 l 499 1238 l 674 1339 l 729 1339 l 521 1113 l 475 1113 z "},"ť":{"ha":550,"x_min":28,"x_max":613,"o":"m 407 793 l 343 793 l 436 1043 l 613 1043 l 407 793 m 276 674 l 479 674 l 479 615 l 276 615 l 276 185 q 296 72 276 103 q 358 40 315 40 q 475 61 401 40 l 475 10 q 317 -17 378 -17 q 147 188 147 -17 l 147 615 l 28 615 l 28 674 l 147 674 l 147 817 l 276 890 l 276 674 z "},"Ŧ":{"ha":994,"x_min":42,"x_max":953,"o":"m 164 503 l 164 563 l 422 563 l 422 982 l 168 982 l 114 779 l 42 779 l 42 1042 l 953 1042 l 953 779 l 881 779 l 826 982 l 568 982 l 568 563 l 850 563 l 850 503 l 568 503 l 568 82 l 710 51 l 710 0 l 288 0 l 288 51 l 422 83 l 422 503 l 164 503 z "},"Ũ":{"ha":1236,"x_min":83,"x_max":1153,"o":"m 807 1042 l 1153 1042 l 1153 992 l 1022 957 l 1022 400 q 619 -21 1022 -21 q 318 90 414 -21 q 222 418 222 200 l 222 957 l 83 990 l 83 1042 l 506 1042 l 506 990 l 368 958 l 368 392 q 439 127 368 211 q 650 43 510 43 q 946 407 946 43 l 946 957 l 807 992 l 807 1042 m 374 1175 q 456 1270 422 1244 q 538 1296 490 1296 q 649 1251 586 1296 q 743 1207 713 1207 q 847 1285 794 1207 l 882 1260 q 714 1113 793 1113 q 608 1157 678 1113 q 492 1201 539 1201 q 383 1121 446 1201 l 353 1146 l 374 1175 z "},"ũ":{"ha":882,"x_min":58,"x_max":858,"o":"m 58 674 l 289 674 l 289 258 q 317 103 289 149 q 411 57 346 57 q 564 149 508 57 q 619 429 619 240 l 619 604 l 518 622 l 518 674 l 749 674 l 749 83 l 858 51 l 858 0 l 628 0 l 628 188 q 527 37 592 89 q 386 -15 463 -15 q 158 235 158 -15 l 158 604 l 58 622 l 58 674 m 197 921 q 280 1016 246 990 q 362 1042 314 1042 q 473 997 410 1042 q 567 953 536 953 q 671 1031 618 953 l 706 1006 q 538 858 617 858 q 432 903 503 858 q 315 947 361 947 q 207 867 269 947 l 176 892 l 197 921 z "},"Ū":{"ha":1236,"x_min":83,"x_max":1153,"o":"m 807 1042 l 1153 1042 l 1153 992 l 1022 957 l 1022 400 q 619 -21 1022 -21 q 318 90 414 -21 q 222 418 222 200 l 222 957 l 83 990 l 83 1042 l 506 1042 l 506 990 l 368 958 l 368 392 q 439 127 368 211 q 650 43 510 43 q 946 407 946 43 l 946 957 l 807 992 l 807 1042 m 417 1299 l 818 1299 l 818 1196 l 417 1196 l 417 1299 z "},"ū":{"ha":882,"x_min":58,"x_max":858,"o":"m 58 674 l 289 674 l 289 258 q 317 103 289 149 q 411 57 346 57 q 564 149 508 57 q 619 429 619 240 l 619 604 l 518 622 l 518 674 l 749 674 l 749 83 l 858 51 l 858 0 l 628 0 l 628 188 q 527 37 592 89 q 386 -15 463 -15 q 158 235 158 -15 l 158 604 l 58 622 l 58 674 m 240 957 l 642 957 l 642 854 l 240 854 l 240 957 z "},"Ŭ":{"ha":1236,"x_min":83,"x_max":1153,"o":"m 807 1042 l 1153 1042 l 1153 992 l 1022 957 l 1022 400 q 619 -21 1022 -21 q 318 90 414 -21 q 222 418 222 200 l 222 957 l 83 990 l 83 1042 l 506 1042 l 506 990 l 368 958 l 368 392 q 439 127 368 211 q 650 43 510 43 q 946 407 946 43 l 946 957 l 807 992 l 807 1042 m 831 1329 l 872 1329 q 803 1169 872 1226 q 638 1113 733 1113 q 472 1169 542 1113 q 401 1329 401 1226 l 446 1329 q 503 1242 446 1274 q 638 1210 561 1210 q 773 1242 715 1210 q 831 1329 831 1274 z "},"ŭ":{"ha":882,"x_min":58,"x_max":858,"o":"m 58 674 l 289 674 l 289 258 q 317 103 289 149 q 411 57 346 57 q 564 149 508 57 q 619 429 619 240 l 619 604 l 518 622 l 518 674 l 749 674 l 749 83 l 858 51 l 858 0 l 628 0 l 628 188 q 527 37 592 89 q 386 -15 463 -15 q 158 235 158 -15 l 158 604 l 58 622 l 58 674 m 635 1042 l 676 1042 q 607 882 676 939 q 442 825 538 825 q 276 882 346 825 q 206 1042 206 939 l 250 1042 q 308 954 250 986 q 442 922 365 922 q 577 954 519 922 q 635 1042 635 986 z "},"Ů":{"ha":1236,"x_min":83,"x_max":1153,"o":"m 807 1042 l 1153 1042 l 1153 992 l 1022 957 l 1022 400 q 619 -21 1022 -21 q 318 90 414 -21 q 222 418 222 200 l 222 957 l 83 990 l 83 1042 l 506 1042 l 506 990 l 368 958 l 368 392 q 439 127 368 211 q 650 43 510 43 q 946 407 946 43 l 946 957 l 807 992 l 807 1042 m 750 1272 q 750 1297 750 1272 q 724 1356 750 1321 q 655 1392 699 1392 q 586 1356 611 1392 q 561 1272 561 1321 q 585 1189 561 1224 q 654 1154 610 1154 q 724 1189 699 1154 q 750 1272 750 1224 m 490 1272 q 490 1305 490 1272 q 534 1385 490 1338 q 656 1433 578 1433 q 775 1386 733 1433 q 817 1274 817 1339 q 773 1161 817 1210 q 653 1113 729 1113 q 533 1160 576 1113 q 490 1272 490 1207 z "},"ů":{"ha":882,"x_min":58,"x_max":858,"o":"m 58 674 l 289 674 l 289 258 q 317 103 289 149 q 411 57 346 57 q 564 149 508 57 q 619 429 619 240 l 619 604 l 518 622 l 518 674 l 749 674 l 749 83 l 858 51 l 858 0 l 628 0 l 628 188 q 527 37 592 89 q 386 -15 463 -15 q 158 235 158 -15 l 158 604 l 58 622 l 58 674 m 538 946 q 538 970 538 946 q 512 1030 538 994 q 442 1065 486 1065 q 374 1030 399 1065 q 349 946 349 994 q 373 863 349 897 q 442 828 397 828 q 512 863 486 828 q 538 946 538 897 m 278 946 q 278 978 278 946 q 322 1059 278 1011 q 443 1107 365 1107 q 563 1060 521 1107 q 604 948 604 1013 q 560 835 604 883 q 440 786 517 786 q 321 833 364 786 q 278 946 278 881 z "},"Ű":{"ha":1236,"x_min":83,"x_max":1153,"o":"m 807 1042 l 1153 1042 l 1153 992 l 1022 957 l 1022 400 q 619 -21 1022 -21 q 318 90 414 -21 q 222 418 222 200 l 222 957 l 83 990 l 83 1042 l 506 1042 l 506 990 l 368 958 l 368 392 q 439 127 368 211 q 650 43 510 43 q 946 407 946 43 l 946 957 l 807 992 l 807 1042 m 636 1113 l 590 1113 l 761 1357 l 946 1357 l 636 1113 m 388 1113 l 342 1113 l 513 1357 l 697 1357 l 388 1113 z "},"ű":{"ha":882,"x_min":58,"x_max":858,"o":"m 58 674 l 289 674 l 289 258 q 317 103 289 149 q 411 57 346 57 q 564 149 508 57 q 619 429 619 240 l 619 604 l 518 622 l 518 674 l 749 674 l 749 83 l 858 51 l 858 0 l 628 0 l 628 188 q 527 37 592 89 q 386 -15 463 -15 q 158 235 158 -15 l 158 604 l 58 622 l 58 674 m 433 796 l 388 796 l 558 1040 l 743 1040 l 433 796 m 185 796 l 139 796 l 310 1040 l 494 1040 l 185 796 z "},"Ų":{"ha":1236,"x_min":83,"x_max":1153,"o":"m 539 -149 q 622 -21 539 -62 l 619 -21 q 318 90 414 -21 q 222 418 222 200 l 222 957 l 83 990 l 83 1042 l 506 1042 l 506 990 l 368 958 l 368 392 q 439 127 368 211 q 650 43 510 43 q 946 407 946 43 l 946 957 l 807 992 l 807 1042 l 1153 1042 l 1153 992 l 1022 957 l 1022 400 q 700 -15 1022 25 q 638 -146 638 -65 q 669 -234 638 -199 q 764 -271 701 -269 l 772 -315 q 601 -265 663 -315 q 539 -149 539 -215 z "},"ų":{"ha":882,"x_min":58,"x_max":858,"o":"m 858 -315 q 687 -265 749 -315 q 625 -155 625 -215 q 664 -53 625 -94 q 775 0 703 -12 l 628 0 l 628 188 q 527 37 592 89 q 386 -15 463 -15 q 158 235 158 -15 l 158 604 l 58 622 l 58 674 l 289 674 l 289 258 q 317 103 289 149 q 411 57 346 57 q 564 149 508 57 q 619 429 619 240 l 619 604 l 518 622 l 518 674 l 749 674 l 749 83 l 858 51 l 858 0 l 815 0 q 748 -58 772 -17 q 724 -149 724 -99 q 756 -234 724 -199 q 850 -271 788 -269 l 858 -315 z "},"Ŵ":{"ha":1788,"x_min":56,"x_max":1732,"o":"m 1392 1042 l 1732 1042 l 1732 992 l 1611 956 l 1276 0 l 1193 0 l 890 860 l 593 0 l 510 0 l 183 958 l 56 990 l 56 1042 l 478 1042 l 478 990 l 338 960 l 593 196 l 883 1042 l 969 1042 l 1275 183 l 1514 958 l 1392 992 l 1392 1042 m 926 1340 l 1142 1113 l 1086 1113 l 903 1217 l 731 1113 l 676 1113 l 879 1340 l 926 1340 z "},"ŵ":{"ha":1311,"x_min":42,"x_max":1269,"o":"m 979 675 l 1269 675 l 1269 622 l 1160 603 l 938 0 l 853 0 l 660 529 l 471 0 l 381 0 l 160 601 l 42 622 l 42 674 l 394 674 l 394 622 l 299 603 l 460 143 l 647 676 l 738 676 l 933 138 l 1081 604 l 979 622 l 979 675 m 710 1042 l 925 814 l 869 814 l 686 918 l 514 814 l 460 814 l 663 1042 l 710 1042 z "},"Ŷ":{"ha":1110,"x_min":42,"x_max":1068,"o":"m 42 1042 l 464 1042 l 464 990 l 342 961 l 606 508 l 849 957 l 728 992 l 728 1042 l 1068 1042 l 1068 992 l 944 954 l 636 446 l 636 83 l 779 51 l 779 0 l 357 0 l 357 51 l 490 82 l 490 426 l 175 956 l 42 990 l 42 1042 m 633 1340 l 849 1113 l 793 1113 l 610 1217 l 438 1113 l 383 1113 l 586 1340 l 633 1340 z "},"ŷ":{"ha":843,"x_min":14,"x_max":815,"o":"m 524 675 l 815 675 l 815 622 l 706 606 l 417 -106 q 318 -290 357 -247 q 190 -333 279 -333 l 129 -333 l 129 -131 l 181 -131 l 215 -256 q 278 -233 258 -253 q 307 -201 297 -212 q 330 -162 317 -190 q 349 -118 343 -133 q 371 -62 356 -103 q 394 -3 386 -22 l 129 597 l 14 622 l 14 674 l 367 674 l 367 622 l 272 603 l 463 153 l 631 604 l 524 622 l 524 675 m 469 1042 l 685 814 l 629 814 l 446 918 l 274 814 l 219 814 l 422 1042 l 469 1042 z "},"Ÿ":{"ha":1110,"x_min":42,"x_max":1068,"o":"m 42 1042 l 464 1042 l 464 990 l 342 961 l 606 508 l 849 957 l 728 992 l 728 1042 l 1068 1042 l 1068 992 l 944 954 l 636 446 l 636 83 l 779 51 l 779 0 l 357 0 l 357 51 l 490 82 l 490 426 l 175 956 l 42 990 l 42 1042 m 351 1211 q 351 1230 351 1211 q 376 1270 351 1249 q 441 1292 400 1292 q 507 1270 482 1292 q 532 1212 532 1249 q 508 1153 532 1175 q 442 1131 485 1131 q 376 1152 400 1131 q 351 1211 351 1174 m 661 1211 q 661 1230 661 1211 q 685 1270 661 1249 q 751 1292 710 1292 q 817 1270 792 1292 q 842 1212 842 1249 q 818 1153 842 1175 q 752 1131 794 1131 q 685 1152 710 1131 q 661 1211 661 1174 z "},"Ź":{"ha":1007,"x_min":83,"x_max":924,"o":"m 108 779 l 108 1042 l 897 1042 l 897 992 l 261 68 l 799 68 l 851 263 l 924 263 l 924 0 l 83 0 l 83 51 l 715 976 l 232 976 l 181 779 l 108 779 m 374 1113 l 329 1113 l 513 1315 l 699 1315 l 374 1113 z "},"ź":{"ha":628,"x_min":28,"x_max":614,"o":"m 51 674 l 588 674 l 588 633 l 190 60 l 529 60 l 564 179 l 614 179 l 614 0 l 28 0 l 28 38 l 425 615 l 136 615 l 103 496 l 51 496 l 51 674 m 174 839 l 129 839 l 313 1042 l 499 1042 l 174 839 z "},"Ż":{"ha":1007,"x_min":83,"x_max":924,"o":"m 108 779 l 108 1042 l 897 1042 l 897 992 l 261 68 l 799 68 l 851 263 l 924 263 l 924 0 l 83 0 l 83 51 l 715 976 l 232 976 l 181 779 l 108 779 m 419 1222 q 419 1241 419 1222 q 444 1281 419 1260 q 509 1303 468 1303 q 575 1281 550 1303 q 600 1223 600 1260 q 576 1164 600 1186 q 510 1142 553 1142 q 444 1163 468 1142 q 419 1222 419 1185 z "},"ż":{"ha":628,"x_min":28,"x_max":614,"o":"m 51 674 l 588 674 l 588 633 l 190 60 l 529 60 l 564 179 l 614 179 l 614 0 l 28 0 l 28 38 l 425 615 l 136 615 l 103 496 l 51 496 l 51 674 m 228 928 q 228 947 228 928 q 252 987 228 965 q 317 1008 276 1008 q 383 987 358 1008 q 408 928 408 965 q 385 869 408 892 q 319 847 361 847 q 252 869 276 847 q 228 928 228 890 z "},"Ž":{"ha":1007,"x_min":83,"x_max":924,"o":"m 108 779 l 108 1042 l 897 1042 l 897 992 l 261 68 l 799 68 l 851 263 l 924 263 l 924 0 l 83 0 l 83 51 l 715 976 l 232 976 l 181 779 l 108 779 m 501 1113 l 290 1339 l 344 1339 l 525 1238 l 700 1339 l 756 1339 l 547 1113 l 501 1113 z "},"ž":{"ha":621,"x_min":21,"x_max":607,"o":"m 44 674 l 581 674 l 581 633 l 183 60 l 522 60 l 557 179 l 607 179 l 607 0 l 21 0 l 21 38 l 418 615 l 129 615 l 96 496 l 44 496 l 44 674 m 294 815 l 83 1042 l 138 1042 l 318 940 l 493 1042 l 549 1042 l 340 815 l 294 815 z "},"Ǽ":{"ha":1401,"x_min":69,"x_max":1360,"o":"m 69 0 l 69 51 l 193 82 l 614 1042 l 1268 1042 l 1268 793 l 1196 793 l 1142 982 l 708 982 l 878 567 l 1107 567 l 1144 688 l 1196 688 l 1196 400 l 1144 400 l 1107 506 l 910 506 l 1090 60 l 1232 60 l 1286 247 l 1360 247 l 1360 0 l 807 0 l 807 51 l 928 81 l 818 350 l 399 350 l 294 81 l 419 51 l 419 0 l 69 0 m 418 403 l 799 403 l 604 890 l 418 403 m 760 1113 l 715 1113 l 899 1315 l 1085 1315 l 760 1113 z "},"ǽ":{"ha":1214,"x_min":60,"x_max":1132,"o":"m 843 40 q 926 52 886 40 q 983 75 965 64 q 1001 89 1001 86 l 1053 236 l 1104 236 l 1104 78 q 838 -12 1025 -12 q 574 113 650 -12 q 303 -12 517 -12 q 124 35 189 -12 q 60 165 60 82 q 165 330 60 286 q 515 379 271 374 l 515 463 q 475 597 515 561 q 358 632 435 632 q 218 592 282 632 l 172 454 l 121 454 l 121 611 q 217 663 156 642 q 350 685 279 685 q 589 572 508 685 q 699 655 633 622 q 836 688 764 688 q 965 660 908 688 q 1051 592 1021 632 q 1101 499 1082 551 q 1132 329 1132 415 l 646 331 q 692 110 647 181 q 843 40 738 40 m 339 46 q 472 103 429 46 q 515 331 515 161 q 258 299 322 331 q 193 179 193 268 q 339 46 193 46 m 1006 374 q 955 560 1006 488 q 838 633 904 633 q 731 596 771 633 q 646 374 654 525 l 1006 374 m 467 839 l 422 839 l 606 1042 l 792 1042 l 467 839 z "},"Ǿ":{"ha":1156,"x_min":81,"x_max":1069,"o":"m 1069 518 q 933 123 1069 272 q 574 -26 797 -26 q 419 -4 490 -26 l 343 -196 l 268 -196 l 354 19 q 152 210 224 82 q 81 518 81 339 q 219 919 81 771 q 575 1067 358 1067 q 758 1033 675 1067 l 824 1196 l 897 1196 l 821 1004 q 1004 813 939 938 q 1069 518 1069 688 m 576 1011 q 326 885 411 1011 q 242 518 242 758 q 382 92 242 207 l 733 971 q 576 1011 664 1011 m 911 524 q 790 928 911 804 l 443 54 q 571 29 500 29 q 822 154 732 29 q 911 524 911 279 m 429 1113 l 385 1113 l 568 1315 l 754 1315 l 429 1113 z "},"ǿ":{"ha":808,"x_min":65,"x_max":742,"o":"m 742 333 q 650 77 742 167 q 404 -12 558 -12 q 310 -3 361 -12 l 261 -126 l 186 -126 l 243 19 q 65 332 65 100 q 158 591 65 496 q 406 686 251 686 q 504 674 458 686 l 547 783 l 621 783 l 568 651 q 742 333 742 564 m 406 628 q 255 558 304 628 q 206 322 206 488 q 271 90 206 156 l 481 615 q 406 628 447 628 m 403 44 q 553 113 504 44 q 603 344 603 182 q 539 576 603 507 l 332 54 q 403 44 360 44 m 258 839 l 214 839 l 397 1042 l 583 1042 l 258 839 z "},"Ș":{"ha":839,"x_min":97,"x_max":808,"o":"m 426 -12 q 104 88 265 -12 l 104 317 l 185 317 l 244 92 q 422 42 324 42 q 572 75 496 42 q 639 128 613 93 q 668 210 665 163 q 553 394 664 321 q 440 453 511 421 q 349 496 369 486 q 97 776 97 599 q 183 971 97 888 q 429 1054 269 1054 q 599 1028 511 1054 q 744 947 686 1003 l 744 744 l 674 744 l 610 956 q 443 997 532 997 q 294 955 354 997 q 235 838 235 913 q 308 697 235 750 q 440 620 371 651 q 526 581 510 589 q 808 272 808 461 q 744 111 808 178 q 426 -12 628 -12 z "},"ș":{"ha":653,"x_min":78,"x_max":594,"o":"m 594 199 q 525 49 594 106 q 312 -7 456 -7 q 88 69 168 -7 l 88 231 l 142 231 l 182 94 q 338 46 231 46 q 451 79 413 46 q 490 160 490 113 q 450 233 490 207 q 291 298 410 260 q 125 378 172 336 q 78 502 78 419 q 146 639 78 585 q 346 693 214 693 q 558 631 478 693 l 558 471 l 504 471 l 461 604 q 339 640 415 640 q 188 532 188 640 q 231 462 188 492 q 392 396 275 432 q 551 315 508 360 q 594 199 594 269 m 256 -357 l 192 -357 l 285 -107 l 461 -107 l 256 -357 z "},"Ț":{"ha":994,"x_min":42,"x_max":953,"o":"m 417 -385 l 353 -385 l 446 -135 l 622 -135 l 417 -385 m 288 0 l 288 51 l 422 83 l 422 982 l 168 982 l 114 779 l 42 779 l 42 1042 l 953 1042 l 953 779 l 881 779 l 826 982 l 568 982 l 568 82 l 710 51 l 710 0 l 288 0 z "},"ț":{"ha":493,"x_min":28,"x_max":479,"o":"m 276 674 l 479 674 l 479 615 l 276 615 l 276 185 q 296 72 276 103 q 358 40 315 40 q 475 61 401 40 l 475 10 q 317 -17 378 -17 q 147 188 147 -17 l 147 615 l 28 615 l 28 674 l 147 674 l 147 817 l 276 890 l 276 674 m 204 -357 l 140 -357 l 233 -107 l 410 -107 l 204 -357 z "},"ˆ":{"ha":781,"x_min":158,"x_max":624,"o":"m 408 1042 l 624 814 l 568 814 l 385 918 l 213 814 l 158 814 l 361 1042 l 408 1042 z "},"ˇ":{"ha":781,"x_min":158,"x_max":624,"o":"m 369 815 l 158 1042 l 213 1042 l 393 940 l 568 1042 l 624 1042 l 415 815 l 369 815 z "},"˘":{"ha":781,"x_min":154,"x_max":625,"o":"m 583 1042 l 625 1042 q 556 882 625 939 q 390 825 486 825 q 224 882 294 825 q 154 1042 154 939 l 199 1042 q 256 954 199 986 q 391 922 314 922 q 526 954 468 922 q 583 1042 583 986 z "},"˙":{"ha":783,"x_min":306,"x_max":486,"o":"m 306 969 q 306 988 306 969 q 330 1028 306 1007 q 395 1050 354 1050 q 461 1028 436 1050 q 486 970 486 1007 q 463 911 486 933 q 397 889 439 889 q 330 910 354 889 q 306 969 306 932 z "},"˚":{"ha":781,"x_min":225,"x_max":551,"o":"m 485 946 q 485 970 485 946 q 459 1030 485 994 q 390 1065 433 1065 q 321 1030 346 1065 q 296 946 296 994 q 320 863 296 897 q 389 828 344 828 q 459 863 433 828 q 485 946 485 897 m 225 946 q 225 978 225 946 q 269 1059 225 1011 q 390 1107 313 1107 q 510 1060 468 1107 q 551 948 551 1013 q 508 835 551 883 q 388 786 464 786 q 268 833 311 786 q 225 946 225 881 z "},"˛":{"ha":317,"x_min":51,"x_max":285,"o":"m 285 -315 q 113 -265 175 -315 q 51 -151 51 -215 q 105 -41 51 -86 q 253 4 158 4 q 178 -54 206 -12 q 150 -147 150 -96 q 182 -234 150 -199 q 276 -271 214 -269 l 285 -315 z "},"˜":{"ha":781,"x_min":121,"x_max":650,"o":"m 142 921 q 224 1016 190 990 q 306 1042 258 1042 q 417 997 354 1042 q 511 953 481 953 q 615 1031 563 953 l 650 1006 q 482 858 561 858 q 376 903 447 858 q 260 947 306 947 q 151 867 214 947 l 121 892 l 142 921 z "},"˝":{"ha":781,"x_min":217,"x_max":821,"o":"m 511 796 l 465 796 l 636 1040 l 821 1040 l 511 796 m 263 796 l 217 796 l 388 1040 l 572 1040 l 263 796 z "},"Ё":{"ha":958,"x_min":83,"x_max":875,"o":"m 83 1042 l 849 1042 l 849 793 l 776 793 l 722 982 l 367 982 l 367 567 l 635 567 l 672 688 l 724 688 l 724 400 l 672 400 l 635 506 l 367 506 l 367 60 l 747 60 l 801 247 l 875 247 l 875 0 l 83 0 l 83 51 l 221 83 l 221 957 l 83 990 l 83 1042 m 275 1221 q 275 1240 275 1221 q 299 1280 275 1258 q 365 1301 324 1301 q 431 1280 406 1301 q 456 1222 456 1258 q 432 1163 456 1185 q 366 1140 408 1140 q 299 1162 324 1140 q 275 1221 275 1183 m 585 1221 q 585 1240 585 1221 q 609 1280 585 1258 q 674 1301 633 1301 q 740 1280 715 1301 q 765 1222 765 1258 q 742 1163 765 1185 q 676 1140 718 1140 q 609 1162 633 1140 q 585 1221 585 1183 z "},"Ђ":{"ha":1124,"x_min":14,"x_max":1040,"o":"m 214 0 l 214 51 l 349 83 l 349 982 l 140 982 l 86 779 l 14 779 l 14 1042 l 850 1042 l 850 779 l 778 779 l 724 982 l 494 982 l 494 561 l 617 561 q 961 475 864 561 q 1040 264 1040 406 l 1040 228 q 1038 69 1039 121 q 1027 -47 1036 18 q 1008 -140 1018 -111 q 969 -222 997 -169 q 911 -313 942 -274 q 824 -424 881 -353 l 785 -400 q 871 -194 846 -285 q 896 53 896 -103 l 896 265 q 831 447 896 385 q 647 508 765 508 l 494 508 l 494 82 l 636 51 l 636 0 l 214 0 z "},"Ѓ":{"ha":840,"x_min":67,"x_max":833,"o":"m 361 1113 l 317 1113 l 500 1314 l 686 1314 l 361 1113 m 351 982 l 351 82 l 489 51 l 489 0 l 67 0 l 67 51 l 206 83 l 206 957 l 68 990 l 68 1042 l 833 1042 l 833 793 l 761 793 l 707 982 l 351 982 z "},"Є":{"ha":1046,"x_min":79,"x_max":938,"o":"m 663 394 l 611 394 l 572 508 l 240 508 q 340 158 246 289 q 590 26 435 26 q 803 104 719 26 l 872 335 l 938 335 l 938 100 q 594 -29 814 -29 q 226 125 374 -29 q 79 527 79 279 q 227 915 79 775 q 596 1056 375 1056 q 938 940 817 1056 l 938 715 l 865 715 l 797 936 q 596 1004 721 1004 q 347 894 444 1004 q 240 569 249 783 l 574 569 l 611 682 l 663 682 l 663 394 z "},"Ѕ":{"ha":839,"x_min":97,"x_max":808,"o":"m 426 -12 q 104 88 265 -12 l 104 317 l 185 317 l 244 92 q 422 42 324 42 q 572 75 496 42 q 639 128 613 93 q 668 210 665 163 q 553 394 664 321 q 440 453 511 421 q 349 496 369 486 q 97 776 97 599 q 183 971 97 888 q 429 1054 269 1054 q 599 1028 511 1054 q 744 947 686 1003 l 744 744 l 674 744 l 610 956 q 443 997 532 997 q 294 955 354 997 q 235 838 235 913 q 308 697 235 750 q 440 620 371 651 q 526 581 510 589 q 808 272 808 461 q 744 111 808 178 q 426 -12 628 -12 z "},"І":{"ha":672,"x_min":125,"x_max":547,"o":"m 125 1042 l 547 1042 l 547 990 l 408 958 l 408 82 l 547 51 l 547 0 l 125 0 l 125 51 l 263 83 l 263 957 l 125 990 l 125 1042 z "},"Ї":{"ha":556,"x_min":49,"x_max":539,"o":"m 83 1042 l 506 1042 l 506 990 l 367 958 l 367 82 l 506 51 l 506 0 l 83 0 l 83 51 l 221 83 l 221 957 l 83 990 l 83 1042 m 49 1297 q 49 1316 49 1297 q 73 1356 49 1335 q 138 1378 97 1378 q 204 1356 179 1378 q 229 1298 229 1335 q 206 1239 229 1261 q 140 1217 182 1217 q 73 1238 97 1217 q 49 1297 49 1260 m 358 1297 q 358 1316 358 1297 q 383 1356 358 1335 q 448 1378 407 1378 q 514 1356 489 1378 q 539 1298 539 1335 q 515 1239 539 1261 q 449 1217 492 1217 q 383 1238 407 1217 q 358 1297 358 1260 z "},"Ј":{"ha":660,"x_min":97,"x_max":535,"o":"m 113 1042 l 535 1042 l 535 990 l 394 958 l 394 386 q 385 74 394 122 q 363 -24 375 25 q 331 -104 350 -74 q 286 -175 313 -135 q 136 -333 244 -237 l 97 -310 q 197 -153 175 -208 q 228 -67 219 -97 q 242 19 238 -36 q 247 233 247 92 l 247 958 l 113 990 l 113 1042 z "},"Љ":{"ha":1450,"x_min":14,"x_max":1394,"o":"m 14 0 l 14 50 l 131 86 l 510 1042 l 592 1042 l 783 563 l 975 563 q 1208 539 1133 563 q 1317 485 1282 515 q 1394 272 1394 417 q 1302 63 1394 126 q 986 0 1210 0 l 679 0 l 679 51 l 813 82 l 507 868 l 207 0 l 14 0 m 1004 56 q 1178 108 1122 56 q 1233 281 1233 160 q 1178 454 1233 401 q 1004 507 1122 507 l 806 507 l 985 56 l 1004 56 z "},"Њ":{"ha":1453,"x_min":83,"x_max":1397,"o":"m 683 0 l 683 51 l 819 83 l 819 500 l 368 500 l 368 82 l 507 51 l 507 0 l 83 0 l 83 51 l 222 82 l 222 957 l 83 990 l 83 1042 l 507 1042 l 507 990 l 368 957 l 368 563 l 819 563 l 819 957 l 685 990 l 685 1042 l 1107 1042 l 1107 990 l 965 958 l 965 563 l 978 563 q 1210 539 1136 563 q 1319 485 1285 515 q 1397 272 1397 417 q 1305 63 1397 126 q 989 0 1213 0 l 683 0 m 1007 507 l 965 507 l 965 56 l 1007 56 q 1181 108 1125 56 q 1236 281 1236 160 q 1181 454 1236 401 q 1007 507 1125 507 z "},"Ћ":{"ha":1243,"x_min":14,"x_max":1188,"o":"m 222 0 l 222 51 l 365 85 l 365 982 l 140 982 l 86 804 l 14 804 l 14 1042 l 874 1042 l 874 804 l 801 804 l 747 982 l 511 982 l 511 563 l 626 563 q 971 478 876 563 q 1050 264 1050 406 l 1050 85 l 1188 51 l 1188 0 l 765 0 l 765 51 l 904 83 l 904 261 q 840 447 904 383 q 656 510 775 510 l 511 510 l 511 83 l 653 51 l 653 0 l 222 0 z "},"Ќ":{"ha":1114,"x_min":83,"x_max":1086,"o":"m 489 1113 l 444 1113 l 628 1314 l 814 1314 l 489 1113 m 83 1042 l 506 1042 l 506 990 l 367 958 l 367 553 l 818 1042 l 1021 1042 l 1021 990 l 868 960 l 490 604 l 922 82 l 1086 51 l 1086 0 l 794 0 l 367 525 l 367 82 l 506 51 l 506 0 l 83 0 l 83 51 l 221 83 l 221 957 l 83 990 l 83 1042 z "},"Ў":{"ha":1081,"x_min":42,"x_max":1074,"o":"m 165 0 l 165 51 l 338 90 l 513 388 l 169 961 l 42 990 l 42 1042 l 436 1042 l 436 990 l 339 964 l 597 518 l 846 960 l 733 992 l 733 1042 l 1074 1042 l 1074 992 l 958 958 l 432 0 l 165 0 m 814 1329 l 856 1329 q 786 1169 856 1226 q 621 1113 717 1113 q 455 1169 525 1113 q 385 1329 385 1226 l 429 1329 q 487 1242 429 1274 q 622 1210 544 1210 q 756 1242 699 1210 q 814 1329 814 1274 z "},"Џ":{"ha":1190,"x_min":56,"x_max":1135,"o":"m 56 0 l 56 51 l 193 85 l 193 958 l 56 990 l 56 1042 l 478 1042 l 478 990 l 339 960 l 339 64 l 847 64 l 847 958 l 713 990 l 713 1042 l 1135 1042 l 1135 990 l 993 958 l 993 83 l 1135 51 l 1135 0 l 683 0 l 636 -174 l 583 -174 l 536 0 l 56 0 z "},"А":{"ha":1146,"x_min":7,"x_max":1139,"o":"m 7 0 l 7 51 l 131 82 l 551 1053 l 622 1053 l 1022 82 l 1139 51 l 1139 0 l 744 0 l 744 51 l 865 81 l 756 350 l 336 350 l 232 81 l 357 51 l 357 0 l 7 0 m 356 403 l 736 403 l 542 890 l 356 403 z "},"Б":{"ha":986,"x_min":69,"x_max":903,"o":"m 72 1042 l 836 1042 l 836 793 l 764 793 l 710 982 l 354 982 l 354 624 l 479 624 q 871 460 789 624 q 903 306 903 396 q 806 77 903 154 q 490 0 710 0 l 69 0 l 69 51 l 207 83 l 207 957 l 72 990 l 72 1042 m 354 56 l 508 56 q 742 312 742 56 q 508 568 742 568 l 354 568 l 354 56 z "},"В":{"ha":981,"x_min":69,"x_max":897,"o":"m 69 1042 l 482 1042 q 869 788 869 1042 q 804 624 869 685 q 596 542 739 563 q 897 276 897 515 q 821 90 897 165 q 688 17 765 35 q 458 0 610 0 l 69 0 l 69 51 l 203 82 l 203 958 l 69 990 l 69 1042 m 347 56 l 457 56 q 672 108 606 56 q 739 279 739 161 q 674 452 739 397 q 469 507 610 507 l 347 507 l 347 56 m 347 565 l 458 565 q 714 785 714 565 q 628 950 714 910 q 424 986 554 986 l 347 986 l 347 565 z "},"Г":{"ha":840,"x_min":67,"x_max":833,"o":"m 351 982 l 351 82 l 489 51 l 489 0 l 67 0 l 67 51 l 206 83 l 206 957 l 68 990 l 68 1042 l 833 1042 l 833 793 l 761 793 l 707 982 l 351 982 z "},"Д":{"ha":1285,"x_min":14,"x_max":1271,"o":"m 1271 -210 l 1207 -210 l 1119 0 l 164 0 l 78 -210 l 14 -210 l 14 53 l 186 53 l 619 1053 l 689 1053 l 1099 53 l 1271 53 l 1271 -210 m 289 53 l 944 53 l 610 890 l 289 53 z "},"Е":{"ha":944,"x_min":69,"x_max":861,"o":"m 69 1042 l 835 1042 l 835 793 l 763 793 l 708 982 l 353 982 l 353 567 l 621 567 l 658 688 l 710 688 l 710 400 l 658 400 l 621 506 l 353 506 l 353 60 l 733 60 l 788 247 l 861 247 l 861 0 l 69 0 l 69 51 l 207 83 l 207 957 l 69 990 l 69 1042 z "},"Ж":{"ha":1613,"x_min":14,"x_max":1599,"o":"m 461 1042 l 461 990 l 353 964 l 733 553 l 733 957 l 596 990 l 596 1042 l 1018 1042 l 1018 990 l 879 957 l 879 553 l 1260 964 l 1151 990 l 1151 1042 l 1504 1042 l 1504 990 l 1381 960 l 1003 604 l 1435 82 l 1599 51 l 1599 0 l 1307 0 l 879 525 l 879 83 l 1018 51 l 1018 0 l 594 0 l 594 51 l 733 83 l 733 525 l 306 0 l 14 0 l 14 51 l 178 82 l 610 604 l 232 960 l 108 990 l 108 1042 l 461 1042 z "},"З":{"ha":794,"x_min":83,"x_max":725,"o":"m 725 278 q 620 69 725 150 q 371 -12 515 -12 q 212 16 290 -12 q 83 100 133 44 l 83 282 l 151 282 l 211 100 q 368 39 281 39 q 520 95 456 39 q 585 250 585 151 q 518 440 585 375 q 299 508 451 506 l 299 560 q 563 806 563 565 q 508 951 563 899 q 368 1004 453 1004 q 221 921 283 1004 l 161 756 l 90 756 l 90 921 q 364 1054 179 1054 q 603 981 501 1054 q 706 785 706 907 q 630 611 706 685 q 413 535 554 538 q 643 458 561 535 q 725 278 725 382 z "},"И":{"ha":1246,"x_min":83,"x_max":1163,"o":"m 740 0 l 740 51 l 872 82 l 872 933 l 404 74 l 506 51 l 506 0 l 83 0 l 83 51 l 218 83 l 218 958 l 83 990 l 83 1042 l 506 1042 l 506 990 l 364 958 l 364 110 l 832 968 l 740 990 l 740 1042 l 1163 1042 l 1163 990 l 1018 957 l 1018 83 l 1163 51 l 1163 0 l 740 0 z "},"Й":{"ha":1246,"x_min":83,"x_max":1163,"o":"m 814 1329 l 856 1329 q 786 1169 856 1226 q 621 1113 717 1113 q 455 1169 525 1113 q 385 1329 385 1226 l 429 1329 q 487 1242 429 1274 q 622 1210 544 1210 q 756 1242 699 1210 q 814 1329 814 1274 m 740 0 l 740 51 l 872 82 l 872 933 l 404 74 l 506 51 l 506 0 l 83 0 l 83 51 l 218 83 l 218 958 l 83 990 l 83 1042 l 506 1042 l 506 990 l 364 958 l 364 110 l 832 968 l 740 990 l 740 1042 l 1163 1042 l 1163 990 l 1018 957 l 1018 83 l 1163 51 l 1163 0 l 740 0 z "},"К":{"ha":1114,"x_min":83,"x_max":1086,"o":"m 83 1042 l 506 1042 l 506 990 l 367 958 l 367 553 l 818 1042 l 1021 1042 l 1021 990 l 868 960 l 490 604 l 922 82 l 1086 51 l 1086 0 l 794 0 l 367 525 l 367 82 l 506 51 l 506 0 l 83 0 l 83 51 l 221 83 l 221 957 l 83 990 l 83 1042 z "},"Л":{"ha":1115,"x_min":7,"x_max":1108,"o":"m 7 0 l 7 50 l 124 86 l 517 1042 l 599 1042 l 982 82 l 1108 51 l 1108 0 l 686 0 l 686 51 l 819 82 l 510 868 l 200 0 l 7 0 z "},"М":{"ha":1501,"x_min":83,"x_max":1418,"o":"m 993 0 l 993 51 l 1129 83 l 1129 956 l 751 0 l 667 0 l 289 956 l 289 83 l 428 51 l 428 0 l 83 0 l 83 51 l 217 83 l 217 954 l 99 990 l 99 1042 l 397 1042 l 749 172 l 1090 1042 l 1418 1042 l 1418 990 l 1274 957 l 1274 83 l 1415 51 l 1415 0 l 993 0 z "},"Н":{"ha":1246,"x_min":83,"x_max":1163,"o":"m 740 0 l 740 51 l 876 82 l 876 500 l 368 500 l 368 82 l 507 51 l 507 0 l 83 0 l 83 51 l 222 82 l 222 957 l 83 990 l 83 1042 l 507 1042 l 507 990 l 368 957 l 368 563 l 876 563 l 876 957 l 740 990 l 740 1042 l 1163 1042 l 1163 990 l 1022 958 l 1022 83 l 1163 51 l 1163 0 l 740 0 z "},"О":{"ha":1128,"x_min":69,"x_max":1058,"o":"m 900 522 q 900 643 900 522 q 813 888 900 764 q 563 1011 726 1011 q 315 885 400 1011 q 231 521 231 758 q 313 156 231 283 q 558 29 396 29 q 810 154 721 29 q 900 522 900 279 m 69 520 q 69 645 69 520 q 208 919 69 771 q 566 1067 347 1067 q 922 915 785 1067 q 1058 518 1058 764 q 922 123 1058 272 q 563 -26 786 -26 q 204 122 339 -26 q 69 520 69 269 z "},"П":{"ha":1246,"x_min":83,"x_max":1163,"o":"m 83 0 l 83 51 l 221 83 l 221 957 l 83 990 l 83 1042 l 1163 1042 l 1163 990 l 1021 958 l 1021 83 l 1163 51 l 1163 0 l 740 0 l 740 51 l 875 83 l 875 978 l 367 978 l 367 82 l 506 51 l 506 0 l 83 0 z "},"Р":{"ha":921,"x_min":83,"x_max":914,"o":"m 83 1042 l 501 1042 q 818 972 722 1042 q 914 751 914 901 q 790 506 914 569 q 490 450 681 450 l 364 450 l 364 83 l 506 51 l 506 0 l 83 0 l 83 51 l 218 83 l 218 958 l 83 990 l 83 1042 m 364 506 l 519 506 q 695 564 638 506 q 753 746 753 622 q 695 928 753 869 q 519 986 638 986 l 364 986 l 364 506 z "},"С":{"ha":1018,"x_min":56,"x_max":914,"o":"m 914 335 l 914 100 q 569 -29 790 -29 q 202 119 349 -29 q 56 515 56 267 q 204 909 56 763 q 573 1056 353 1056 q 914 940 793 1056 l 914 715 l 842 715 l 774 936 q 572 1004 697 1004 q 315 878 414 1004 q 217 522 217 753 q 312 158 217 290 q 567 26 407 26 q 779 104 696 26 l 849 335 l 914 335 z "},"Т":{"ha":969,"x_min":29,"x_max":940,"o":"m 275 0 l 275 51 l 410 83 l 410 982 l 156 982 l 101 779 l 29 779 l 29 1042 l 940 1042 l 940 779 l 868 779 l 814 982 l 556 982 l 556 82 l 697 51 l 697 0 l 275 0 z "},"У":{"ha":1081,"x_min":42,"x_max":1074,"o":"m 165 0 l 165 51 l 338 90 l 513 388 l 169 961 l 42 990 l 42 1042 l 436 1042 l 436 990 l 339 964 l 597 518 l 846 960 l 733 992 l 733 1042 l 1074 1042 l 1074 992 l 958 958 l 432 0 l 165 0 z "},"Ф":{"ha":1165,"x_min":31,"x_max":1135,"o":"m 375 1042 l 797 1042 l 797 990 l 654 957 l 654 900 q 1008 788 881 900 q 1135 526 1135 675 q 1008 266 1135 376 q 654 156 881 156 l 654 83 l 797 51 l 797 0 l 375 0 l 375 51 l 510 83 l 510 156 q 157 265 283 156 q 31 524 31 374 q 158 787 31 674 q 510 900 285 900 l 510 958 l 375 990 l 375 1042 m 510 224 l 510 831 q 274 739 358 831 q 190 525 190 647 q 275 313 190 403 q 510 224 360 224 m 654 831 l 654 224 q 888 314 804 224 q 972 526 972 404 q 888 739 972 647 q 654 831 803 831 z "},"Х":{"ha":1154,"x_min":75,"x_max":1089,"o":"m 75 1042 l 497 1042 l 497 990 l 389 961 l 604 618 l 835 956 l 713 992 l 713 1042 l 1053 1042 l 1053 992 l 931 954 l 650 565 l 956 85 l 1089 51 l 1089 0 l 667 0 l 667 51 l 781 81 l 554 443 l 306 76 l 417 50 l 417 0 l 76 0 l 76 50 l 201 82 l 504 497 l 211 956 l 75 990 l 75 1042 z "},"Ц":{"ha":1246,"x_min":83,"x_max":1232,"o":"m 1232 -210 l 1179 -210 l 1088 0 l 83 0 l 83 51 l 221 85 l 221 958 l 83 990 l 83 1042 l 506 1042 l 506 990 l 367 960 l 367 64 l 875 64 l 875 958 l 740 990 l 740 1042 l 1163 1042 l 1163 990 l 1021 958 l 1021 64 l 1232 64 l 1232 -210 z "},"Ч":{"ha":1154,"x_min":14,"x_max":1071,"o":"m 14 1042 l 436 1042 l 436 990 l 297 958 l 297 750 q 362 565 297 628 q 546 503 426 503 l 783 503 l 783 958 l 649 990 l 649 1042 l 1071 1042 l 1071 990 l 928 957 l 928 83 l 1071 51 l 1071 0 l 649 0 l 649 51 l 783 83 l 783 450 l 575 450 q 275 506 386 450 q 151 747 151 567 l 151 957 l 14 990 l 14 1042 z "},"Ш":{"ha":1617,"x_min":97,"x_max":1519,"o":"m 607 1042 l 1010 1042 l 1010 990 l 878 958 l 878 64 l 1232 64 l 1232 958 l 1108 990 l 1108 1042 l 1514 1042 l 1514 990 l 1376 958 l 1376 82 l 1519 51 l 1519 0 l 97 0 l 97 51 l 235 85 l 235 958 l 103 990 l 103 1042 l 508 1042 l 508 990 l 381 960 l 381 64 l 733 64 l 733 958 l 607 990 l 607 1042 z "},"Щ":{"ha":1654,"x_min":97,"x_max":1599,"o":"m 1599 -210 l 1546 -210 l 1454 0 l 97 0 l 97 51 l 235 85 l 235 958 l 103 990 l 103 1042 l 508 1042 l 508 990 l 381 960 l 381 64 l 733 64 l 733 958 l 607 990 l 607 1042 l 1010 1042 l 1010 990 l 878 958 l 878 64 l 1232 64 l 1232 958 l 1108 990 l 1108 1042 l 1514 1042 l 1514 990 l 1376 958 l 1376 64 l 1599 64 l 1599 -210 z "},"Ъ":{"ha":1103,"x_min":44,"x_max":1086,"o":"m 394 982 l 171 982 l 117 793 l 44 793 l 44 1042 l 682 1042 l 682 990 l 540 958 l 540 563 l 667 563 q 899 539 825 563 q 1008 485 974 515 q 1086 272 1086 417 q 994 63 1086 126 q 678 0 901 0 l 258 0 l 260 51 l 394 83 l 394 982 m 542 56 l 696 56 q 869 108 814 56 q 925 281 925 160 q 869 454 925 401 q 696 507 814 507 l 542 507 l 542 56 z "},"Ы":{"ha":1500,"x_min":97,"x_max":1403,"o":"m 97 0 l 97 51 l 232 83 l 232 958 l 97 990 l 97 1042 l 519 1042 l 519 990 l 378 958 l 378 563 l 504 563 q 737 539 663 563 q 846 485 811 515 q 924 272 924 417 q 831 63 924 126 q 515 0 739 0 l 97 0 m 533 507 l 378 507 l 378 56 l 533 56 q 707 108 651 56 q 763 281 763 160 q 707 454 763 401 q 533 507 651 507 m 981 1042 l 1403 1042 l 1403 990 l 1264 958 l 1264 82 l 1403 51 l 1403 0 l 981 0 l 981 51 l 1118 83 l 1118 957 l 981 990 l 981 1042 z "},"Ь":{"ha":924,"x_min":83,"x_max":910,"o":"m 83 0 l 83 51 l 218 83 l 218 958 l 83 990 l 83 1042 l 506 1042 l 506 990 l 364 958 l 364 563 l 490 563 q 723 539 649 563 q 832 485 797 515 q 910 272 910 417 q 817 63 910 126 q 501 0 725 0 l 83 0 m 519 507 l 364 507 l 364 56 l 519 56 q 693 108 638 56 q 749 281 749 160 q 693 454 749 401 q 519 507 638 507 z "},"Э":{"ha":1018,"x_min":97,"x_max":956,"o":"m 372 394 l 372 682 l 424 682 l 461 569 l 794 569 q 688 894 786 783 q 439 1004 590 1004 q 238 936 314 1004 l 169 715 l 97 715 l 97 940 q 438 1056 218 1056 q 807 915 658 1056 q 956 526 956 774 q 808 125 956 279 q 440 -29 660 -29 q 97 100 221 -29 l 97 335 l 163 335 l 232 104 q 444 26 315 26 q 694 158 600 26 q 794 508 789 289 l 463 508 l 424 394 l 372 394 z "},"Ю":{"ha":1592,"x_min":69,"x_max":1536,"o":"m 576 563 q 719 932 588 797 q 1063 1067 850 1067 q 1406 916 1275 1067 q 1536 517 1536 765 q 1406 122 1536 269 q 1057 -26 1276 -26 q 709 115 838 -26 q 575 500 581 257 l 354 500 l 354 82 l 493 51 l 493 0 l 69 0 l 69 51 l 208 82 l 208 957 l 69 990 l 69 1042 l 493 1042 l 493 990 l 354 957 l 354 563 l 576 563 m 1378 520 q 1378 766 1378 520 q 1057 1011 1378 1011 q 736 520 736 1011 q 1051 29 736 29 q 1378 520 1378 29 z "},"Я":{"ha":1100,"x_min":35,"x_max":1017,"o":"m 499 471 q 272 542 358 471 q 186 761 186 614 q 282 975 186 908 q 599 1042 378 1042 l 1017 1042 l 1017 990 l 882 958 l 882 83 l 1017 51 l 1017 0 l 594 0 l 594 51 l 736 83 l 736 464 l 658 464 l 315 0 l 35 0 l 35 51 l 186 82 l 499 471 m 736 518 l 736 986 l 581 986 q 404 931 461 986 q 347 752 347 875 q 405 574 347 629 q 581 518 463 518 l 736 518 z "},"а":{"ha":757,"x_min":44,"x_max":742,"o":"m 742 0 l 497 0 l 497 140 q 268 -12 432 -12 q 101 35 158 -12 q 44 169 44 83 q 152 345 44 292 q 494 403 260 399 l 494 463 q 454 597 494 561 q 335 632 414 632 q 197 596 256 632 l 151 458 l 100 458 l 100 615 q 196 665 135 644 q 329 685 257 685 q 551 628 476 685 q 625 429 625 572 l 625 83 l 742 51 l 742 0 m 304 46 q 444 115 393 46 q 494 354 494 183 q 203 281 256 354 q 178 178 178 246 q 208 78 178 110 q 304 46 238 46 z "},"б":{"ha":733,"x_min":14,"x_max":699,"o":"m 369 685 q 607 597 515 685 q 699 344 699 508 q 608 84 699 181 q 360 -12 517 -12 q 196 22 265 -12 q 89 117 126 57 q 14 408 14 235 q 50 669 14 572 q 158 825 86 772 q 388 889 247 889 q 489 910 453 889 l 550 1065 l 607 1065 l 607 886 q 399 836 535 836 q 213 786 263 836 q 164 636 164 736 l 164 622 q 369 685 264 685 m 358 44 q 560 343 560 44 q 514 559 560 492 q 363 626 468 626 q 210 560 257 626 q 163 340 163 493 q 210 116 163 188 q 358 44 258 44 z "},"в":{"ha":796,"x_min":51,"x_max":746,"o":"m 51 0 l 51 51 l 158 81 l 158 592 l 51 622 l 51 674 l 528 674 q 653 619 603 674 q 704 499 704 564 q 622 365 704 407 l 596 356 l 638 338 q 719 276 692 318 q 746 173 746 235 q 697 56 746 111 q 569 0 649 0 l 51 0 m 488 325 l 289 325 l 289 49 l 488 49 q 581 89 547 49 q 614 185 614 129 q 580 283 614 240 q 488 325 546 325 m 289 625 l 289 383 l 497 383 q 571 420 546 389 q 596 498 596 451 q 560 585 596 544 q 468 625 524 625 l 289 625 z "},"г":{"ha":624,"x_min":46,"x_max":617,"o":"m 50 672 l 617 672 l 617 489 l 567 489 l 531 622 l 286 622 l 286 82 l 399 51 l 399 0 l 46 0 l 46 51 l 154 82 l 154 593 l 50 622 l 50 672 z "},"д":{"ha":835,"x_min":8,"x_max":828,"o":"m 8 50 l 122 50 l 388 679 l 463 679 l 714 50 l 828 50 l 828 -124 l 783 -124 l 733 0 l 100 0 l 46 -129 l 8 -129 l 8 50 m 569 50 l 390 567 l 214 50 l 569 50 z "},"е":{"ha":692,"x_min":38,"x_max":647,"o":"m 638 235 l 638 76 q 383 -14 558 -14 q 122 78 207 -14 q 38 335 38 171 q 127 592 38 499 q 368 686 217 686 q 519 653 458 686 q 606 564 579 619 q 647 371 647 472 l 176 371 q 213 132 176 214 q 376 39 254 39 q 459 51 419 39 q 517 74 499 63 q 535 88 535 85 l 586 235 l 638 235 m 365 632 q 204 524 247 632 q 179 417 183 475 l 526 417 q 365 632 526 632 z "},"ж":{"ha":1243,"x_min":44,"x_max":1197,"o":"m 772 674 l 772 624 l 686 604 l 686 388 l 1022 672 l 1144 672 l 1144 621 l 1028 592 l 778 400 l 1061 85 l 1197 51 l 1197 0 l 978 0 l 686 363 l 686 85 l 792 51 l 792 0 l 449 0 l 449 51 l 554 85 l 554 363 l 264 0 l 44 0 l 44 51 l 181 85 l 460 404 l 210 592 l 93 621 l 93 672 l 218 672 l 554 388 l 554 604 l 461 624 l 461 674 l 772 674 z "},"з":{"ha":597,"x_min":49,"x_max":565,"o":"m 565 179 q 475 36 565 88 q 269 -15 385 -15 q 49 56 119 -15 l 49 217 l 100 217 l 147 79 q 269 36 196 36 q 388 73 342 36 q 435 177 435 110 q 398 281 435 244 q 297 317 361 317 l 203 317 l 203 369 l 297 369 q 382 409 350 369 q 414 511 414 449 q 377 604 414 574 q 279 635 340 635 q 175 597 218 635 l 126 457 l 74 457 l 74 611 q 276 683 138 683 q 459 639 382 683 q 536 511 536 594 q 499 413 536 458 q 401 346 461 368 q 521 282 476 325 q 565 179 565 239 z "},"и":{"ha":936,"x_min":56,"x_max":881,"o":"m 535 0 l 535 51 l 636 82 l 636 572 l 290 0 l 56 0 l 56 51 l 163 81 l 163 592 l 56 622 l 56 674 l 400 674 l 400 622 l 293 590 l 293 101 l 636 674 l 881 674 l 881 622 l 767 592 l 767 82 l 881 51 l 881 0 l 535 0 z "},"й":{"ha":936,"x_min":56,"x_max":881,"o":"m 653 999 l 694 999 q 625 839 694 896 q 460 782 556 782 q 294 839 364 782 q 224 999 224 896 l 268 999 q 326 911 268 943 q 460 879 383 879 q 595 911 538 879 q 653 999 653 943 m 535 0 l 535 51 l 636 82 l 636 572 l 290 0 l 56 0 l 56 51 l 163 81 l 163 592 l 56 622 l 56 674 l 400 674 l 400 622 l 293 590 l 293 101 l 636 674 l 881 674 l 881 622 l 767 592 l 767 82 l 881 51 l 881 0 l 535 0 z "},"к":{"ha":860,"x_min":56,"x_max":821,"o":"m 56 674 l 306 674 l 306 385 l 610 672 l 743 672 l 743 621 l 626 592 l 404 400 l 685 85 l 821 51 l 821 0 l 594 0 l 303 363 l 303 85 l 408 51 l 408 0 l 56 0 l 56 51 l 171 83 l 171 604 l 56 624 l 56 674 z "},"л":{"ha":803,"x_min":7,"x_max":796,"o":"m 7 0 l 7 53 l 111 76 l 360 675 l 442 675 l 688 76 l 796 53 l 796 1 l 443 1 l 443 53 l 539 76 l 367 558 l 178 0 l 7 0 z "},"м":{"ha":1079,"x_min":57,"x_max":1022,"o":"m 57 674 l 329 674 l 539 151 l 751 672 l 1017 672 l 1017 622 l 913 593 l 913 83 l 1022 51 l 1022 0 l 669 0 l 669 51 l 781 83 l 781 607 l 539 0 l 461 0 l 217 607 l 217 82 l 318 51 l 318 0 l 60 0 l 60 51 l 167 82 l 167 588 l 57 622 l 57 674 z "},"н":{"ha":918,"x_min":54,"x_max":865,"o":"m 526 0 l 526 51 l 621 82 l 621 315 l 292 315 l 292 82 l 393 51 l 393 0 l 54 0 l 54 51 l 161 81 l 161 592 l 54 622 l 54 674 l 393 674 l 393 622 l 292 590 l 292 365 l 621 365 l 621 592 l 526 622 l 526 674 l 865 674 l 865 622 l 751 592 l 751 82 l 865 51 l 865 0 l 526 0 z "},"о":{"ha":754,"x_min":39,"x_max":715,"o":"m 576 332 q 576 407 576 332 q 531 555 576 482 q 381 628 485 628 q 228 558 278 628 q 179 333 179 488 q 228 112 179 179 q 377 44 276 44 q 527 113 478 44 q 576 332 576 182 m 39 332 q 39 414 39 332 q 132 591 39 496 q 378 686 225 686 q 624 593 532 686 q 715 333 715 500 q 624 77 715 167 q 377 -12 532 -12 q 131 78 222 -12 q 39 332 39 168 z "},"п":{"ha":919,"x_min":54,"x_max":865,"o":"m 526 0 l 526 51 l 624 82 l 624 622 l 293 622 l 293 82 l 393 51 l 393 0 l 54 0 l 54 51 l 161 81 l 161 592 l 54 622 l 54 672 l 865 672 l 865 622 l 756 592 l 756 81 l 865 51 l 865 0 l 526 0 z "},"р":{"ha":833,"x_min":42,"x_max":799,"o":"m 44 674 l 269 674 l 269 503 q 507 685 333 685 q 719 593 639 685 q 799 335 799 501 q 719 77 799 169 q 508 -15 639 -15 q 278 150 340 -15 l 278 -356 l 379 -386 l 379 -437 l 42 -437 l 42 -386 l 146 -356 l 146 607 l 44 625 l 44 674 m 488 624 q 338 547 397 624 q 279 341 279 471 q 336 128 279 211 q 488 46 393 46 q 657 335 657 46 q 488 624 657 624 z "},"с":{"ha":664,"x_min":35,"x_max":604,"o":"m 604 217 l 604 53 q 379 -14 531 -14 q 131 78 228 -14 q 35 333 35 169 q 134 592 35 497 q 388 688 233 688 q 511 672 451 688 q 601 628 571 656 l 601 456 l 550 456 l 504 607 q 375 636 465 636 q 231 558 285 636 q 178 332 178 481 q 392 39 178 39 q 504 58 463 39 l 553 217 l 604 217 z "},"т":{"ha":711,"x_min":22,"x_max":689,"o":"m 179 0 l 179 51 l 290 82 l 290 618 l 108 618 l 74 490 l 22 490 l 22 668 l 689 668 l 689 490 l 638 490 l 603 618 l 421 618 l 421 81 l 532 51 l 532 0 l 179 0 z "},"у":{"ha":843,"x_min":28,"x_max":829,"o":"m 538 675 l 829 675 l 829 622 l 719 606 l 431 -106 q 332 -290 371 -247 q 204 -333 293 -333 l 143 -333 l 143 -131 l 194 -131 l 229 -256 q 292 -233 272 -253 q 321 -201 311 -212 q 344 -162 331 -190 q 363 -118 357 -133 q 385 -62 369 -103 q 408 -3 400 -22 l 143 597 l 28 622 l 28 674 l 381 674 l 381 622 l 286 603 l 476 153 l 644 604 l 538 622 l 538 675 z "},"ф":{"ha":1149,"x_min":14,"x_max":1135,"o":"m 406 -436 l 406 -385 l 515 -354 l 515 150 q 283 -15 453 -15 q 82 86 150 -15 q 14 332 14 188 q 133 632 14 533 q 286 685 196 685 q 515 525 457 685 l 515 960 l 406 990 l 406 1042 l 632 1042 l 632 525 q 863 685 694 685 q 1017 632 953 685 q 1135 332 1135 533 q 1066 86 1135 188 q 864 -15 997 -15 q 632 150 697 -15 l 632 -354 l 744 -385 l 744 -436 l 406 -436 m 514 338 q 514 405 514 338 q 453 553 514 472 q 310 635 393 635 q 188 545 228 635 q 149 329 149 456 q 186 119 149 203 q 304 35 224 35 q 457 119 400 35 q 514 338 514 204 m 1000 328 q 1000 391 1000 328 q 960 544 1000 454 q 836 635 919 635 q 694 553 753 635 q 635 338 635 472 q 692 119 635 204 q 836 35 749 35 q 962 119 924 35 q 1000 328 1000 203 z "},"х":{"ha":860,"x_min":49,"x_max":813,"o":"m 49 674 l 401 674 l 401 622 l 317 606 l 453 408 l 613 607 l 522 622 l 522 674 l 797 674 l 797 622 l 697 604 l 489 367 l 706 75 l 813 53 l 813 0 l 460 0 l 460 53 l 549 75 l 406 282 l 244 72 l 335 53 l 335 0 l 50 0 l 50 53 l 157 75 l 365 324 l 158 604 l 49 622 l 49 674 z "},"ц":{"ha":899,"x_min":56,"x_max":892,"o":"m 892 -124 l 861 -124 l 811 0 l 56 0 l 56 50 l 163 81 l 163 592 l 56 621 l 56 672 l 388 672 l 388 621 l 294 590 l 294 50 l 625 50 l 625 590 l 536 621 l 536 672 l 867 672 l 867 621 l 757 592 l 757 50 l 892 50 l 892 -124 z "},"ч":{"ha":864,"x_min":0,"x_max":811,"o":"m 458 0 l 458 51 l 567 82 l 567 438 q 478 299 543 346 q 316 251 413 251 q 160 313 219 251 q 101 496 101 374 l 101 589 l 0 618 l 0 669 l 353 669 l 353 618 l 233 585 l 233 485 q 265 346 233 388 q 361 304 297 304 q 564 588 540 304 l 458 618 l 458 669 l 811 669 l 811 618 l 697 588 l 697 82 l 811 51 l 811 0 l 458 0 z "},"ш":{"ha":1249,"x_min":60,"x_max":1185,"o":"m 867 672 l 1185 672 l 1185 621 l 1075 592 l 1075 81 l 1185 50 l 1185 0 l 60 0 l 60 50 l 167 81 l 167 592 l 60 621 l 60 672 l 376 672 l 376 621 l 299 590 l 299 50 l 556 50 l 556 593 l 481 621 l 481 672 l 763 672 l 763 621 l 686 593 l 686 50 l 944 50 l 944 590 l 867 621 l 867 672 z "},"щ":{"ha":1228,"x_min":60,"x_max":1210,"o":"m 867 672 l 1185 672 l 1185 621 l 1075 592 l 1075 51 l 1185 50 l 1210 50 l 1210 -124 l 1179 -124 l 1129 0 l 60 0 l 60 50 l 167 81 l 167 592 l 60 621 l 60 672 l 376 672 l 376 621 l 299 590 l 299 50 l 556 50 l 556 593 l 481 621 l 481 672 l 763 672 l 763 621 l 686 593 l 686 50 l 944 50 l 944 590 l 867 621 l 867 672 z "},"ъ":{"ha":789,"x_min":36,"x_max":776,"o":"m 386 360 l 601 360 q 730 306 683 360 q 776 179 776 253 q 731 53 776 106 q 601 0 685 0 l 142 0 l 142 51 l 253 81 l 253 618 l 122 618 l 86 485 l 36 485 l 36 668 l 504 668 l 504 622 l 386 589 l 386 360 m 386 50 l 521 50 q 613 88 581 50 q 646 179 646 126 q 613 271 646 232 q 521 310 581 310 l 386 310 l 386 50 z "},"ы":{"ha":1128,"x_min":57,"x_max":1071,"o":"m 57 668 l 410 668 l 410 617 l 290 583 l 290 360 l 507 360 q 635 306 589 360 q 682 179 682 253 q 636 53 682 106 q 507 0 590 0 l 57 0 l 57 51 l 158 79 l 158 588 l 57 617 l 57 668 m 426 310 l 290 310 l 290 50 l 426 50 q 519 88 486 50 q 551 179 551 126 q 519 271 551 232 q 426 310 486 310 m 1071 0 l 718 0 l 718 51 l 825 81 l 825 592 l 718 622 l 718 674 l 1071 674 l 1071 622 l 956 590 l 956 82 l 1071 51 l 1071 0 z "},"ь":{"ha":696,"x_min":50,"x_max":675,"o":"m 50 668 l 403 668 l 403 617 l 283 583 l 283 360 l 500 360 q 629 306 583 360 q 675 179 675 253 q 629 53 675 106 q 500 0 583 0 l 50 0 l 50 51 l 151 79 l 151 588 l 50 617 l 50 668 m 419 310 l 283 310 l 283 50 l 419 50 q 512 88 479 50 q 544 179 544 126 q 511 271 544 232 q 419 310 478 310 z "},"э":{"ha":663,"x_min":61,"x_max":631,"o":"m 256 215 l 256 460 l 300 460 l 332 367 l 488 367 q 428 568 481 500 q 288 636 375 636 q 161 607 200 636 l 115 456 l 64 456 l 64 628 q 153 672 92 656 q 278 688 214 688 q 531 592 432 688 q 631 333 631 497 q 534 78 631 169 q 285 -14 438 -14 q 61 53 133 -14 l 61 217 l 113 217 l 161 58 q 274 39 203 39 q 488 315 482 39 l 332 315 l 300 215 l 256 215 z "},"ю":{"ha":1081,"x_min":40,"x_max":1060,"o":"m 410 365 q 505 601 419 517 q 739 686 590 686 q 974 594 888 686 q 1060 334 1060 503 q 974 76 1060 165 q 735 -12 888 -12 q 499 72 583 -12 q 410 315 414 157 l 278 315 l 278 82 l 393 51 l 393 0 l 40 0 l 40 51 l 147 81 l 147 592 l 40 622 l 40 674 l 393 674 l 393 622 l 278 590 l 278 365 l 410 365 m 921 331 q 921 407 921 331 q 880 556 921 483 q 738 628 839 628 q 593 559 636 628 q 550 333 550 490 q 593 110 550 176 q 735 44 636 44 q 877 112 833 44 q 921 331 921 179 z "},"я":{"ha":785,"x_min":40,"x_max":732,"o":"m 732 0 l 392 0 l 392 51 l 499 85 l 499 308 l 474 308 l 242 0 l 40 0 l 40 51 l 167 85 l 363 308 l 289 308 q 163 363 213 308 q 114 489 114 418 q 163 614 114 560 q 289 668 213 668 l 732 668 l 732 617 l 631 589 l 631 81 l 732 51 l 732 0 m 369 358 l 499 358 l 499 618 l 369 618 q 281 579 317 618 q 244 489 244 540 q 281 398 244 438 q 369 358 317 358 z "},"ё":{"ha":765,"x_min":71,"x_max":681,"o":"m 671 235 l 671 76 q 416 -14 592 -14 q 156 78 240 -14 q 71 335 71 171 q 160 592 71 499 q 401 686 250 686 q 552 653 492 686 q 639 564 613 619 q 681 371 681 472 l 210 371 q 246 132 210 214 q 410 39 288 39 q 492 51 453 39 q 550 74 532 63 q 568 88 568 85 l 619 235 l 671 235 m 399 632 q 238 524 281 632 q 213 417 217 475 l 560 417 q 399 632 560 632 m 140 921 q 140 940 140 921 q 165 980 140 958 q 230 1001 189 1001 q 296 980 271 1001 q 321 922 321 958 q 297 863 321 885 q 231 840 274 840 q 165 862 189 840 q 140 921 140 883 m 450 921 q 450 940 450 921 q 474 980 450 958 q 540 1001 499 1001 q 606 980 581 1001 q 631 922 631 958 q 607 863 631 885 q 541 840 583 840 q 474 862 499 840 q 450 921 450 883 z "},"ђ":{"ha":808,"x_min":56,"x_max":753,"o":"m 56 793 l 56 846 l 157 846 l 157 975 l 56 992 l 56 1042 l 289 1042 l 289 846 l 492 846 l 492 793 l 289 793 l 289 504 q 526 685 336 685 q 693 623 633 685 q 753 440 753 561 l 753 125 q 735 -89 753 -12 q 683 -218 718 -165 q 551 -375 647 -271 l 511 -344 q 606 -183 590 -253 q 621 51 621 -114 l 621 438 q 590 578 621 535 q 496 622 558 622 q 344 531 399 622 q 289 253 289 439 l 289 79 l 385 51 l 385 0 l 56 0 l 56 51 l 157 82 l 157 793 l 56 793 z "},"ѓ":{"ha":624,"x_min":46,"x_max":617,"o":"m 168 840 l 124 840 l 307 1042 l 493 1042 l 168 840 m 50 672 l 617 672 l 617 489 l 567 489 l 531 622 l 286 622 l 286 82 l 399 51 l 399 0 l 46 0 l 46 51 l 154 82 l 154 593 l 50 622 l 50 672 z "},"є":{"ha":715,"x_min":65,"x_max":635,"o":"m 449 215 l 404 215 l 371 315 l 208 315 q 422 39 214 39 q 535 58 493 39 l 583 217 l 635 217 l 635 53 q 410 -14 561 -14 q 162 78 258 -14 q 65 333 65 169 q 165 592 65 497 q 418 688 264 688 q 542 672 482 688 q 632 628 601 656 l 632 456 l 581 456 l 535 607 q 408 636 496 636 q 268 568 321 636 q 208 367 215 500 l 371 367 l 404 460 l 449 460 l 449 215 z "},"ѕ":{"ha":653,"x_min":78,"x_max":594,"o":"m 594 199 q 525 49 594 106 q 312 -7 456 -7 q 88 69 168 -7 l 88 231 l 142 231 l 182 94 q 338 46 231 46 q 451 79 413 46 q 490 160 490 113 q 450 233 490 207 q 291 298 410 260 q 125 378 172 336 q 78 502 78 419 q 146 639 78 585 q 346 693 214 693 q 558 631 478 693 l 558 471 l 504 471 l 461 604 q 339 640 415 640 q 188 532 188 640 q 231 462 188 492 q 392 396 275 432 q 551 315 508 360 q 594 199 594 269 z "},"і":{"ha":435,"x_min":63,"x_max":392,"o":"m 69 674 l 294 674 l 294 79 l 392 51 l 392 0 l 63 0 l 63 51 l 164 82 l 164 607 l 69 624 l 69 674 m 115 969 q 115 988 115 969 q 140 1028 115 1007 q 205 1050 164 1050 q 271 1028 246 1050 q 296 970 296 1007 q 272 911 296 933 q 206 889 249 889 q 140 910 164 889 q 115 969 115 932 z "},"ї":{"ha":461,"x_min":-7,"x_max":461,"o":"m 83 674 l 308 674 l 308 79 l 406 51 l 406 0 l 76 0 l 76 51 l 178 82 l 178 607 l 83 624 l 83 674 m 301 910 q 301 929 301 910 q 324 969 301 947 q 383 992 347 992 q 440 969 418 992 q 461 913 461 947 q 438 856 461 878 q 380 833 415 833 q 323 853 344 833 q 301 910 301 874 m -7 910 q -7 929 -7 910 q 16 969 -7 947 q 74 992 39 992 q 131 969 110 992 q 153 913 153 947 q 131 856 153 878 q 73 833 108 833 q 15 853 38 833 q -7 910 -7 874 z "},"ј":{"ha":335,"x_min":14,"x_max":269,"o":"m 31 674 l 256 674 l 256 53 q 238 -161 256 -85 q 185 -290 221 -237 q 54 -447 150 -343 l 14 -417 q 108 -256 93 -325 q 124 -21 124 -186 l 124 607 l 31 624 l 31 674 m 89 969 q 89 988 89 969 q 113 1028 89 1007 q 178 1050 138 1050 q 244 1028 219 1050 q 269 970 269 1007 q 246 911 269 933 q 180 889 222 889 q 113 910 138 889 q 89 969 89 932 z "},"љ":{"ha":1036,"x_min":21,"x_max":981,"o":"m 801 0 l 457 0 l 457 53 l 553 76 l 375 536 l 192 0 l 21 0 l 21 53 l 125 76 l 374 675 l 456 675 l 586 360 l 801 360 q 928 307 876 360 q 981 179 981 254 q 928 52 981 104 q 801 0 876 0 m 721 310 l 607 310 l 714 50 l 721 50 q 812 88 774 50 q 850 179 850 126 q 812 271 850 232 q 721 310 774 310 z "},"њ":{"ha":1151,"x_min":99,"x_max":1121,"o":"m 557 0 l 557 51 l 664 81 l 664 315 l 336 315 l 336 82 l 451 51 l 451 0 l 99 0 l 99 51 l 206 81 l 206 592 l 99 622 l 99 674 l 451 674 l 451 622 l 336 590 l 336 365 l 664 365 l 664 592 l 557 622 l 557 674 l 910 674 l 910 622 l 796 592 l 796 369 l 946 369 q 1074 314 1028 369 q 1121 183 1121 258 q 1074 54 1121 108 q 946 0 1028 0 l 557 0 m 865 317 l 796 317 l 796 50 l 865 50 q 958 89 925 50 q 990 182 990 128 q 957 276 990 236 q 865 317 924 317 z "},"ћ":{"ha":826,"x_min":14,"x_max":813,"o":"m 14 792 l 14 847 l 115 847 l 115 975 l 22 992 l 22 1042 l 247 1042 l 247 847 l 450 847 l 450 792 l 247 792 l 247 504 q 485 685 294 685 q 651 623 592 685 q 711 440 711 561 l 711 81 l 813 51 l 813 0 l 483 0 l 483 51 l 579 81 l 579 438 q 548 579 579 535 q 454 624 517 624 q 302 531 357 624 q 247 253 247 439 l 247 79 l 343 51 l 343 0 l 14 0 l 14 51 l 115 82 l 115 792 l 14 792 z "},"ќ":{"ha":860,"x_min":56,"x_max":832,"o":"m 249 840 l 204 840 l 388 1042 l 574 1042 l 249 840 m 56 674 l 306 674 l 306 385 l 610 672 l 743 672 l 743 621 l 626 592 l 417 422 l 696 85 l 832 51 l 832 0 l 597 0 l 303 363 l 303 85 l 408 51 l 408 0 l 56 0 l 56 51 l 171 83 l 171 604 l 56 624 l 56 674 z "},"ў":{"ha":843,"x_min":28,"x_max":829,"o":"m 653 1042 l 694 1042 q 625 882 694 939 q 460 825 556 825 q 294 882 364 825 q 224 1042 224 939 l 268 1042 q 326 954 268 986 q 460 922 383 922 q 595 954 538 922 q 653 1042 653 986 m 538 675 l 829 675 l 829 622 l 719 606 l 431 -106 q 332 -290 371 -247 q 204 -333 293 -333 l 143 -333 l 143 -131 l 194 -131 l 229 -256 q 292 -233 272 -253 q 321 -201 311 -212 q 344 -162 331 -190 q 363 -118 357 -133 q 385 -62 369 -103 q 408 -3 400 -22 l 143 597 l 28 622 l 28 674 l 381 674 l 381 622 l 286 603 l 476 153 l 644 604 l 538 622 l 538 675 z "},"џ":{"ha":978,"x_min":83,"x_max":894,"o":"m 83 0 l 83 50 l 190 81 l 190 592 l 83 621 l 83 672 l 436 672 l 436 621 l 322 590 l 322 50 l 653 50 l 653 590 l 542 621 l 542 672 l 894 672 l 894 621 l 785 592 l 785 81 l 894 50 l 894 0 l 558 0 l 511 -174 l 458 -174 l 411 0 l 83 0 z "},"Ґ":{"ha":840,"x_min":67,"x_max":833,"o":"m 351 982 l 351 82 l 489 51 l 489 0 l 67 0 l 67 51 l 206 83 l 206 957 l 68 990 l 68 1042 l 706 1042 l 761 1274 l 833 1274 l 833 982 l 351 982 z "},"ґ":{"ha":624,"x_min":46,"x_max":617,"o":"m 50 672 l 528 672 l 568 850 l 617 850 l 617 622 l 286 622 l 286 82 l 399 51 l 399 0 l 46 0 l 46 51 l 154 82 l 154 593 l 50 622 l 50 672 z "},"Ẁ":{"ha":1788,"x_min":56,"x_max":1732,"o":"m 1392 1042 l 1732 1042 l 1732 992 l 1611 956 l 1276 0 l 1193 0 l 890 860 l 593 0 l 510 0 l 183 958 l 56 990 l 56 1042 l 478 1042 l 478 990 l 338 960 l 593 196 l 883 1042 l 969 1042 l 1275 183 l 1514 958 l 1392 992 l 1392 1042 m 1078 1114 l 1035 1114 l 708 1315 l 894 1315 l 1078 1114 z "},"ẁ":{"ha":1311,"x_min":42,"x_max":1269,"o":"m 979 675 l 1269 675 l 1269 622 l 1160 603 l 938 0 l 853 0 l 660 529 l 471 0 l 381 0 l 160 601 l 42 622 l 42 674 l 394 674 l 394 622 l 299 603 l 460 143 l 647 676 l 738 676 l 933 138 l 1081 604 l 979 622 l 979 675 m 840 840 l 797 840 l 471 1042 l 657 1042 l 840 840 z "},"Ẃ":{"ha":1788,"x_min":56,"x_max":1732,"o":"m 1392 1042 l 1732 1042 l 1732 992 l 1611 956 l 1276 0 l 1193 0 l 890 860 l 593 0 l 510 0 l 183 958 l 56 990 l 56 1042 l 478 1042 l 478 990 l 338 960 l 593 196 l 883 1042 l 969 1042 l 1275 183 l 1514 958 l 1392 992 l 1392 1042 m 765 1113 l 721 1113 l 904 1315 l 1090 1315 l 765 1113 z "},"ẃ":{"ha":1311,"x_min":42,"x_max":1269,"o":"m 979 675 l 1269 675 l 1269 622 l 1160 603 l 938 0 l 853 0 l 660 529 l 471 0 l 381 0 l 160 601 l 42 622 l 42 674 l 394 674 l 394 622 l 299 603 l 460 143 l 647 676 l 738 676 l 933 138 l 1081 604 l 979 622 l 979 675 m 538 839 l 493 839 l 676 1042 l 863 1042 l 538 839 z "},"Ẅ":{"ha":1788,"x_min":56,"x_max":1732,"o":"m 1392 1042 l 1732 1042 l 1732 992 l 1611 956 l 1276 0 l 1193 0 l 890 860 l 593 0 l 510 0 l 183 958 l 56 990 l 56 1042 l 478 1042 l 478 990 l 338 960 l 593 196 l 883 1042 l 969 1042 l 1275 183 l 1514 958 l 1392 992 l 1392 1042 m 674 1222 q 674 1241 674 1222 q 698 1281 674 1260 q 763 1303 722 1303 q 829 1281 804 1303 q 854 1223 854 1260 q 831 1164 854 1186 q 765 1142 807 1142 q 698 1163 722 1142 q 674 1222 674 1185 m 983 1222 q 983 1241 983 1222 q 1008 1281 983 1260 q 1073 1303 1032 1303 q 1139 1281 1114 1303 q 1164 1223 1164 1260 q 1140 1164 1164 1186 q 1074 1142 1117 1142 q 1008 1163 1032 1142 q 983 1222 983 1185 z "},"ẅ":{"ha":1311,"x_min":42,"x_max":1269,"o":"m 979 675 l 1269 675 l 1269 622 l 1160 603 l 938 0 l 853 0 l 660 529 l 471 0 l 381 0 l 160 601 l 42 622 l 42 674 l 394 674 l 394 622 l 299 603 l 460 143 l 647 676 l 738 676 l 933 138 l 1081 604 l 979 622 l 979 675 m 433 969 q 433 988 433 969 q 458 1028 433 1007 q 523 1050 482 1050 q 589 1028 564 1050 q 614 970 614 1007 q 590 911 614 933 q 524 889 567 889 q 458 910 482 889 q 433 969 433 932 m 743 969 q 743 988 743 969 q 767 1028 743 1007 q 833 1050 792 1050 q 899 1028 874 1050 q 924 970 924 1007 q 900 911 924 933 q 834 889 876 889 q 767 910 792 889 q 743 969 743 932 z "},"Ỳ":{"ha":1110,"x_min":42,"x_max":1068,"o":"m 42 1042 l 464 1042 l 464 990 l 342 961 l 606 508 l 849 957 l 728 992 l 728 1042 l 1068 1042 l 1068 992 l 944 954 l 636 446 l 636 83 l 779 51 l 779 0 l 357 0 l 357 51 l 490 82 l 490 426 l 175 956 l 42 990 l 42 1042 m 738 1114 l 694 1114 l 368 1315 l 554 1315 l 738 1114 z "},"ỳ":{"ha":843,"x_min":14,"x_max":815,"o":"m 524 675 l 815 675 l 815 622 l 706 606 l 417 -106 q 318 -290 357 -247 q 190 -333 279 -333 l 129 -333 l 129 -131 l 181 -131 l 215 -256 q 278 -233 258 -253 q 307 -201 297 -212 q 330 -162 317 -190 q 349 -118 343 -133 q 371 -62 356 -103 q 394 -3 386 -22 l 129 597 l 14 622 l 14 674 l 367 674 l 367 622 l 272 603 l 463 153 l 631 604 l 524 622 l 524 675 m 606 840 l 563 840 l 236 1042 l 422 1042 l 606 840 z "},"–":{"ha":925,"x_min":76,"x_max":847,"o":"m 76 411 l 847 411 l 847 317 l 76 317 l 76 411 z "},"—":{"ha":1192,"x_min":76,"x_max":1115,"o":"m 76 411 l 1115 411 l 1115 317 l 76 317 l 76 411 z "},"‘":{"ha":397,"x_min":65,"x_max":242,"o":"m 242 1104 l 242 754 l 65 754 l 175 1104 l 242 1104 z "},"’":{"ha":397,"x_min":76,"x_max":253,"o":"m 76 754 l 76 1104 l 253 1104 l 142 754 l 76 754 z "},"‚":{"ha":375,"x_min":54,"x_max":310,"o":"m 118 -194 l 54 -194 l 133 156 l 310 156 l 118 -194 z "},"“":{"ha":663,"x_min":65,"x_max":508,"o":"m 508 1106 l 508 756 l 329 756 l 446 1106 l 508 1106 m 242 1106 l 242 756 l 65 756 l 178 1106 l 242 1106 z "},"”":{"ha":663,"x_min":76,"x_max":519,"o":"m 343 756 l 343 1104 l 519 1104 l 406 756 l 343 756 m 76 756 l 76 1104 l 263 1104 l 140 756 l 76 756 z "},"„":{"ha":640,"x_min":54,"x_max":575,"o":"m 385 -194 l 318 -194 l 397 156 l 575 156 l 385 -194 m 118 -194 l 54 -194 l 133 156 l 318 156 l 118 -194 z "},"†":{"ha":610,"x_min":58,"x_max":551,"o":"m 58 672 l 249 672 l 249 1042 l 344 1042 l 344 672 l 551 672 l 551 608 l 344 608 l 344 -372 l 249 -372 l 249 608 l 58 608 l 58 672 z "},"‡":{"ha":610,"x_min":58,"x_max":551,"o":"m 58 672 l 249 672 l 249 1042 l 344 1042 l 344 672 l 551 672 l 551 608 l 344 608 l 344 64 l 551 64 l 551 0 l 344 0 l 344 -372 l 249 -372 l 249 0 l 58 0 l 58 64 l 249 64 l 249 608 l 58 608 l 58 672 z "},"•":{"ha":1042,"x_min":306,"x_max":739,"o":"m 306 530 q 306 575 306 530 q 369 683 306 619 q 522 747 433 747 q 675 683 611 747 q 739 529 739 618 q 675 376 739 440 q 522 313 611 313 q 369 376 433 313 q 306 530 306 440 z "},"…":{"ha":1038,"x_min":79,"x_max":953,"o":"m 772 75 q 772 94 772 75 q 797 140 772 114 q 862 165 821 165 q 928 141 903 165 q 953 76 953 117 q 928 10 953 36 q 863 -15 903 -15 q 797 10 822 -15 q 772 75 772 36 m 425 75 q 425 94 425 75 q 450 139 425 113 q 516 165 475 165 q 583 141 557 165 q 608 76 608 117 q 583 10 608 36 q 517 -15 557 -15 q 451 11 476 -15 q 425 75 425 38 m 79 76 q 79 95 79 76 q 105 140 79 114 q 171 165 131 165 q 237 141 211 165 q 263 76 263 117 q 238 10 263 36 q 172 -15 213 -15 q 106 11 132 -15 q 79 76 79 38 z "},"‰":{"ha":1751,"x_min":43,"x_max":1706,"o":"m 1475 486 q 1354 267 1354 486 q 1383 92 1354 147 q 1476 36 1411 36 q 1600 258 1600 36 q 1572 430 1600 374 q 1475 486 1543 486 m 1247 263 q 1247 327 1247 263 q 1308 459 1247 392 q 1476 526 1369 526 q 1644 458 1582 526 q 1706 258 1706 389 q 1642 60 1706 128 q 1476 -7 1579 -7 q 1310 63 1372 -7 q 1247 263 1247 133 m 901 486 q 781 267 781 486 q 809 92 781 147 q 904 36 838 36 q 1026 258 1026 36 q 998 430 1026 374 q 901 486 969 486 m 675 262 q 675 327 675 262 q 735 459 675 392 q 903 526 796 526 q 1072 458 1010 526 q 1135 260 1135 389 q 1072 62 1135 131 q 903 -7 1008 -7 q 737 63 799 -7 q 675 262 675 132 m 974 1054 l 253 -49 l 204 -15 l 924 1089 l 974 1054 m 272 1006 q 151 788 151 1006 q 179 612 151 668 q 274 556 207 556 q 397 778 397 556 q 369 950 397 894 q 272 1006 340 1006 m 43 783 q 43 847 43 783 q 104 979 43 911 q 272 1047 165 1047 q 441 978 379 1047 q 503 778 503 910 q 441 581 503 647 q 274 514 379 514 q 106 584 169 514 q 43 783 43 654 z "},"‹":{"ha":433,"x_min":76,"x_max":356,"o":"m 293 86 l 76 350 l 293 614 l 354 614 l 222 350 l 356 86 l 293 86 z "},"›":{"ha":433,"x_min":76,"x_max":356,"o":"m 139 614 l 356 350 l 139 86 l 78 86 l 211 350 l 76 614 l 139 614 z "},"€":{"ha":1046,"x_min":35,"x_max":963,"o":"m 35 585 l 35 674 l 122 674 q 306 953 167 851 q 643 1056 444 1056 q 958 944 842 1056 l 958 719 l 886 719 l 818 940 q 619 1004 747 1004 q 401 919 492 1004 q 279 674 311 835 l 694 674 l 694 585 l 268 585 q 265 518 265 540 l 265 471 l 694 471 l 694 382 l 275 382 q 392 120 303 214 q 613 26 482 26 q 828 104 744 26 l 897 335 l 963 335 l 963 100 q 635 -29 839 -29 q 292 81 431 -29 q 117 382 154 190 l 35 382 l 35 471 l 106 471 q 104 518 104 486 q 108 585 104 550 l 35 585 z "},"™":{"ha":1536,"x_min":10,"x_max":1485,"o":"m 138 483 l 138 538 l 228 563 l 228 986 l 92 986 l 65 882 l 10 882 l 10 1042 l 567 1042 l 567 882 l 513 882 l 483 986 l 349 986 l 349 561 l 439 538 l 439 483 l 138 483 m 685 1042 l 919 1042 l 1085 633 l 1253 1042 l 1482 1042 l 1482 988 l 1396 965 l 1396 564 l 1485 538 l 1485 483 l 1185 483 l 1185 538 l 1275 564 l 1275 946 l 1090 483 l 1015 483 l 829 943 l 829 561 l 913 538 l 913 483 l 688 483 l 688 538 l 775 563 l 775 960 l 685 988 l 685 1042 z "},"∆":{"ha":956,"x_min":10,"x_max":950,"o":"m 121 79 l 749 79 l 453 796 l 121 79 m 10 0 l 511 1075 l 950 0 l 10 0 z "},"−":{"ha":849,"x_min":60,"x_max":789,"o":"m 60 568 l 789 568 l 789 475 l 60 475 l 60 568 z "},"≈":{"ha":858,"x_min":22,"x_max":817,"o":"m 617 403 q 406 464 563 403 l 335 492 q 207 525 251 525 q 68 385 108 525 l 22 397 q 224 642 69 642 q 389 597 276 642 l 479 561 q 631 519 581 519 q 714 553 681 519 q 772 661 747 586 l 817 646 q 617 403 764 403 m 617 115 q 406 176 563 115 l 335 204 q 207 238 251 238 q 68 97 108 238 l 22 110 q 224 354 69 354 q 389 310 276 354 l 479 274 q 631 232 581 232 q 714 265 681 232 q 772 374 747 299 l 817 358 q 617 115 764 115 z "},"≠":{"ha":858,"x_min":24,"x_max":843,"o":"m 24 222 l 24 308 l 336 308 l 446 525 l 24 525 l 24 611 l 489 611 l 613 858 l 686 821 l 581 611 l 843 611 l 843 525 l 538 525 l 426 308 l 843 308 l 843 222 l 385 222 l 251 -39 l 179 -1 l 293 222 l 24 222 z "},"≤":{"ha":858,"x_min":46,"x_max":822,"o":"m 822 999 l 822 901 l 167 590 l 822 279 l 822 183 l 46 547 l 46 633 l 822 999 m 822 86 l 822 0 l 46 0 l 46 86 l 822 86 z "},"≥":{"ha":858,"x_min":46,"x_max":822,"o":"m 46 999 l 822 633 l 822 547 l 46 183 l 46 279 l 699 590 l 46 901 l 46 999 m 822 86 l 822 0 l 46 0 l 46 86 l 822 86 z "},"◊":{"ha":772,"x_min":28,"x_max":728,"o":"m 375 90 l 628 585 l 385 1067 l 126 588 l 375 90 m 325 0 l 28 588 l 335 1156 l 433 1156 l 728 585 l 421 0 l 325 0 z "},"":{"ha":390,"x_min":75,"x_max":344,"o":"m 139 -357 l 75 -357 l 168 -107 l 344 -107 l 139 -357 z "}}}
